solid Surface 1
  facet normal -7.785264e-01 4.293151e-02 6.261418e-01
    outer loop
      vertex 1.777634e+06 5.430992e+06 -1.277934e+03
      vertex 1.776650e+06 5.431810e+06 -2.557306e+03
      vertex 1.776449e+06 5.430054e+06 -2.687023e+03
    endloop
  endfacet
  facet normal -7.756378e-01 4.935527e-02 6.292456e-01
    outer loop
      vertex 1.778618e+06 5.430174e+06 0.000000e+00
      vertex 1.777634e+06 5.430992e+06 -1.277934e+03
      vertex 1.777466e+06 5.429026e+06 -1.330717e+03
    endloop
  endfacet
  facet normal -7.786778e-01 4.296293e-02 6.259513e-01
    outer loop
      vertex 1.776650e+06 5.431810e+06 -2.557306e+03
      vertex 1.775462e+06 5.431274e+06 -3.998635e+03
      vertex 1.776449e+06 5.430054e+06 -2.687023e+03
    endloop
  endfacet
  facet normal -3.432616e-01 6.534137e-01 6.747014e-01
    outer loop
      vertex 1.739070e+06 5.399062e+06 -9.608266e+03
      vertex 1.740119e+06 5.398190e+06 -8.229497e+03
      vertex 1.740939e+06 5.399676e+06 -9.251401e+03
    endloop
  endfacet
  facet normal -3.375532e-01 6.522177e-01 6.787266e-01
    outer loop
      vertex 1.740119e+06 5.398190e+06 -8.229497e+03
      vertex 1.741176e+06 5.397312e+06 -6.859998e+03
      vertex 1.741950e+06 5.398964e+06 -8.063524e+03
    endloop
  endfacet
  facet normal -3.382589e-01 6.508949e-01 6.796446e-01
    outer loop
      vertex 1.741176e+06 5.397312e+06 -6.859998e+03
      vertex 1.742233e+06 5.396432e+06 -5.491734e+03
      vertex 1.743002e+06 5.398096e+06 -6.702273e+03
    endloop
  endfacet
  facet normal -3.416664e-01 6.506259e-01 6.781961e-01
    outer loop
      vertex 1.742233e+06 5.396432e+06 -5.491734e+03
      vertex 1.743288e+06 5.395556e+06 -4.119523e+03
      vertex 1.744071e+06 5.397149e+06 -5.253400e+03
    endloop
  endfacet
  facet normal -3.432581e-01 6.493298e-01 6.786344e-01
    outer loop
      vertex 1.743288e+06 5.395556e+06 -4.119523e+03
      vertex 1.744342e+06 5.394679e+06 -2.747356e+03
      vertex 1.745155e+06 5.396192e+06 -3.783669e+03
    endloop
  endfacet
  facet normal -3.448806e-01 6.491798e-01 6.779550e-01
    outer loop
      vertex 1.744342e+06 5.394679e+06 -2.747356e+03
      vertex 1.745395e+06 5.393804e+06 -1.373343e+03
      vertex 1.746216e+06 5.395246e+06 -2.336715e+03
    endloop
  endfacet
  facet normal -3.472687e-01 6.468540e-01 6.789584e-01
    outer loop
      vertex 1.745395e+06 5.393804e+06 -1.373343e+03
      vertex 1.746449e+06 5.392928e+06 0.000000e+00
      vertex 1.746947e+06 5.394304e+06 -1.056440e+03
    endloop
  endfacet
  facet normal -7.805099e-01 4.993499e-02 6.231458e-01
    outer loop
      vertex 1.777634e+06 5.430992e+06 -1.277934e+03
      vertex 1.776449e+06 5.430054e+06 -2.687023e+03
      vertex 1.777466e+06 5.429026e+06 -1.330717e+03
    endloop
  endfacet
  facet normal -7.429683e-01 1.308811e-01 6.564056e-01
    outer loop
      vertex 1.777466e+06 5.429026e+06 -1.330717e+03
      vertex 1.776449e+06 5.430054e+06 -2.687023e+03
      vertex 1.776148e+06 5.428032e+06 -2.624208e+03
    endloop
  endfacet
  facet normal -7.694495e-01 1.338292e-01 6.245297e-01
    outer loop
      vertex 1.776148e+06 5.428032e+06 -2.624208e+03
      vertex 1.776449e+06 5.430054e+06 -2.687023e+03
      vertex 1.775147e+06 5.429350e+06 -4.139978e+03
    endloop
  endfacet
  facet normal -7.749190e-01 4.743856e-02 6.302778e-01
    outer loop
      vertex 1.778618e+06 5.430174e+06 0.000000e+00
      vertex 1.777466e+06 5.429026e+06 -1.330717e+03
      vertex 1.778494e+06 5.428139e+06 1.607161e-12
    endloop
  endfacet
  facet normal -7.290205e-01 1.552880e-01 6.666444e-01
    outer loop
      vertex 1.778494e+06 5.428139e+06 1.607161e-12
      vertex 1.777466e+06 5.429026e+06 -1.330717e+03
      vertex 1.777209e+06 5.426897e+06 -1.116100e+03
    endloop
  endfacet
  facet normal -7.491741e-01 1.554267e-01 6.438795e-01
    outer loop
      vertex 1.777209e+06 5.426897e+06 -1.116100e+03
      vertex 1.777466e+06 5.429026e+06 -1.330717e+03
      vertex 1.776148e+06 5.428032e+06 -2.624208e+03
    endloop
  endfacet
  facet normal -5.772161e-01 4.037384e-01 7.098006e-01
    outer loop
      vertex 1.777209e+06 5.426897e+06 -1.116100e+03
      vertex 1.776148e+06 5.428032e+06 -2.624208e+03
      vertex 1.775660e+06 5.426052e+06 -1.895005e+03
    endloop
  endfacet
  facet normal -7.242598e-01 1.433332e-01 6.744652e-01
    outer loop
      vertex 1.778494e+06 5.428139e+06 1.607161e-12
      vertex 1.777209e+06 5.426897e+06 -1.116100e+03
      vertex 1.778105e+06 5.426174e+06 0.000000e+00
    endloop
  endfacet
  facet normal -5.506239e-01 4.255995e-01 7.181075e-01
    outer loop
      vertex 1.778105e+06 5.426174e+06 0.000000e+00
      vertex 1.777209e+06 5.426897e+06 -1.116100e+03
      vertex 1.776860e+06 5.424562e+06 0.000000e+00
    endloop
  endfacet
  facet normal -5.850557e-01 4.033721e-01 7.035629e-01
    outer loop
      vertex 1.775660e+06 5.426052e+06 -1.895005e+03
      vertex 1.776148e+06 5.428032e+06 -2.624208e+03
      vertex 1.774333e+06 5.427274e+06 -3.699438e+03
    endloop
  endfacet
  facet normal -5.801483e-01 4.202645e-01 6.977146e-01
    outer loop
      vertex 1.777209e+06 5.426897e+06 -1.116100e+03
      vertex 1.775660e+06 5.426052e+06 -1.895005e+03
      vertex 1.776860e+06 5.424562e+06 0.000000e+00
    endloop
  endfacet
  facet normal -7.071192e-01 2.820158e-01 6.484208e-01
    outer loop
      vertex 1.774225e+06 5.430970e+06 -5.523583e+03
      vertex 1.772842e+06 5.430426e+06 -6.794903e+03
      vertex 1.773534e+06 5.428938e+06 -5.393537e+03
    endloop
  endfacet
  facet normal -5.459066e-01 4.258411e-01 7.215576e-01
    outer loop
      vertex 1.772842e+06 5.430426e+06 -6.794903e+03
      vertex 1.771711e+06 5.428823e+06 -6.704572e+03
      vertex 1.773534e+06 5.428938e+06 -5.393537e+03
    endloop
  endfacet
  facet normal -6.329237e-01 2.619079e-01 7.285684e-01
    outer loop
      vertex 1.774225e+06 5.430970e+06 -5.523583e+03
      vertex 1.773534e+06 5.428938e+06 -5.393537e+03
      vertex 1.775147e+06 5.429350e+06 -4.139978e+03
    endloop
  endfacet
  facet normal -7.819549e-01 8.250448e-02 6.178508e-01
    outer loop
      vertex 1.774225e+06 5.430970e+06 -5.523583e+03
      vertex 1.775147e+06 5.429350e+06 -4.139978e+03
      vertex 1.775462e+06 5.431274e+06 -3.998635e+03
    endloop
  endfacet
  facet normal -7.608656e-01 7.711103e-02 6.443115e-01
    outer loop
      vertex 1.775462e+06 5.431274e+06 -3.998635e+03
      vertex 1.775147e+06 5.429350e+06 -4.139978e+03
      vertex 1.776449e+06 5.430054e+06 -2.687023e+03
    endloop
  endfacet
  facet normal -5.350749e-01 4.586627e-01 7.094528e-01
    outer loop
      vertex 1.770751e+06 5.427112e+06 -6.302375e+03
      vertex 1.769603e+06 5.425502e+06 -6.127330e+03
      vertex 1.771349e+06 5.425346e+06 -4.709084e+03
    endloop
  endfacet
  facet normal -5.846958e-01 3.989755e-01 7.063634e-01
    outer loop
      vertex 1.754225e+06 5.410250e+06 -9.890961e+03
      vertex 1.752672e+06 5.409231e+06 -1.060067e+04
      vertex 1.753738e+06 5.408448e+06 -9.276207e+03
    endloop
  endfacet
  facet normal -5.742645e-01 4.559316e-01 6.799607e-01
    outer loop
      vertex 1.751089e+06 5.408373e+06 -1.145765e+04
      vertex 1.749515e+06 5.407330e+06 -1.208718e+04
      vertex 1.750200e+06 5.406466e+06 -1.093034e+04
    endloop
  endfacet
  facet normal -3.953584e-01 6.085932e-01 6.879724e-01
    outer loop
      vertex 1.749515e+06 5.407330e+06 -1.208718e+04
      vertex 1.748065e+06 5.406020e+06 -1.176273e+04
      vertex 1.750200e+06 5.406466e+06 -1.093034e+04
    endloop
  endfacet
  facet normal -3.374433e-01 6.529647e-01 6.780628e-01
    outer loop
      vertex 1.742664e+06 5.400662e+06 -9.343683e+03
      vertex 1.740939e+06 5.399676e+06 -9.251401e+03
      vertex 1.741950e+06 5.398964e+06 -8.063524e+03
    endloop
  endfacet
  facet normal -3.377172e-01 6.527280e-01 6.781543e-01
    outer loop
      vertex 1.741950e+06 5.398964e+06 -8.063524e+03
      vertex 1.740939e+06 5.399676e+06 -9.251401e+03
      vertex 1.740119e+06 5.398190e+06 -8.229497e+03
    endloop
  endfacet
  facet normal -3.387227e-01 6.522906e-01 6.780737e-01
    outer loop
      vertex 1.741950e+06 5.398964e+06 -8.063524e+03
      vertex 1.741176e+06 5.397312e+06 -6.859998e+03
      vertex 1.743002e+06 5.398096e+06 -6.702273e+03
    endloop
  endfacet
  facet normal -3.390054e-01 6.520658e-01 6.781486e-01
    outer loop
      vertex 1.741950e+06 5.398964e+06 -8.063524e+03
      vertex 1.743002e+06 5.398096e+06 -6.702273e+03
      vertex 1.743699e+06 5.399874e+06 -8.063324e+03
    endloop
  endfacet
  facet normal -3.417841e-01 6.510981e-01 6.776835e-01
    outer loop
      vertex 1.743002e+06 5.398096e+06 -6.702273e+03
      vertex 1.742233e+06 5.396432e+06 -5.491734e+03
      vertex 1.744071e+06 5.397149e+06 -5.253400e+03
    endloop
  endfacet
  facet normal -3.411582e-01 6.515794e-01 6.775362e-01
    outer loop
      vertex 1.743002e+06 5.398096e+06 -6.702273e+03
      vertex 1.744071e+06 5.397149e+06 -5.253400e+03
      vertex 1.744805e+06 5.398807e+06 -6.478318e+03
    endloop
  endfacet
  facet normal -3.434799e-01 6.507684e-01 6.771426e-01
    outer loop
      vertex 1.744071e+06 5.397149e+06 -5.253400e+03
      vertex 1.743288e+06 5.395556e+06 -4.119523e+03
      vertex 1.745155e+06 5.396192e+06 -3.783669e+03
    endloop
  endfacet
  facet normal -3.427576e-01 6.513254e-01 6.769730e-01
    outer loop
      vertex 1.744071e+06 5.397149e+06 -5.253400e+03
      vertex 1.745155e+06 5.396192e+06 -3.783669e+03
      vertex 1.745922e+06 5.397766e+06 -4.909778e+03
    endloop
  endfacet
  facet normal -3.449088e-01 6.495189e-01 6.776158e-01
    outer loop
      vertex 1.745155e+06 5.396192e+06 -3.783669e+03
      vertex 1.744342e+06 5.394679e+06 -2.747356e+03
      vertex 1.746216e+06 5.395246e+06 -2.336715e+03
    endloop
  endfacet
  facet normal -3.441563e-01 6.500981e-01 6.774428e-01
    outer loop
      vertex 1.745155e+06 5.396192e+06 -3.783669e+03
      vertex 1.746216e+06 5.395246e+06 -2.336715e+03
      vertex 1.747074e+06 5.396716e+06 -3.312453e+03
    endloop
  endfacet
  facet normal -3.475794e-01 6.495538e-01 6.762162e-01
    outer loop
      vertex 1.746216e+06 5.395246e+06 -2.336715e+03
      vertex 1.745395e+06 5.393804e+06 -1.373343e+03
      vertex 1.746947e+06 5.394304e+06 -1.056440e+03
    endloop
  endfacet
  facet normal -3.454537e-01 6.509113e-01 6.760001e-01
    outer loop
      vertex 1.746216e+06 5.395246e+06 -2.336715e+03
      vertex 1.746947e+06 5.394304e+06 -1.056440e+03
      vertex 1.748282e+06 5.395544e+06 -1.568112e+03
    endloop
  endfacet
  facet normal -3.442938e-01 6.469029e-01 6.804252e-01
    outer loop
      vertex 1.746947e+06 5.394304e+06 -1.056440e+03
      vertex 1.746449e+06 5.392928e+06 0.000000e+00
      vertex 1.748249e+06 5.393886e+06 0.000000e+00
    endloop
  endfacet
  facet normal -3.425722e-01 6.491208e-01 6.791807e-01
    outer loop
      vertex 1.746947e+06 5.394304e+06 -1.056440e+03
      vertex 1.748249e+06 5.393886e+06 0.000000e+00
      vertex 1.748282e+06 5.395544e+06 -1.568112e+03
    endloop
  endfacet
  facet normal -5.837044e-01 3.811125e-01 7.169675e-01
    outer loop
      vertex 1.776148e+06 5.428032e+06 -2.624208e+03
      vertex 1.775147e+06 5.429350e+06 -4.139978e+03
      vertex 1.774333e+06 5.427274e+06 -3.699438e+03
    endloop
  endfacet
  facet normal -6.251121e-01 3.888313e-01 6.767902e-01
    outer loop
      vertex 1.774333e+06 5.427274e+06 -3.699438e+03
      vertex 1.775147e+06 5.429350e+06 -4.139978e+03
      vertex 1.773534e+06 5.428938e+06 -5.393537e+03
    endloop
  endfacet
  facet normal -5.365229e-01 4.609806e-01 7.068523e-01
    outer loop
      vertex 1.775660e+06 5.426052e+06 -1.895005e+03
      vertex 1.774333e+06 5.427274e+06 -3.699438e+03
      vertex 1.774045e+06 5.425226e+06 -2.581728e+03
    endloop
  endfacet
  facet normal -3.412865e-01 6.520757e-01 6.769940e-01
    outer loop
      vertex 1.743699e+06 5.399874e+06 -8.063324e+03
      vertex 1.743002e+06 5.398096e+06 -6.702273e+03
      vertex 1.744805e+06 5.398807e+06 -6.478318e+03
    endloop
  endfacet
  facet normal -3.441113e-01 6.499953e-01 6.775644e-01
    outer loop
      vertex 1.743699e+06 5.399874e+06 -8.063324e+03
      vertex 1.744805e+06 5.398807e+06 -6.478318e+03
      vertex 1.745468e+06 5.400537e+06 -7.801614e+03
    endloop
  endfacet
  facet normal -3.394993e-01 6.530163e-01 6.769859e-01
    outer loop
      vertex 1.741950e+06 5.398964e+06 -8.063524e+03
      vertex 1.743699e+06 5.399874e+06 -8.063324e+03
      vertex 1.742664e+06 5.400662e+06 -9.343683e+03
    endloop
  endfacet
  facet normal -3.428028e-01 6.516459e-01 6.766416e-01
    outer loop
      vertex 1.744805e+06 5.398807e+06 -6.478318e+03
      vertex 1.744071e+06 5.397149e+06 -5.253400e+03
      vertex 1.745922e+06 5.397766e+06 -4.909778e+03
    endloop
  endfacet
  facet normal -3.461918e-01 6.490979e-01 6.773648e-01
    outer loop
      vertex 1.744805e+06 5.398807e+06 -6.478318e+03
      vertex 1.745922e+06 5.397766e+06 -4.909778e+03
      vertex 1.746642e+06 5.399378e+06 -6.086485e+03
    endloop
  endfacet
  facet normal -3.442005e-01 6.514316e-01 6.761382e-01
    outer loop
      vertex 1.745922e+06 5.397766e+06 -4.909778e+03
      vertex 1.745155e+06 5.396192e+06 -3.783669e+03
      vertex 1.747074e+06 5.396716e+06 -3.312453e+03
    endloop
  endfacet
  facet normal -3.468089e-01 6.494469e-01 6.767144e-01
    outer loop
      vertex 1.745922e+06 5.397766e+06 -4.909778e+03
      vertex 1.747074e+06 5.396716e+06 -3.312453e+03
      vertex 1.747790e+06 5.398302e+06 -4.467934e+03
    endloop
  endfacet
  facet normal -3.455617e-01 6.503088e-01 6.765246e-01
    outer loop
      vertex 1.747074e+06 5.396716e+06 -3.312453e+03
      vertex 1.746216e+06 5.395246e+06 -2.336715e+03
      vertex 1.748282e+06 5.395544e+06 -1.568112e+03
    endloop
  endfacet
  facet normal -3.447759e-01 6.508874e-01 6.763690e-01
    outer loop
      vertex 1.747074e+06 5.396716e+06 -3.312453e+03
      vertex 1.748282e+06 5.395544e+06 -1.568112e+03
      vertex 1.748955e+06 5.397254e+06 -2.871036e+03
    endloop
  endfacet
  facet normal -3.462768e-01 6.499869e-01 6.764683e-01
    outer loop
      vertex 1.745468e+06 5.400537e+06 -7.801614e+03
      vertex 1.744805e+06 5.398807e+06 -6.478318e+03
      vertex 1.746642e+06 5.399378e+06 -6.086485e+03
    endloop
  endfacet
  facet normal -3.449295e-01 6.509702e-01 6.762111e-01
    outer loop
      vertex 1.745468e+06 5.400537e+06 -7.801614e+03
      vertex 1.746642e+06 5.399378e+06 -6.086485e+03
      vertex 1.747423e+06 5.400936e+06 -7.187744e+03
    endloop
  endfacet
  facet normal -3.437656e-01 6.484047e-01 6.792617e-01
    outer loop
      vertex 1.743699e+06 5.399874e+06 -8.063324e+03
      vertex 1.745468e+06 5.400537e+06 -7.801614e+03
      vertex 1.744119e+06 5.401946e+06 -9.828875e+03
    endloop
  endfacet
  facet normal -3.452582e-01 6.482159e-01 6.786847e-01
    outer loop
      vertex 1.743699e+06 5.399874e+06 -8.063324e+03
      vertex 1.744119e+06 5.401946e+06 -9.828875e+03
      vertex 1.742664e+06 5.400662e+06 -9.343683e+03
    endloop
  endfacet
  facet normal -3.467914e-01 6.491236e-01 6.770334e-01
    outer loop
      vertex 1.746642e+06 5.399378e+06 -6.086485e+03
      vertex 1.745922e+06 5.397766e+06 -4.909778e+03
      vertex 1.747790e+06 5.398302e+06 -4.467934e+03
    endloop
  endfacet
  facet normal -3.459325e-01 6.497695e-01 6.768532e-01
    outer loop
      vertex 1.746642e+06 5.399378e+06 -6.086485e+03
      vertex 1.747790e+06 5.398302e+06 -4.467934e+03
      vertex 1.748527e+06 5.399853e+06 -5.579231e+03
    endloop
  endfacet
  facet normal -3.446925e-01 6.493478e-01 6.778898e-01
    outer loop
      vertex 1.747790e+06 5.398302e+06 -4.467934e+03
      vertex 1.747074e+06 5.396716e+06 -3.312453e+03
      vertex 1.748955e+06 5.397254e+06 -2.871036e+03
    endloop
  endfacet
  facet normal -3.429098e-01 6.507128e-01 6.774848e-01
    outer loop
      vertex 1.747790e+06 5.398302e+06 -4.467934e+03
      vertex 1.748955e+06 5.397254e+06 -2.871036e+03
      vertex 1.749658e+06 5.398814e+06 -4.012591e+03
    endloop
  endfacet
  facet normal -3.429446e-01 6.508808e-01 6.773059e-01
    outer loop
      vertex 1.748955e+06 5.397254e+06 -2.871036e+03
      vertex 1.748282e+06 5.395544e+06 -1.568112e+03
      vertex 1.750256e+06 5.396364e+06 -1.356931e+03
    endloop
  endfacet
  facet normal -3.459251e-01 6.510534e-01 6.756222e-01
    outer loop
      vertex 1.747423e+06 5.400936e+06 -7.187744e+03
      vertex 1.746642e+06 5.399378e+06 -6.086485e+03
      vertex 1.748527e+06 5.399853e+06 -5.579231e+03
    endloop
  endfacet
  facet normal -3.444897e-01 6.521031e-01 6.753432e-01
    outer loop
      vertex 1.747423e+06 5.400936e+06 -7.187744e+03
      vertex 1.748527e+06 5.399853e+06 -5.579231e+03
      vertex 1.749347e+06 5.401328e+06 -6.585331e+03
    endloop
  endfacet
  facet normal -3.449216e-01 6.510632e-01 6.761256e-01
    outer loop
      vertex 1.745468e+06 5.400537e+06 -7.801614e+03
      vertex 1.747423e+06 5.400936e+06 -7.187744e+03
      vertex 1.746340e+06 5.402092e+06 -8.853990e+03
    endloop
  endfacet
  facet normal -3.428695e-01 6.495669e-01 6.786040e-01
    outer loop
      vertex 1.748527e+06 5.399853e+06 -5.579231e+03
      vertex 1.747790e+06 5.398302e+06 -4.467934e+03
      vertex 1.749658e+06 5.398814e+06 -4.012591e+03
    endloop
  endfacet
  facet normal -3.417719e-01 6.503968e-01 6.783627e-01
    outer loop
      vertex 1.748527e+06 5.399853e+06 -5.579231e+03
      vertex 1.749658e+06 5.398814e+06 -4.012591e+03
      vertex 1.750411e+06 5.400302e+06 -5.061098e+03
    endloop
  endfacet
  facet normal -3.430527e-01 6.507195e-01 6.774060e-01
    outer loop
      vertex 1.749658e+06 5.398814e+06 -4.012591e+03
      vertex 1.748955e+06 5.397254e+06 -2.871036e+03
      vertex 1.750809e+06 5.397852e+06 -2.506291e+03
    endloop
  endfacet
  facet normal -3.417413e-01 6.517552e-01 6.770732e-01
    outer loop
      vertex 1.749347e+06 5.401328e+06 -6.585331e+03
      vertex 1.748527e+06 5.399853e+06 -5.579231e+03
      vertex 1.750411e+06 5.400302e+06 -5.061098e+03
    endloop
  endfacet
  facet normal -3.413923e-01 6.520117e-01 6.770023e-01
    outer loop
      vertex 1.749347e+06 5.401328e+06 -6.585331e+03
      vertex 1.750411e+06 5.400302e+06 -5.061098e+03
      vertex 1.751247e+06 5.401744e+06 -6.028091e+03
    endloop
  endfacet
  facet normal -3.443860e-01 6.533211e-01 6.742179e-01
    outer loop
      vertex 1.747423e+06 5.400936e+06 -7.187744e+03
      vertex 1.749347e+06 5.401328e+06 -6.585331e+03
      vertex 1.748372e+06 5.402404e+06 -8.125170e+03
    endloop
  endfacet
  facet normal -3.442728e-01 6.506194e-01 6.768830e-01
    outer loop
      vertex 1.750411e+06 5.400302e+06 -5.061098e+03
      vertex 1.749658e+06 5.398814e+06 -4.012591e+03
      vertex 1.751533e+06 5.399300e+06 -3.527114e+03
    endloop
  endfacet
  facet normal -3.422192e-01 6.521329e-01 6.764678e-01
    outer loop
      vertex 1.751247e+06 5.401744e+06 -6.028091e+03
      vertex 1.750411e+06 5.400302e+06 -5.061098e+03
      vertex 1.752241e+06 5.400762e+06 -4.578052e+03
    endloop
  endfacet
  facet normal -3.414858e-01 6.502993e-01 6.786002e-01
    outer loop
      vertex 1.749347e+06 5.401328e+06 -6.585331e+03
      vertex 1.751247e+06 5.401744e+06 -6.028091e+03
      vertex 1.750282e+06 5.402722e+06 -7.451411e+03
    endloop
  endfacet
  facet normal -5.301723e-01 4.642068e-01 7.095276e-01
    outer loop
      vertex 1.771711e+06 5.428823e+06 -6.704572e+03
      vertex 1.770751e+06 5.427112e+06 -6.302375e+03
      vertex 1.772444e+06 5.427264e+06 -5.136452e+03
    endloop
  endfacet
  facet normal -5.360213e-01 4.597624e-01 7.080253e-01
    outer loop
      vertex 1.769603e+06 5.425502e+06 -6.127330e+03
      vertex 1.768256e+06 5.424020e+06 -6.184804e+03
      vertex 1.769863e+06 5.423736e+06 -4.783528e+03
    endloop
  endfacet
  facet normal -5.505048e-01 4.489696e-01 7.038258e-01
    outer loop
      vertex 1.768256e+06 5.424020e+06 -6.184804e+03
      vertex 1.766873e+06 5.422578e+06 -6.346537e+03
      vertex 1.768392e+06 5.422273e+06 -4.964119e+03
    endloop
  endfacet
  facet normal -5.842761e-01 4.061517e-01 7.026110e-01
    outer loop
      vertex 1.766873e+06 5.422578e+06 -6.346537e+03
      vertex 1.765483e+06 5.421178e+06 -6.692666e+03
      vertex 1.766959e+06 5.420830e+06 -5.264396e+03
    endloop
  endfacet
  facet normal -5.895897e-01 3.951198e-01 7.044603e-01
    outer loop
      vertex 1.765483e+06 5.421178e+06 -6.692666e+03
      vertex 1.764081e+06 5.419808e+06 -7.097759e+03
      vertex 1.765553e+06 5.419413e+06 -5.644558e+03
    endloop
  endfacet
  facet normal -5.868858e-01 3.995552e-01 7.042164e-01
    outer loop
      vertex 1.764081e+06 5.419808e+06 -7.097759e+03
      vertex 1.762685e+06 5.418424e+06 -7.476455e+03
      vertex 1.764134e+06 5.418030e+06 -6.044465e+03
    endloop
  endfacet
  facet normal -5.858072e-01 3.950683e-01 7.076375e-01
    outer loop
      vertex 1.762685e+06 5.418424e+06 -7.476455e+03
      vertex 1.761289e+06 5.417040e+06 -7.859021e+03
      vertex 1.762719e+06 5.416643e+06 -6.453908e+03
    endloop
  endfacet
  facet normal -5.862511e-01 3.954448e-01 7.070594e-01
    outer loop
      vertex 1.761289e+06 5.417040e+06 -7.859021e+03
      vertex 1.759869e+06 5.415694e+06 -8.284354e+03
      vertex 1.761274e+06 5.415258e+06 -6.875352e+03
    endloop
  endfacet
  facet normal -5.840594e-01 4.006697e-01 7.059309e-01
    outer loop
      vertex 1.759869e+06 5.415694e+06 -8.284354e+03
      vertex 1.758434e+06 5.414369e+06 -8.718872e+03
      vertex 1.759816e+06 5.413892e+06 -7.304983e+03
    endloop
  endfacet
  facet normal -5.834814e-01 3.982354e-01 7.077839e-01
    outer loop
      vertex 1.758434e+06 5.414369e+06 -8.718872e+03
      vertex 1.757020e+06 5.413010e+06 -9.120584e+03
      vertex 1.758350e+06 5.412500e+06 -7.737147e+03
    endloop
  endfacet
  facet normal -5.852515e-01 3.928256e-01 7.093439e-01
    outer loop
      vertex 1.757020e+06 5.413010e+06 -9.120584e+03
      vertex 1.755616e+06 5.411640e+06 -9.519859e+03
      vertex 1.756877e+06 5.411080e+06 -8.169589e+03
    endloop
  endfacet
  facet normal -5.851314e-01 3.968255e-01 7.072133e-01
    outer loop
      vertex 1.755616e+06 5.411640e+06 -9.519859e+03
      vertex 1.754225e+06 5.410250e+06 -9.890961e+03
      vertex 1.755361e+06 5.409698e+06 -8.641421e+03
    endloop
  endfacet
  facet normal -5.936558e-01 3.945615e-01 7.013516e-01
    outer loop
      vertex 1.752672e+06 5.409231e+06 -1.060067e+04
      vertex 1.751089e+06 5.408373e+06 -1.145765e+04
      vertex 1.752021e+06 5.407343e+06 -1.008977e+04
    endloop
  endfacet
  facet normal -3.426847e-01 6.484805e-01 6.797354e-01
    outer loop
      vertex 1.748065e+06 5.406020e+06 -1.176273e+04
      vertex 1.746733e+06 5.404668e+06 -1.114375e+04
      vertex 1.748888e+06 5.404960e+06 -1.033568e+04
    endloop
  endfacet
  facet normal -3.387234e-01 6.535792e-01 6.768313e-01
    outer loop
      vertex 1.746733e+06 5.404668e+06 -1.114375e+04
      vertex 1.745434e+06 5.403305e+06 -1.047746e+04
      vertex 1.747535e+06 5.403540e+06 -9.654060e+03
    endloop
  endfacet
  facet normal -3.402088e-01 6.524858e-01 6.771412e-01
    outer loop
      vertex 1.745434e+06 5.403305e+06 -1.047746e+04
      vertex 1.744119e+06 5.401946e+06 -9.828875e+03
      vertex 1.746340e+06 5.402092e+06 -8.853990e+03
    endloop
  endfacet
  facet normal -3.407837e-01 6.505159e-01 6.787456e-01
    outer loop
      vertex 1.746340e+06 5.402092e+06 -8.853990e+03
      vertex 1.744119e+06 5.401946e+06 -9.828875e+03
      vertex 1.745468e+06 5.400537e+06 -7.801614e+03
    endloop
  endfacet
  facet normal -5.343458e-01 4.605719e-01 7.087652e-01
    outer loop
      vertex 1.771349e+06 5.425346e+06 -4.709084e+03
      vertex 1.769603e+06 5.425502e+06 -6.127330e+03
      vertex 1.769863e+06 5.423736e+06 -4.783528e+03
    endloop
  endfacet
  facet normal -5.308459e-01 4.613723e-01 7.108715e-01
    outer loop
      vertex 1.770751e+06 5.427112e+06 -6.302375e+03
      vertex 1.771349e+06 5.425346e+06 -4.709084e+03
      vertex 1.772444e+06 5.427264e+06 -5.136452e+03
    endloop
  endfacet
  facet normal -5.882002e-01 3.940034e-01 7.062449e-01
    outer loop
      vertex 1.753738e+06 5.408448e+06 -9.276207e+03
      vertex 1.752672e+06 5.409231e+06 -1.060067e+04
      vertex 1.752021e+06 5.407343e+06 -1.008977e+04
    endloop
  endfacet
  facet normal -5.838821e-01 3.989835e-01 7.070317e-01
    outer loop
      vertex 1.754225e+06 5.410250e+06 -9.890961e+03
      vertex 1.753738e+06 5.408448e+06 -9.276207e+03
      vertex 1.755361e+06 5.409698e+06 -8.641421e+03
    endloop
  endfacet
  facet normal -5.436263e-01 4.496007e-01 7.087522e-01
    outer loop
      vertex 1.751089e+06 5.408373e+06 -1.145765e+04
      vertex 1.750200e+06 5.406466e+06 -1.093034e+04
      vertex 1.752021e+06 5.407343e+06 -1.008977e+04
    endloop
  endfacet
  facet normal -5.451457e-01 4.608614e-01 7.003021e-01
    outer loop
      vertex 1.752021e+06 5.407343e+06 -1.008977e+04
      vertex 1.750200e+06 5.406466e+06 -1.093034e+04
      vertex 1.751172e+06 5.405348e+06 -9.437595e+03
    endloop
  endfacet
  facet normal -3.782757e-01 6.056244e-01 7.000905e-01
    outer loop
      vertex 1.751172e+06 5.405348e+06 -9.437595e+03
      vertex 1.750200e+06 5.406466e+06 -1.093034e+04
      vertex 1.748888e+06 5.404960e+06 -1.033568e+04
    endloop
  endfacet
  facet normal -3.947927e-01 6.135930e-01 6.838437e-01
    outer loop
      vertex 1.748888e+06 5.404960e+06 -1.033568e+04
      vertex 1.750200e+06 5.406466e+06 -1.093034e+04
      vertex 1.748065e+06 5.406020e+06 -1.176273e+04
    endloop
  endfacet
  facet normal -5.395294e-01 4.600607e-01 7.051611e-01
    outer loop
      vertex 1.752021e+06 5.407343e+06 -1.008977e+04
      vertex 1.751172e+06 5.405348e+06 -9.437595e+03
      vertex 1.753211e+06 5.406532e+06 -8.650192e+03
    endloop
  endfacet
  facet normal -5.310134e-01 4.279936e-01 7.313319e-01
    outer loop
      vertex 1.753211e+06 5.406532e+06 -8.650192e+03
      vertex 1.751172e+06 5.405348e+06 -9.437595e+03
      vertex 1.752796e+06 5.404726e+06 -7.894769e+03
    endloop
  endfacet
  facet normal -5.878620e-01 3.927625e-01 7.072170e-01
    outer loop
      vertex 1.752021e+06 5.407343e+06 -1.008977e+04
      vertex 1.753211e+06 5.406532e+06 -8.650192e+03
      vertex 1.753738e+06 5.408448e+06 -9.276207e+03
    endloop
  endfacet
  facet normal -5.882825e-01 3.927636e-01 7.068666e-01
    outer loop
      vertex 1.753738e+06 5.408448e+06 -9.276207e+03
      vertex 1.753211e+06 5.406532e+06 -8.650192e+03
      vertex 1.755008e+06 5.407725e+06 -7.817560e+03
    endloop
  endfacet
  facet normal -5.879096e-01 3.914947e-01 7.078801e-01
    outer loop
      vertex 1.755008e+06 5.407725e+06 -7.817560e+03
      vertex 1.753211e+06 5.406532e+06 -8.650192e+03
      vertex 1.754531e+06 5.405764e+06 -7.128738e+03
    endloop
  endfacet
  facet normal -5.840964e-01 3.994997e-01 7.065631e-01
    outer loop
      vertex 1.753738e+06 5.408448e+06 -9.276207e+03
      vertex 1.755008e+06 5.407725e+06 -7.817560e+03
      vertex 1.755361e+06 5.409698e+06 -8.641421e+03
    endloop
  endfacet
  facet normal -5.396972e-01 4.603360e-01 7.048530e-01
    outer loop
      vertex 1.774045e+06 5.425226e+06 -2.581728e+03
      vertex 1.774333e+06 5.427274e+06 -3.699438e+03
      vertex 1.772966e+06 5.425966e+06 -3.890985e+03
    endloop
  endfacet
  facet normal -5.364382e-01 4.605043e-01 7.072269e-01
    outer loop
      vertex 1.775660e+06 5.426052e+06 -1.895005e+03
      vertex 1.774045e+06 5.425226e+06 -2.581728e+03
      vertex 1.775114e+06 5.424371e+06 -1.214835e+03
    endloop
  endfacet
  facet normal -3.425187e-01 6.494462e-01 6.788965e-01
    outer loop
      vertex 1.750256e+06 5.396364e+06 -1.356931e+03
      vertex 1.748282e+06 5.395544e+06 -1.568112e+03
      vertex 1.750053e+06 5.394838e+06 0.000000e+00
    endloop
  endfacet
  facet normal -3.428578e-01 6.490522e-01 6.791022e-01
    outer loop
      vertex 1.750053e+06 5.394838e+06 0.000000e+00
      vertex 1.748282e+06 5.395544e+06 -1.568112e+03
      vertex 1.748249e+06 5.393886e+06 0.000000e+00
    endloop
  endfacet
  facet normal -3.430600e-01 6.507790e-01 6.773452e-01
    outer loop
      vertex 1.748955e+06 5.397254e+06 -2.871036e+03
      vertex 1.750256e+06 5.396364e+06 -1.356931e+03
      vertex 1.750809e+06 5.397852e+06 -2.506291e+03
    endloop
  endfacet
  facet normal -3.448926e-01 6.507568e-01 6.764354e-01
    outer loop
      vertex 1.750809e+06 5.397852e+06 -2.506291e+03
      vertex 1.750256e+06 5.396364e+06 -1.356931e+03
      vertex 1.751895e+06 5.397004e+06 -1.137549e+03
    endloop
  endfacet
  facet normal -3.422867e-01 6.529036e-01 6.756899e-01
    outer loop
      vertex 1.746340e+06 5.402092e+06 -8.853990e+03
      vertex 1.747423e+06 5.400936e+06 -7.187744e+03
      vertex 1.748372e+06 5.402404e+06 -8.125170e+03
    endloop
  endfacet
  facet normal -3.420188e-01 6.545349e-01 6.742457e-01
    outer loop
      vertex 1.746340e+06 5.402092e+06 -8.853990e+03
      vertex 1.748372e+06 5.402404e+06 -8.125170e+03
      vertex 1.747535e+06 5.403540e+06 -9.654060e+03
    endloop
  endfacet
  facet normal -3.387683e-01 6.533772e-01 6.770038e-01
    outer loop
      vertex 1.746340e+06 5.402092e+06 -8.853990e+03
      vertex 1.747535e+06 5.403540e+06 -9.654060e+03
      vertex 1.745434e+06 5.403305e+06 -1.047746e+04
    endloop
  endfacet
  facet normal -3.442643e-01 6.497559e-01 6.777163e-01
    outer loop
      vertex 1.749658e+06 5.398814e+06 -4.012591e+03
      vertex 1.750809e+06 5.397852e+06 -2.506291e+03
      vertex 1.751533e+06 5.399300e+06 -3.527114e+03
    endloop
  endfacet
  facet normal -3.461825e-01 6.499169e-01 6.765838e-01
    outer loop
      vertex 1.751533e+06 5.399300e+06 -3.527114e+03
      vertex 1.750809e+06 5.397852e+06 -2.506291e+03
      vertex 1.752680e+06 5.398243e+06 -1.924800e+03
    endloop
  endfacet
  facet normal -3.470015e-01 6.515220e-01 6.746177e-01
    outer loop
      vertex 1.748372e+06 5.402404e+06 -8.125170e+03
      vertex 1.749347e+06 5.401328e+06 -6.585331e+03
      vertex 1.750282e+06 5.402722e+06 -7.451411e+03
    endloop
  endfacet
  facet normal -3.465566e-01 6.545260e-01 6.719332e-01
    outer loop
      vertex 1.748372e+06 5.402404e+06 -8.125170e+03
      vertex 1.750282e+06 5.402722e+06 -7.451411e+03
      vertex 1.749552e+06 5.403840e+06 -8.915572e+03
    endloop
  endfacet
  facet normal -3.422190e-01 6.521936e-01 6.764094e-01
    outer loop
      vertex 1.750411e+06 5.400302e+06 -5.061098e+03
      vertex 1.751533e+06 5.399300e+06 -3.527114e+03
      vertex 1.752241e+06 5.400762e+06 -4.578052e+03
    endloop
  endfacet
  facet normal -3.452722e-01 6.524078e-01 6.746490e-01
    outer loop
      vertex 1.752241e+06 5.400762e+06 -4.578052e+03
      vertex 1.751533e+06 5.399300e+06 -3.527114e+03
      vertex 1.753409e+06 5.399810e+06 -3.059956e+03
    endloop
  endfacet
  facet normal -3.448796e-01 6.501971e-01 6.769798e-01
    outer loop
      vertex 1.751247e+06 5.401744e+06 -6.028091e+03
      vertex 1.752241e+06 5.400762e+06 -4.578052e+03
      vertex 1.753150e+06 5.402204e+06 -5.499920e+03
    endloop
  endfacet
  facet normal -3.429520e-01 6.492450e-01 6.788703e-01
    outer loop
      vertex 1.750282e+06 5.402722e+06 -7.451411e+03
      vertex 1.751247e+06 5.401744e+06 -6.028091e+03
      vertex 1.752124e+06 5.403166e+06 -6.944544e+03
    endloop
  endfacet
  facet normal -5.378334e-01 4.585225e-01 7.074549e-01
    outer loop
      vertex 1.771711e+06 5.428823e+06 -6.704572e+03
      vertex 1.772444e+06 5.427264e+06 -5.136452e+03
      vertex 1.773534e+06 5.428938e+06 -5.393537e+03
    endloop
  endfacet
  facet normal -5.394985e-01 4.593305e-01 7.056605e-01
    outer loop
      vertex 1.773534e+06 5.428938e+06 -5.393537e+03
      vertex 1.772444e+06 5.427264e+06 -5.136452e+03
      vertex 1.774333e+06 5.427274e+06 -3.699438e+03
    endloop
  endfacet
  facet normal -5.385612e-01 4.540554e-01 7.097785e-01
    outer loop
      vertex 1.769863e+06 5.423736e+06 -4.783528e+03
      vertex 1.768256e+06 5.424020e+06 -6.184804e+03
      vertex 1.768392e+06 5.422273e+06 -4.964119e+03
    endloop
  endfacet
  facet normal -5.660806e-01 4.135516e-01 7.131114e-01
    outer loop
      vertex 1.768392e+06 5.422273e+06 -4.964119e+03
      vertex 1.766873e+06 5.422578e+06 -6.346537e+03
      vertex 1.766959e+06 5.420830e+06 -5.264396e+03
    endloop
  endfacet
  facet normal -5.889686e-01 3.953696e-01 7.048396e-01
    outer loop
      vertex 1.766959e+06 5.420830e+06 -5.264396e+03
      vertex 1.765483e+06 5.421178e+06 -6.692666e+03
      vertex 1.765553e+06 5.419413e+06 -5.644558e+03
    endloop
  endfacet
  facet normal -5.877348e-01 3.992222e-01 7.036970e-01
    outer loop
      vertex 1.765553e+06 5.419413e+06 -5.644558e+03
      vertex 1.764081e+06 5.419808e+06 -7.097759e+03
      vertex 1.764134e+06 5.418030e+06 -6.044465e+03
    endloop
  endfacet
  facet normal -5.872846e-01 3.985403e-01 7.044590e-01
    outer loop
      vertex 1.765553e+06 5.419413e+06 -5.644558e+03
      vertex 1.764134e+06 5.418030e+06 -6.044465e+03
      vertex 1.765632e+06 5.417620e+06 -4.564835e+03
    endloop
  endfacet
  facet normal -5.895634e-01 3.936554e-01 7.053016e-01
    outer loop
      vertex 1.764134e+06 5.418030e+06 -6.044465e+03
      vertex 1.762685e+06 5.418424e+06 -7.476455e+03
      vertex 1.762719e+06 5.416643e+06 -6.453908e+03
    endloop
  endfacet
  facet normal -5.855215e-01 3.956949e-01 7.075239e-01
    outer loop
      vertex 1.762719e+06 5.416643e+06 -6.453908e+03
      vertex 1.761289e+06 5.417040e+06 -7.859021e+03
      vertex 1.761274e+06 5.415258e+06 -6.875352e+03
    endloop
  endfacet
  facet normal -5.836948e-01 4.007866e-01 7.061660e-01
    outer loop
      vertex 1.761274e+06 5.415258e+06 -6.875352e+03
      vertex 1.759869e+06 5.415694e+06 -8.284354e+03
      vertex 1.759816e+06 5.413892e+06 -7.304983e+03
    endloop
  endfacet
  facet normal -5.855938e-01 3.976009e-01 7.063947e-01
    outer loop
      vertex 1.759816e+06 5.413892e+06 -7.304983e+03
      vertex 1.758434e+06 5.414369e+06 -8.718872e+03
      vertex 1.758350e+06 5.412500e+06 -7.737147e+03
    endloop
  endfacet
  facet normal -5.868688e-01 3.996296e-01 7.041883e-01
    outer loop
      vertex 1.759816e+06 5.413892e+06 -7.304983e+03
      vertex 1.758350e+06 5.412500e+06 -7.737147e+03
      vertex 1.759737e+06 5.412049e+06 -6.324917e+03
    endloop
  endfacet
  facet normal -5.870395e-01 3.992801e-01 7.042443e-01
    outer loop
      vertex 1.759737e+06 5.412049e+06 -6.324917e+03
      vertex 1.758350e+06 5.412500e+06 -7.737147e+03
      vertex 1.758218e+06 5.410592e+06 -6.765280e+03
    endloop
  endfacet
  facet normal -5.862944e-01 3.998061e-01 7.045665e-01
    outer loop
      vertex 1.759816e+06 5.413892e+06 -7.304983e+03
      vertex 1.759737e+06 5.412049e+06 -6.324917e+03
      vertex 1.761232e+06 5.413452e+06 -5.876613e+03
    endloop
  endfacet
  facet normal -5.864491e-01 3.925122e-01 7.085277e-01
    outer loop
      vertex 1.758350e+06 5.412500e+06 -7.737147e+03
      vertex 1.757020e+06 5.413010e+06 -9.120584e+03
      vertex 1.756877e+06 5.411080e+06 -8.169589e+03
    endloop
  endfacet
  facet normal -5.902287e-01 3.983967e-01 7.020756e-01
    outer loop
      vertex 1.758350e+06 5.412500e+06 -7.737147e+03
      vertex 1.756877e+06 5.411080e+06 -8.169589e+03
      vertex 1.758218e+06 5.410592e+06 -6.765280e+03
    endloop
  endfacet
  facet normal -5.892963e-01 4.002226e-01 7.018203e-01
    outer loop
      vertex 1.758218e+06 5.410592e+06 -6.765280e+03
      vertex 1.756877e+06 5.411080e+06 -8.169589e+03
      vertex 1.756652e+06 5.409087e+06 -7.222177e+03
    endloop
  endfacet
  facet normal -5.850669e-01 4.011674e-01 7.048131e-01
    outer loop
      vertex 1.756652e+06 5.409087e+06 -7.222177e+03
      vertex 1.756877e+06 5.411080e+06 -8.169589e+03
      vertex 1.755361e+06 5.409698e+06 -8.641421e+03
    endloop
  endfacet
  facet normal -5.827899e-01 3.972770e-01 7.088913e-01
    outer loop
      vertex 1.755361e+06 5.409698e+06 -8.641421e+03
      vertex 1.756877e+06 5.411080e+06 -8.169589e+03
      vertex 1.755616e+06 5.411640e+06 -9.519859e+03
    endloop
  endfacet
  facet normal -5.861857e-01 3.992172e-01 7.049908e-01
    outer loop
      vertex 1.756652e+06 5.409087e+06 -7.222177e+03
      vertex 1.755361e+06 5.409698e+06 -8.641421e+03
      vertex 1.755008e+06 5.407725e+06 -7.817560e+03
    endloop
  endfacet
  facet normal -5.879942e-01 3.981848e-01 7.040679e-01
    outer loop
      vertex 1.758218e+06 5.410592e+06 -6.765280e+03
      vertex 1.756652e+06 5.409087e+06 -7.222177e+03
      vertex 1.758128e+06 5.408629e+06 -5.729795e+03
    endloop
  endfacet
  facet normal -3.421104e-01 6.515304e-01 6.771031e-01
    outer loop
      vertex 1.748888e+06 5.404960e+06 -1.033568e+04
      vertex 1.746733e+06 5.404668e+06 -1.114375e+04
      vertex 1.747535e+06 5.403540e+06 -9.654060e+03
    endloop
  endfacet
  facet normal -3.438714e-01 6.523851e-01 6.753859e-01
    outer loop
      vertex 1.748888e+06 5.404960e+06 -1.033568e+04
      vertex 1.747535e+06 5.403540e+06 -9.654060e+03
      vertex 1.749552e+06 5.403840e+06 -8.915572e+03
    endloop
  endfacet
  facet normal -3.436755e-01 6.535137e-01 6.743939e-01
    outer loop
      vertex 1.749552e+06 5.403840e+06 -8.915572e+03
      vertex 1.747535e+06 5.403540e+06 -9.654060e+03
      vertex 1.748372e+06 5.402404e+06 -8.125170e+03
    endloop
  endfacet
  facet normal -3.737777e-01 6.352373e-01 6.758430e-01
    outer loop
      vertex 1.748888e+06 5.404960e+06 -1.033568e+04
      vertex 1.749552e+06 5.403840e+06 -8.915572e+03
      vertex 1.751172e+06 5.405348e+06 -9.437595e+03
    endloop
  endfacet
  facet normal -4.074675e-01 6.138293e-01 6.761537e-01
    outer loop
      vertex 1.752796e+06 5.404726e+06 -7.894769e+03
      vertex 1.751172e+06 5.405348e+06 -9.437595e+03
      vertex 1.751192e+06 5.403972e+06 -8.176324e+03
    endloop
  endfacet
  facet normal -3.616702e-01 6.270958e-01 6.898881e-01
    outer loop
      vertex 1.751192e+06 5.403972e+06 -8.176324e+03
      vertex 1.751172e+06 5.405348e+06 -9.437595e+03
      vertex 1.749552e+06 5.403840e+06 -8.915572e+03
    endloop
  endfacet
  facet normal -4.024304e-01 5.962037e-01 6.946877e-01
    outer loop
      vertex 1.752796e+06 5.404726e+06 -7.894769e+03
      vertex 1.751192e+06 5.403972e+06 -8.176324e+03
      vertex 1.752124e+06 5.403166e+06 -6.944544e+03
    endloop
  endfacet
  facet normal -3.430171e-01 6.457490e-01 6.821639e-01
    outer loop
      vertex 1.752124e+06 5.403166e+06 -6.944544e+03
      vertex 1.751192e+06 5.403972e+06 -8.176324e+03
      vertex 1.750282e+06 5.402722e+06 -7.451411e+03
    endloop
  endfacet
  facet normal -3.555683e-01 6.492165e-01 6.723757e-01
    outer loop
      vertex 1.750282e+06 5.402722e+06 -7.451411e+03
      vertex 1.751192e+06 5.403972e+06 -8.176324e+03
      vertex 1.749552e+06 5.403840e+06 -8.915572e+03
    endloop
  endfacet
  facet normal -4.187653e-01 5.969291e-01 6.843327e-01
    outer loop
      vertex 1.752796e+06 5.404726e+06 -7.894769e+03
      vertex 1.752124e+06 5.403166e+06 -6.944544e+03
      vertex 1.753987e+06 5.403808e+06 -6.364542e+03
    endloop
  endfacet
  facet normal -4.183485e-01 5.903746e-01 6.902481e-01
    outer loop
      vertex 1.753987e+06 5.403808e+06 -6.364542e+03
      vertex 1.752124e+06 5.403166e+06 -6.944544e+03
      vertex 1.753150e+06 5.402204e+06 -5.499920e+03
    endloop
  endfacet
  facet normal -3.448929e-01 6.495929e-01 6.775529e-01
    outer loop
      vertex 1.753150e+06 5.402204e+06 -5.499920e+03
      vertex 1.752124e+06 5.403166e+06 -6.944544e+03
      vertex 1.751247e+06 5.401744e+06 -6.028091e+03
    endloop
  endfacet
  facet normal -4.041927e-01 5.884007e-01 7.002949e-01
    outer loop
      vertex 1.753987e+06 5.403808e+06 -6.364542e+03
      vertex 1.753150e+06 5.402204e+06 -5.499920e+03
      vertex 1.755125e+06 5.402598e+06 -4.690833e+03
    endloop
  endfacet
  facet normal -5.626041e-01 4.394743e-01 7.002421e-01
    outer loop
      vertex 1.753987e+06 5.403808e+06 -6.364542e+03
      vertex 1.755125e+06 5.402598e+06 -4.690833e+03
      vertex 1.755651e+06 5.404724e+06 -5.602656e+03
    endloop
  endfacet
  facet normal -4.012086e-01 6.120113e-01 6.815232e-01
    outer loop
      vertex 1.755125e+06 5.402598e+06 -4.690833e+03
      vertex 1.753150e+06 5.402204e+06 -5.499920e+03
      vertex 1.753924e+06 5.401201e+06 -4.143840e+03
    endloop
  endfacet
  facet normal -5.675836e-01 4.317610e-01 7.010217e-01
    outer loop
      vertex 1.752796e+06 5.404726e+06 -7.894769e+03
      vertex 1.753987e+06 5.403808e+06 -6.364542e+03
      vertex 1.754531e+06 5.405764e+06 -7.128738e+03
    endloop
  endfacet
  facet normal -5.660596e-01 4.254797e-01 7.060761e-01
    outer loop
      vertex 1.752796e+06 5.404726e+06 -7.894769e+03
      vertex 1.754531e+06 5.405764e+06 -7.128738e+03
      vertex 1.753211e+06 5.406532e+06 -8.650192e+03
    endloop
  endfacet
  facet normal -5.641598e-01 4.393544e-01 6.990647e-01
    outer loop
      vertex 1.755651e+06 5.404724e+06 -5.602656e+03
      vertex 1.755125e+06 5.402598e+06 -4.690833e+03
      vertex 1.756804e+06 5.403844e+06 -4.118581e+03
    endloop
  endfacet
  facet normal -5.611333e-01 4.319442e-01 7.060833e-01
    outer loop
      vertex 1.753987e+06 5.403808e+06 -6.364542e+03
      vertex 1.755651e+06 5.404724e+06 -5.602656e+03
      vertex 1.754531e+06 5.405764e+06 -7.128738e+03
    endloop
  endfacet
  facet normal -3.444251e-01 6.501114e-01 6.772935e-01
    outer loop
      vertex 1.753924e+06 5.401201e+06 -4.143840e+03
      vertex 1.753150e+06 5.402204e+06 -5.499920e+03
      vertex 1.752241e+06 5.400762e+06 -4.578052e+03
    endloop
  endfacet
  facet normal -3.444566e-01 6.530626e-01 6.744323e-01
    outer loop
      vertex 1.753924e+06 5.401201e+06 -4.143840e+03
      vertex 1.752241e+06 5.400762e+06 -4.578052e+03
      vertex 1.753409e+06 5.399810e+06 -3.059956e+03
    endloop
  endfacet
  facet normal -3.468119e-01 6.530227e-01 6.732628e-01
    outer loop
      vertex 1.753924e+06 5.401201e+06 -4.143840e+03
      vertex 1.753409e+06 5.399810e+06 -3.059956e+03
      vertex 1.755426e+06 5.400672e+06 -2.856159e+03
    endloop
  endfacet
  facet normal -3.465219e-01 6.520957e-01 6.743099e-01
    outer loop
      vertex 1.755426e+06 5.400672e+06 -2.856159e+03
      vertex 1.753409e+06 5.399810e+06 -3.059956e+03
      vertex 1.754528e+06 5.398772e+06 -1.480615e+03
    endloop
  endfacet
  facet normal -3.848757e-01 6.042809e-01 6.976498e-01
    outer loop
      vertex 1.753924e+06 5.401201e+06 -4.143840e+03
      vertex 1.755426e+06 5.400672e+06 -2.856159e+03
      vertex 1.755125e+06 5.402598e+06 -4.690833e+03
    endloop
  endfacet
  facet normal -5.547432e-01 4.170831e-01 7.199317e-01
    outer loop
      vertex 1.756804e+06 5.403844e+06 -4.118581e+03
      vertex 1.755125e+06 5.402598e+06 -4.690833e+03
      vertex 1.756636e+06 5.402198e+06 -3.295388e+03
    endloop
  endfacet
  facet normal -5.903937e-01 4.042041e-01 6.986089e-01
    outer loop
      vertex 1.755651e+06 5.404724e+06 -5.602656e+03
      vertex 1.756804e+06 5.403844e+06 -4.118581e+03
      vertex 1.757105e+06 5.405489e+06 -4.816581e+03
    endloop
  endfacet
  facet normal -5.886638e-01 3.983728e-01 7.034017e-01
    outer loop
      vertex 1.754531e+06 5.405764e+06 -7.128738e+03
      vertex 1.755651e+06 5.404724e+06 -5.602656e+03
      vertex 1.756455e+06 5.406923e+06 -6.175293e+03
    endloop
  endfacet
  facet normal -3.482286e-01 6.508090e-01 6.746736e-01
    outer loop
      vertex 1.754528e+06 5.398772e+06 -1.480615e+03
      vertex 1.753409e+06 5.399810e+06 -3.059956e+03
      vertex 1.752680e+06 5.398243e+06 -1.924800e+03
    endloop
  endfacet
  facet normal -3.452227e-01 6.506432e-01 6.763761e-01
    outer loop
      vertex 1.752680e+06 5.398243e+06 -1.924800e+03
      vertex 1.753409e+06 5.399810e+06 -3.059956e+03
      vertex 1.751533e+06 5.399300e+06 -3.527114e+03
    endloop
  endfacet
  facet normal -3.394280e-01 6.516545e-01 6.783326e-01
    outer loop
      vertex 1.755426e+06 5.400672e+06 -2.856159e+03
      vertex 1.754528e+06 5.398772e+06 -1.480615e+03
      vertex 1.756568e+06 5.399454e+06 -1.115119e+03
    endloop
  endfacet
  facet normal -5.870877e-01 3.915280e-01 7.085435e-01
    outer loop
      vertex 1.755008e+06 5.407725e+06 -7.817560e+03
      vertex 1.754531e+06 5.405764e+06 -7.128738e+03
      vertex 1.756455e+06 5.406923e+06 -6.175293e+03
    endloop
  endfacet
  facet normal -5.845139e-01 3.957396e-01 7.083316e-01
    outer loop
      vertex 1.755008e+06 5.407725e+06 -7.817560e+03
      vertex 1.756455e+06 5.406923e+06 -6.175293e+03
      vertex 1.756652e+06 5.409087e+06 -7.222177e+03
    endloop
  endfacet
  facet normal -5.393318e-01 4.598689e-01 7.054373e-01
    outer loop
      vertex 1.772966e+06 5.425966e+06 -3.890985e+03
      vertex 1.774333e+06 5.427274e+06 -3.699438e+03
      vertex 1.772444e+06 5.427264e+06 -5.136452e+03
    endloop
  endfacet
  facet normal -5.350492e-01 4.628519e-01 7.067464e-01
    outer loop
      vertex 1.772966e+06 5.425966e+06 -3.890985e+03
      vertex 1.772444e+06 5.427264e+06 -5.136452e+03
      vertex 1.771349e+06 5.425346e+06 -4.709084e+03
    endloop
  endfacet
  facet normal -5.373831e-01 4.633449e-01 7.046494e-01
    outer loop
      vertex 1.774045e+06 5.425226e+06 -2.581728e+03
      vertex 1.772966e+06 5.425966e+06 -3.890985e+03
      vertex 1.772646e+06 5.424530e+06 -3.191308e+03
    endloop
  endfacet
  facet normal -5.343385e-01 4.630328e-01 7.071654e-01
    outer loop
      vertex 1.775114e+06 5.424371e+06 -1.214835e+03
      vertex 1.774045e+06 5.425226e+06 -2.581728e+03
      vertex 1.773461e+06 5.423108e+06 -1.636204e+03
    endloop
  endfacet
  facet normal -5.403471e-01 4.605558e-01 7.042112e-01
    outer loop
      vertex 1.775660e+06 5.426052e+06 -1.895005e+03
      vertex 1.775114e+06 5.424371e+06 -1.214835e+03
      vertex 1.776860e+06 5.424562e+06 0.000000e+00
    endloop
  endfacet
  facet normal -3.444001e-01 6.487526e-01 6.786079e-01
    outer loop
      vertex 1.751895e+06 5.397004e+06 -1.137549e+03
      vertex 1.750256e+06 5.396364e+06 -1.356931e+03
      vertex 1.751855e+06 5.395794e+06 0.000000e+00
    endloop
  endfacet
  facet normal -3.440471e-01 6.491848e-01 6.783736e-01
    outer loop
      vertex 1.751855e+06 5.395794e+06 0.000000e+00
      vertex 1.750256e+06 5.396364e+06 -1.356931e+03
      vertex 1.750053e+06 5.394838e+06 0.000000e+00
    endloop
  endfacet
  facet normal -3.460592e-01 6.483635e-01 6.781356e-01
    outer loop
      vertex 1.751895e+06 5.397004e+06 -1.137549e+03
      vertex 1.751855e+06 5.395794e+06 0.000000e+00
      vertex 1.753654e+06 5.396754e+06 0.000000e+00
    endloop
  endfacet
  facet normal -3.462010e-01 6.496766e-01 6.768051e-01
    outer loop
      vertex 1.750809e+06 5.397852e+06 -2.506291e+03
      vertex 1.751895e+06 5.397004e+06 -1.137549e+03
      vertex 1.752680e+06 5.398243e+06 -1.924800e+03
    endloop
  endfacet
  facet normal -3.453959e-01 6.495219e-01 6.773646e-01
    outer loop
      vertex 1.752680e+06 5.398243e+06 -1.924800e+03
      vertex 1.751895e+06 5.397004e+06 -1.137549e+03
      vertex 1.753654e+06 5.396754e+06 0.000000e+00
    endloop
  endfacet
  facet normal -5.879222e-01 3.971413e-01 7.047172e-01
    outer loop
      vertex 1.765632e+06 5.417620e+06 -4.564835e+03
      vertex 1.764134e+06 5.418030e+06 -6.044465e+03
      vertex 1.764183e+06 5.416225e+06 -4.987167e+03
    endloop
  endfacet
  facet normal -5.886628e-01 3.979780e-01 7.036260e-01
    outer loop
      vertex 1.765553e+06 5.419413e+06 -5.644558e+03
      vertex 1.765632e+06 5.417620e+06 -4.564835e+03
      vertex 1.767052e+06 5.419034e+06 -4.176872e+03
    endloop
  endfacet
  facet normal -5.910544e-01 3.959223e-01 7.027804e-01
    outer loop
      vertex 1.764134e+06 5.418030e+06 -6.044465e+03
      vertex 1.762719e+06 5.416643e+06 -6.453908e+03
      vertex 1.764183e+06 5.416225e+06 -4.987167e+03
    endloop
  endfacet
  facet normal -5.914234e-01 3.951217e-01 7.029205e-01
    outer loop
      vertex 1.764183e+06 5.416225e+06 -4.987167e+03
      vertex 1.762719e+06 5.416643e+06 -6.453908e+03
      vertex 1.762727e+06 5.414828e+06 -5.427404e+03
    endloop
  endfacet
  facet normal -5.868380e-01 3.989653e-01 7.045906e-01
    outer loop
      vertex 1.759737e+06 5.412049e+06 -6.324917e+03
      vertex 1.758218e+06 5.410592e+06 -6.765280e+03
      vertex 1.759668e+06 5.410160e+06 -5.312859e+03
    endloop
  endfacet
  facet normal -5.850549e-01 3.977925e-01 7.067332e-01
    outer loop
      vertex 1.761232e+06 5.413452e+06 -5.876613e+03
      vertex 1.759737e+06 5.412049e+06 -6.324917e+03
      vertex 1.761201e+06 5.411590e+06 -4.854527e+03
    endloop
  endfacet
  facet normal -5.848909e-01 4.027211e-01 7.040727e-01
    outer loop
      vertex 1.759816e+06 5.413892e+06 -7.304983e+03
      vertex 1.761232e+06 5.413452e+06 -5.876613e+03
      vertex 1.761274e+06 5.415258e+06 -6.875352e+03
    endloop
  endfacet
  facet normal -5.833851e-01 4.032193e-01 7.050362e-01
    outer loop
      vertex 1.761274e+06 5.415258e+06 -6.875352e+03
      vertex 1.761232e+06 5.413452e+06 -5.876613e+03
      vertex 1.762727e+06 5.414828e+06 -5.427404e+03
    endloop
  endfacet
  facet normal -5.863339e-01 3.969641e-01 7.061388e-01
    outer loop
      vertex 1.761274e+06 5.415258e+06 -6.875352e+03
      vertex 1.762727e+06 5.414828e+06 -5.427404e+03
      vertex 1.762719e+06 5.416643e+06 -6.453908e+03
    endloop
  endfacet
  facet normal -5.897727e-01 3.944513e-01 7.046817e-01
    outer loop
      vertex 1.758128e+06 5.408629e+06 -5.729795e+03
      vertex 1.756652e+06 5.409087e+06 -7.222177e+03
      vertex 1.756455e+06 5.406923e+06 -6.175293e+03
    endloop
  endfacet
  facet normal -5.870739e-01 3.984645e-01 7.046775e-01
    outer loop
      vertex 1.758218e+06 5.410592e+06 -6.765280e+03
      vertex 1.758128e+06 5.408629e+06 -5.729795e+03
      vertex 1.759668e+06 5.410160e+06 -5.312859e+03
    endloop
  endfacet
  facet normal -5.873690e-01 3.988945e-01 7.041882e-01
    outer loop
      vertex 1.759668e+06 5.410160e+06 -5.312859e+03
      vertex 1.758128e+06 5.408629e+06 -5.729795e+03
      vertex 1.759700e+06 5.408278e+06 -4.219977e+03
    endloop
  endfacet
  facet normal -5.885378e-01 3.961421e-01 7.047657e-01
    outer loop
      vertex 1.759700e+06 5.408278e+06 -4.219977e+03
      vertex 1.758128e+06 5.408629e+06 -5.729795e+03
      vertex 1.758252e+06 5.406824e+06 -4.612252e+03
    endloop
  endfacet
  facet normal -5.816871e-01 4.010225e-01 7.076871e-01
    outer loop
      vertex 1.759668e+06 5.410160e+06 -5.312859e+03
      vertex 1.759700e+06 5.408278e+06 -4.219977e+03
      vertex 1.761174e+06 5.409748e+06 -3.841093e+03
    endloop
  endfacet
  facet normal -4.724563e-01 5.679672e-01 6.739423e-01
    outer loop
      vertex 1.756636e+06 5.402198e+06 -3.295388e+03
      vertex 1.755125e+06 5.402598e+06 -4.690833e+03
      vertex 1.755426e+06 5.400672e+06 -2.856159e+03
    endloop
  endfacet
  facet normal -4.366616e-01 5.504460e-01 7.115728e-01
    outer loop
      vertex 1.756636e+06 5.402198e+06 -3.295388e+03
      vertex 1.755426e+06 5.400672e+06 -2.856159e+03
      vertex 1.757602e+06 5.401124e+06 -1.870695e+03
    endloop
  endfacet
  facet normal -4.329869e-01 5.802807e-01 6.897802e-01
    outer loop
      vertex 1.757602e+06 5.401124e+06 -1.870695e+03
      vertex 1.755426e+06 5.400672e+06 -2.856159e+03
      vertex 1.756568e+06 5.399454e+06 -1.115119e+03
    endloop
  endfacet
  facet normal -4.211680e-01 5.773550e-01 6.994845e-01
    outer loop
      vertex 1.757602e+06 5.401124e+06 -1.870695e+03
      vertex 1.756568e+06 5.399454e+06 -1.115119e+03
      vertex 1.758924e+06 5.399821e+06 0.000000e+00
    endloop
  endfacet
  facet normal -5.841019e-01 4.062141e-01 7.027197e-01
    outer loop
      vertex 1.756636e+06 5.402198e+06 -3.295388e+03
      vertex 1.757602e+06 5.401124e+06 -1.870695e+03
      vertex 1.758133e+06 5.403136e+06 -2.592926e+03
    endloop
  endfacet
  facet normal -5.772619e-01 4.063932e-01 7.082466e-01
    outer loop
      vertex 1.758133e+06 5.403136e+06 -2.592926e+03
      vertex 1.757602e+06 5.401124e+06 -1.870695e+03
      vertex 1.759324e+06 5.402180e+06 -1.073357e+03
    endloop
  endfacet
  facet normal -5.850767e-01 4.100544e-01 6.996717e-01
    outer loop
      vertex 1.756636e+06 5.402198e+06 -3.295388e+03
      vertex 1.758133e+06 5.403136e+06 -2.592926e+03
      vertex 1.756804e+06 5.403844e+06 -4.118581e+03
    endloop
  endfacet
  facet normal -5.798756e-01 4.169216e-01 6.999434e-01
    outer loop
      vertex 1.759324e+06 5.402180e+06 -1.073357e+03
      vertex 1.757602e+06 5.401124e+06 -1.870695e+03
      vertex 1.758924e+06 5.399821e+06 0.000000e+00
    endloop
  endfacet
  facet normal -5.896761e-01 4.043052e-01 6.991562e-01
    outer loop
      vertex 1.757105e+06 5.405489e+06 -4.816581e+03
      vertex 1.756804e+06 5.403844e+06 -4.118581e+03
      vertex 1.758377e+06 5.405002e+06 -3.461921e+03
    endloop
  endfacet
  facet normal -5.895433e-01 3.984857e-01 7.026008e-01
    outer loop
      vertex 1.755651e+06 5.404724e+06 -5.602656e+03
      vertex 1.757105e+06 5.405489e+06 -4.816581e+03
      vertex 1.756455e+06 5.406923e+06 -6.175293e+03
    endloop
  endfacet
  facet normal -5.893551e-01 3.986385e-01 7.026720e-01
    outer loop
      vertex 1.756455e+06 5.406923e+06 -6.175293e+03
      vertex 1.757105e+06 5.405489e+06 -4.816581e+03
      vertex 1.758252e+06 5.406824e+06 -4.612252e+03
    endloop
  endfacet
  facet normal -5.903992e-01 3.953319e-01 7.036629e-01
    outer loop
      vertex 1.756455e+06 5.406923e+06 -6.175293e+03
      vertex 1.758252e+06 5.406824e+06 -4.612252e+03
      vertex 1.758128e+06 5.408629e+06 -5.729795e+03
    endloop
  endfacet
  facet normal -3.395160e-01 6.522453e-01 6.777204e-01
    outer loop
      vertex 1.756568e+06 5.399454e+06 -1.115119e+03
      vertex 1.754528e+06 5.398772e+06 -1.480615e+03
      vertex 1.755454e+06 5.397715e+06 0.000000e+00
    endloop
  endfacet
  facet normal -3.459927e-01 6.478679e-01 6.786429e-01
    outer loop
      vertex 1.755454e+06 5.397715e+06 0.000000e+00
      vertex 1.754528e+06 5.398772e+06 -1.480615e+03
      vertex 1.753654e+06 5.396754e+06 0.000000e+00
    endloop
  endfacet
  facet normal -3.480876e-01 6.479388e-01 6.775030e-01
    outer loop
      vertex 1.753654e+06 5.396754e+06 0.000000e+00
      vertex 1.754528e+06 5.398772e+06 -1.480615e+03
      vertex 1.752680e+06 5.398243e+06 -1.924800e+03
    endloop
  endfacet
  facet normal -3.452849e-01 6.533716e-01 6.737091e-01
    outer loop
      vertex 1.756568e+06 5.399454e+06 -1.115119e+03
      vertex 1.755454e+06 5.397715e+06 0.000000e+00
      vertex 1.757257e+06 5.398668e+06 0.000000e+00
    endloop
  endfacet
  facet normal -4.164255e-01 6.019289e-01 6.813746e-01
    outer loop
      vertex 1.756568e+06 5.399454e+06 -1.115119e+03
      vertex 1.757257e+06 5.398668e+06 0.000000e+00
      vertex 1.758924e+06 5.399821e+06 0.000000e+00
    endloop
  endfacet
  facet normal -5.350774e-01 4.636018e-01 7.062334e-01
    outer loop
      vertex 1.772646e+06 5.424530e+06 -3.191308e+03
      vertex 1.772966e+06 5.425966e+06 -3.890985e+03
      vertex 1.771349e+06 5.425346e+06 -4.709084e+03
    endloop
  endfacet
  facet normal -5.373107e-01 4.628870e-01 7.050055e-01
    outer loop
      vertex 1.774045e+06 5.425226e+06 -2.581728e+03
      vertex 1.772646e+06 5.424530e+06 -3.191308e+03
      vertex 1.773461e+06 5.423108e+06 -1.636204e+03
    endloop
  endfacet
  facet normal -5.355729e-01 4.655014e-01 7.046064e-01
    outer loop
      vertex 1.775114e+06 5.424371e+06 -1.214835e+03
      vertex 1.773461e+06 5.423108e+06 -1.636204e+03
      vertex 1.775532e+06 5.423014e+06 0.000000e+00
    endloop
  endfacet
  facet normal -5.398291e-01 4.628457e-01 7.031062e-01
    outer loop
      vertex 1.775114e+06 5.424371e+06 -1.214835e+03
      vertex 1.775532e+06 5.423014e+06 0.000000e+00
      vertex 1.776860e+06 5.424562e+06 0.000000e+00
    endloop
  endfacet
  facet normal -5.896600e-01 3.998508e-01 7.017267e-01
    outer loop
      vertex 1.765632e+06 5.417620e+06 -4.564835e+03
      vertex 1.764183e+06 5.416225e+06 -4.987167e+03
      vertex 1.765716e+06 5.415803e+06 -3.458536e+03
    endloop
  endfacet
  facet normal -5.890998e-01 3.986163e-01 7.028986e-01
    outer loop
      vertex 1.767052e+06 5.419034e+06 -4.176872e+03
      vertex 1.765632e+06 5.417620e+06 -4.564835e+03
      vertex 1.767178e+06 5.417217e+06 -3.039825e+03
    endloop
  endfacet
  facet normal -5.894877e-01 3.961132e-01 7.039877e-01
    outer loop
      vertex 1.765553e+06 5.419413e+06 -5.644558e+03
      vertex 1.767052e+06 5.419034e+06 -4.176872e+03
      vertex 1.766959e+06 5.420830e+06 -5.264396e+03
    endloop
  endfacet
  facet normal -5.919369e-01 3.959385e-01 7.020280e-01
    outer loop
      vertex 1.764183e+06 5.416225e+06 -4.987167e+03
      vertex 1.762727e+06 5.414828e+06 -5.427404e+03
      vertex 1.764207e+06 5.414402e+06 -3.938421e+03
    endloop
  endfacet
  facet normal -5.840743e-01 3.998313e-01 7.063938e-01
    outer loop
      vertex 1.759737e+06 5.412049e+06 -6.324917e+03
      vertex 1.759668e+06 5.410160e+06 -5.312859e+03
      vertex 1.761201e+06 5.411590e+06 -4.854527e+03
    endloop
  endfacet
  facet normal -5.891431e-01 3.964185e-01 7.041042e-01
    outer loop
      vertex 1.761232e+06 5.413452e+06 -5.876613e+03
      vertex 1.761201e+06 5.411590e+06 -4.854527e+03
      vertex 1.762706e+06 5.412996e+06 -4.386667e+03
    endloop
  endfacet
  facet normal -5.874791e-01 3.946194e-01 7.065012e-01
    outer loop
      vertex 1.759700e+06 5.408278e+06 -4.219977e+03
      vertex 1.758252e+06 5.406824e+06 -4.612252e+03
      vertex 1.759842e+06 5.406386e+06 -3.045458e+03
    endloop
  endfacet
  facet normal -5.836732e-01 4.038540e-01 7.044342e-01
    outer loop
      vertex 1.761174e+06 5.409748e+06 -3.841093e+03
      vertex 1.759700e+06 5.408278e+06 -4.219977e+03
      vertex 1.761196e+06 5.407923e+06 -2.777091e+03
    endloop
  endfacet
  facet normal -5.830204e-01 3.981110e-01 7.082336e-01
    outer loop
      vertex 1.759668e+06 5.410160e+06 -5.312859e+03
      vertex 1.761174e+06 5.409748e+06 -3.841093e+03
      vertex 1.761201e+06 5.411590e+06 -4.854527e+03
    endloop
  endfacet
  facet normal -5.905019e-01 3.955812e-01 7.034366e-01
    outer loop
      vertex 1.761201e+06 5.411590e+06 -4.854527e+03
      vertex 1.761174e+06 5.409748e+06 -3.841093e+03
      vertex 1.762677e+06 5.411164e+06 -3.376392e+03
    endloop
  endfacet
  facet normal -5.846817e-01 3.964437e-01 7.077993e-01
    outer loop
      vertex 1.758133e+06 5.403136e+06 -2.592926e+03
      vertex 1.759324e+06 5.402180e+06 -1.073357e+03
      vertex 1.759913e+06 5.404356e+06 -1.805823e+03
    endloop
  endfacet
  facet normal -5.892687e-01 4.031944e-01 7.001404e-01
    outer loop
      vertex 1.756804e+06 5.403844e+06 -4.118581e+03
      vertex 1.758133e+06 5.403136e+06 -2.592926e+03
      vertex 1.758377e+06 5.405002e+06 -3.461921e+03
    endloop
  endfacet
  facet normal -5.914550e-01 4.009107e-01 6.996082e-01
    outer loop
      vertex 1.757105e+06 5.405489e+06 -4.816581e+03
      vertex 1.758377e+06 5.405002e+06 -3.461921e+03
      vertex 1.758252e+06 5.406824e+06 -4.612252e+03
    endloop
  endfacet
  facet normal -5.913471e-01 3.961601e-01 7.024000e-01
    outer loop
      vertex 1.765716e+06 5.415803e+06 -3.458536e+03
      vertex 1.764183e+06 5.416225e+06 -4.987167e+03
      vertex 1.764207e+06 5.414402e+06 -3.938421e+03
    endloop
  endfacet
  facet normal -5.916033e-01 3.965935e-01 7.019396e-01
    outer loop
      vertex 1.765716e+06 5.415803e+06 -3.458536e+03
      vertex 1.764207e+06 5.414402e+06 -3.938421e+03
      vertex 1.765718e+06 5.413966e+06 -2.418629e+03
    endloop
  endfacet
  facet normal -5.882894e-01 4.004177e-01 7.025535e-01
    outer loop
      vertex 1.765632e+06 5.417620e+06 -4.564835e+03
      vertex 1.765716e+06 5.415803e+06 -3.458536e+03
      vertex 1.767178e+06 5.417217e+06 -3.039825e+03
    endloop
  endfacet
  facet normal -5.864376e-01 3.997801e-01 7.044621e-01
    outer loop
      vertex 1.767052e+06 5.419034e+06 -4.176872e+03
      vertex 1.767178e+06 5.417217e+06 -3.039825e+03
      vertex 1.768576e+06 5.418666e+06 -2.698858e+03
    endloop
  endfacet
  facet normal -5.879803e-01 4.044068e-01 7.005243e-01
    outer loop
      vertex 1.764207e+06 5.414402e+06 -3.938421e+03
      vertex 1.762727e+06 5.414828e+06 -5.427404e+03
      vertex 1.762706e+06 5.412996e+06 -4.386667e+03
    endloop
  endfacet
  facet normal -5.847685e-01 4.055285e-01 7.025614e-01
    outer loop
      vertex 1.762706e+06 5.412996e+06 -4.386667e+03
      vertex 1.762727e+06 5.414828e+06 -5.427404e+03
      vertex 1.761232e+06 5.413452e+06 -5.876613e+03
    endloop
  endfacet
  facet normal -5.896919e-01 3.973298e-01 7.031305e-01
    outer loop
      vertex 1.762706e+06 5.412996e+06 -4.386667e+03
      vertex 1.761201e+06 5.411590e+06 -4.854527e+03
      vertex 1.762677e+06 5.411164e+06 -3.376392e+03
    endloop
  endfacet
  facet normal -5.828687e-01 4.046740e-01 7.046297e-01
    outer loop
      vertex 1.759842e+06 5.406386e+06 -3.045458e+03
      vertex 1.758252e+06 5.406824e+06 -4.612252e+03
      vertex 1.758377e+06 5.405002e+06 -3.461921e+03
    endloop
  endfacet
  facet normal -5.877397e-01 3.945049e-01 7.063482e-01
    outer loop
      vertex 1.759700e+06 5.408278e+06 -4.219977e+03
      vertex 1.759842e+06 5.406386e+06 -3.045458e+03
      vertex 1.761196e+06 5.407923e+06 -2.777091e+03
    endloop
  endfacet
  facet normal -5.931028e-01 4.003115e-01 6.985555e-01
    outer loop
      vertex 1.761174e+06 5.409748e+06 -3.841093e+03
      vertex 1.761196e+06 5.407923e+06 -2.777091e+03
      vertex 1.762625e+06 5.409350e+06 -2.381728e+03
    endloop
  endfacet
  facet normal -5.932222e-01 4.000510e-01 6.986033e-01
    outer loop
      vertex 1.762677e+06 5.411164e+06 -3.376392e+03
      vertex 1.761174e+06 5.409748e+06 -3.841093e+03
      vertex 1.762625e+06 5.409350e+06 -2.381728e+03
    endloop
  endfacet
  facet normal -5.876683e-01 4.018828e-01 7.022365e-01
    outer loop
      vertex 1.762677e+06 5.411164e+06 -3.376392e+03
      vertex 1.762625e+06 5.409350e+06 -2.381728e+03
      vertex 1.764200e+06 5.410616e+06 -1.788165e+03
    endloop
  endfacet
  facet normal -5.871741e-01 4.007789e-01 7.032800e-01
    outer loop
      vertex 1.764200e+06 5.410616e+06 -1.788165e+03
      vertex 1.762625e+06 5.409350e+06 -2.381728e+03
      vertex 1.763939e+06 5.408748e+06 -9.411923e+02
    endloop
  endfacet
  facet normal -5.897909e-01 3.977113e-01 7.028317e-01
    outer loop
      vertex 1.762677e+06 5.411164e+06 -3.376392e+03
      vertex 1.764200e+06 5.410616e+06 -1.788165e+03
      vertex 1.764198e+06 5.412532e+06 -2.873497e+03
    endloop
  endfacet
  facet normal -5.949155e-01 3.963446e-01 6.992757e-01
    outer loop
      vertex 1.759913e+06 5.404356e+06 -1.805823e+03
      vertex 1.759324e+06 5.402180e+06 -1.073357e+03
      vertex 1.761245e+06 5.403170e+06 0.000000e+00
    endloop
  endfacet
  facet normal -5.950086e-01 3.970369e-01 6.988036e-01
    outer loop
      vertex 1.761245e+06 5.403170e+06 0.000000e+00
      vertex 1.759324e+06 5.402180e+06 -1.073357e+03
      vertex 1.760113e+06 5.401474e+06 0.000000e+00
    endloop
  endfacet
  facet normal -5.792772e-01 4.170191e-01 7.003806e-01
    outer loop
      vertex 1.760113e+06 5.401474e+06 0.000000e+00
      vertex 1.759324e+06 5.402180e+06 -1.073357e+03
      vertex 1.758924e+06 5.399821e+06 0.000000e+00
    endloop
  endfacet
  facet normal -5.869749e-01 4.036642e-01 7.017946e-01
    outer loop
      vertex 1.758133e+06 5.403136e+06 -2.592926e+03
      vertex 1.759913e+06 5.404356e+06 -1.805823e+03
      vertex 1.758377e+06 5.405002e+06 -3.461921e+03
    endloop
  endfacet
  facet normal -5.890598e-01 4.020489e-01 7.009745e-01
    outer loop
      vertex 1.765718e+06 5.413966e+06 -2.418629e+03
      vertex 1.764207e+06 5.414402e+06 -3.938421e+03
      vertex 1.764198e+06 5.412532e+06 -2.873497e+03
    endloop
  endfacet
  facet normal -5.869896e-01 4.027868e-01 7.022863e-01
    outer loop
      vertex 1.764198e+06 5.412532e+06 -2.873497e+03
      vertex 1.764207e+06 5.414402e+06 -3.938421e+03
      vertex 1.762706e+06 5.412996e+06 -4.386667e+03
    endloop
  endfacet
  facet normal -5.895963e-01 3.973623e-01 7.031922e-01
    outer loop
      vertex 1.764198e+06 5.412532e+06 -2.873497e+03
      vertex 1.762706e+06 5.412996e+06 -4.386667e+03
      vertex 1.762677e+06 5.411164e+06 -3.376392e+03
    endloop
  endfacet
  facet normal -5.877556e-01 3.979803e-01 7.043827e-01
    outer loop
      vertex 1.765716e+06 5.415803e+06 -3.458536e+03
      vertex 1.765718e+06 5.413966e+06 -2.418629e+03
      vertex 1.767359e+06 5.415390e+06 -1.854648e+03
    endloop
  endfacet
  facet normal -5.873306e-01 3.989400e-01 7.041944e-01
    outer loop
      vertex 1.767178e+06 5.417217e+06 -3.039825e+03
      vertex 1.765716e+06 5.415803e+06 -3.458536e+03
      vertex 1.767359e+06 5.415390e+06 -1.854648e+03
    endloop
  endfacet
  facet normal -5.867323e-01 3.992197e-01 7.045344e-01
    outer loop
      vertex 1.767178e+06 5.417217e+06 -3.039825e+03
      vertex 1.767359e+06 5.415390e+06 -1.854648e+03
      vertex 1.768812e+06 5.416831e+06 -1.460387e+03
    endloop
  endfacet
  facet normal -5.864699e-01 3.998235e-01 7.044106e-01
    outer loop
      vertex 1.768576e+06 5.418666e+06 -2.698858e+03
      vertex 1.767178e+06 5.417217e+06 -3.039825e+03
      vertex 1.768812e+06 5.416831e+06 -1.460387e+03
    endloop
  endfacet
  facet normal -5.863450e-01 3.999913e-01 7.044193e-01
    outer loop
      vertex 1.767052e+06 5.419034e+06 -4.176872e+03
      vertex 1.768576e+06 5.418666e+06 -2.698858e+03
      vertex 1.768466e+06 5.420482e+06 -3.821500e+03
    endloop
  endfacet
  facet normal -5.927867e-01 3.998471e-01 6.990895e-01
    outer loop
      vertex 1.762625e+06 5.409350e+06 -2.381728e+03
      vertex 1.761196e+06 5.407923e+06 -2.777091e+03
      vertex 1.762566e+06 5.407694e+06 -1.484880e+03
    endloop
  endfacet
  facet normal -5.865738e-01 4.018393e-01 7.031758e-01
    outer loop
      vertex 1.763939e+06 5.408748e+06 -9.411923e+02
      vertex 1.762625e+06 5.409350e+06 -2.381728e+03
      vertex 1.762566e+06 5.407694e+06 -1.484880e+03
    endloop
  endfacet
  facet normal -5.880837e-01 4.055688e-01 6.997653e-01
    outer loop
      vertex 1.763939e+06 5.408748e+06 -9.411923e+02
      vertex 1.762566e+06 5.407694e+06 -1.484880e+03
      vertex 1.763539e+06 5.406544e+06 0.000000e+00
    endloop
  endfacet
  facet normal -5.883642e-01 4.005525e-01 7.024139e-01
    outer loop
      vertex 1.764200e+06 5.410616e+06 -1.788165e+03
      vertex 1.763939e+06 5.408748e+06 -9.411923e+02
      vertex 1.765850e+06 5.409905e+06 0.000000e+00
    endloop
  endfacet
  facet normal -5.876045e-01 3.972658e-01 7.049119e-01
    outer loop
      vertex 1.765850e+06 5.409905e+06 0.000000e+00
      vertex 1.763939e+06 5.408748e+06 -9.411923e+02
      vertex 1.764708e+06 5.408215e+06 0.000000e+00
    endloop
  endfacet
  facet normal -5.812128e-01 4.065274e-01 7.049306e-01
    outer loop
      vertex 1.764708e+06 5.408215e+06 0.000000e+00
      vertex 1.763939e+06 5.408748e+06 -9.411923e+02
      vertex 1.763539e+06 5.406544e+06 0.000000e+00
    endloop
  endfacet
  facet normal -5.893676e-01 3.978638e-01 7.031004e-01
    outer loop
      vertex 1.764198e+06 5.412532e+06 -2.873497e+03
      vertex 1.764200e+06 5.410616e+06 -1.788165e+03
      vertex 1.765682e+06 5.412015e+06 -1.337108e+03
    endloop
  endfacet
  facet normal -5.883775e-01 3.991683e-01 7.031903e-01
    outer loop
      vertex 1.767359e+06 5.415390e+06 -1.854648e+03
      vertex 1.765718e+06 5.413966e+06 -2.418629e+03
      vertex 1.767219e+06 5.413573e+06 -9.394963e+02
    endloop
  endfacet
  facet normal -5.859116e-01 3.980190e-01 7.058955e-01
    outer loop
      vertex 1.768812e+06 5.416831e+06 -1.460387e+03
      vertex 1.767359e+06 5.415390e+06 -1.854648e+03
      vertex 1.769300e+06 5.414959e+06 0.000000e+00
    endloop
  endfacet
  facet normal -5.856386e-01 4.002384e-01 7.048664e-01
    outer loop
      vertex 1.768576e+06 5.418666e+06 -2.698858e+03
      vertex 1.768812e+06 5.416831e+06 -1.460387e+03
      vertex 1.770073e+06 5.418350e+06 -1.276145e+03
    endloop
  endfacet
  facet normal -5.798228e-01 4.027466e-01 7.082378e-01
    outer loop
      vertex 1.768466e+06 5.420482e+06 -3.821500e+03
      vertex 1.768576e+06 5.418666e+06 -2.698858e+03
      vertex 1.769972e+06 5.420120e+06 -2.383089e+03
    endloop
  endfacet
  facet normal -5.849022e-01 3.980127e-01 7.067357e-01
    outer loop
      vertex 1.767052e+06 5.419034e+06 -4.176872e+03
      vertex 1.768466e+06 5.420482e+06 -3.821500e+03
      vertex 1.766959e+06 5.420830e+06 -5.264396e+03
    endloop
  endfacet
  facet normal -5.736220e-01 4.235336e-01 7.011256e-01
    outer loop
      vertex 1.766959e+06 5.420830e+06 -5.264396e+03
      vertex 1.768466e+06 5.420482e+06 -3.821500e+03
      vertex 1.768392e+06 5.422273e+06 -4.964119e+03
    endloop
  endfacet
  facet normal -5.948750e-01 3.944938e-01 7.003559e-01
    outer loop
      vertex 1.762566e+06 5.407694e+06 -1.484880e+03
      vertex 1.761196e+06 5.407923e+06 -2.777091e+03
      vertex 1.761524e+06 5.406084e+06 -1.461677e+03
    endloop
  endfacet
  facet normal -5.896168e-01 3.982694e-01 7.026618e-01
    outer loop
      vertex 1.765682e+06 5.412015e+06 -1.337108e+03
      vertex 1.764200e+06 5.410616e+06 -1.788165e+03
      vertex 1.765850e+06 5.409905e+06 0.000000e+00
    endloop
  endfacet
  facet normal -5.880715e-01 4.004478e-01 7.027186e-01
    outer loop
      vertex 1.764198e+06 5.412532e+06 -2.873497e+03
      vertex 1.765682e+06 5.412015e+06 -1.337108e+03
      vertex 1.765718e+06 5.413966e+06 -2.418629e+03
    endloop
  endfacet
  facet normal -5.877524e-01 4.005558e-01 7.029240e-01
    outer loop
      vertex 1.767219e+06 5.413573e+06 -9.394963e+02
      vertex 1.765718e+06 5.413966e+06 -2.418629e+03
      vertex 1.765682e+06 5.412015e+06 -1.337108e+03
    endloop
  endfacet
  facet normal -5.850446e-01 4.000571e-01 7.054624e-01
    outer loop
      vertex 1.767359e+06 5.415390e+06 -1.854648e+03
      vertex 1.767219e+06 5.413573e+06 -9.394963e+02
      vertex 1.769300e+06 5.414959e+06 0.000000e+00
    endloop
  endfacet
  facet normal -5.833260e-01 3.979305e-01 7.080835e-01
    outer loop
      vertex 1.770073e+06 5.418350e+06 -1.276145e+03
      vertex 1.768812e+06 5.416831e+06 -1.460387e+03
      vertex 1.770455e+06 5.416640e+06 3.284450e-12
    endloop
  endfacet
  facet normal -5.825388e-01 4.001387e-01 7.074868e-01
    outer loop
      vertex 1.770455e+06 5.416640e+06 3.284450e-12
      vertex 1.768812e+06 5.416831e+06 -1.460387e+03
      vertex 1.769300e+06 5.414959e+06 0.000000e+00
    endloop
  endfacet
  facet normal -5.828940e-01 4.067405e-01 7.034180e-01
    outer loop
      vertex 1.768576e+06 5.418666e+06 -2.698858e+03
      vertex 1.770073e+06 5.418350e+06 -1.276145e+03
      vertex 1.769972e+06 5.420120e+06 -2.383089e+03
    endloop
  endfacet
  facet normal -5.604050e-01 4.449916e-01 6.985189e-01
    outer loop
      vertex 1.768466e+06 5.420482e+06 -3.821500e+03
      vertex 1.769972e+06 5.420120e+06 -2.383089e+03
      vertex 1.769997e+06 5.421899e+06 -3.495764e+03
    endloop
  endfacet
  facet normal -5.900782e-01 3.971680e-01 7.028978e-01
    outer loop
      vertex 1.761524e+06 5.406084e+06 -1.461677e+03
      vertex 1.761196e+06 5.407923e+06 -2.777091e+03
      vertex 1.759842e+06 5.406386e+06 -3.045458e+03
    endloop
  endfacet
  facet normal -5.968844e-01 3.957574e-01 6.979291e-01
    outer loop
      vertex 1.762566e+06 5.407694e+06 -1.484880e+03
      vertex 1.761524e+06 5.406084e+06 -1.461677e+03
      vertex 1.763539e+06 5.406544e+06 0.000000e+00
    endloop
  endfacet
  facet normal -5.698877e-01 4.121535e-01 7.108850e-01
    outer loop
      vertex 1.769972e+06 5.420120e+06 -2.383089e+03
      vertex 1.770073e+06 5.418350e+06 -1.276145e+03
      vertex 1.771255e+06 5.419674e+06 -1.095534e+03
    endloop
  endfacet
  facet normal -5.439220e-01 4.506119e-01 7.078826e-01
    outer loop
      vertex 1.769997e+06 5.421899e+06 -3.495764e+03
      vertex 1.769972e+06 5.420120e+06 -2.383089e+03
      vertex 1.771716e+06 5.421400e+06 -1.857053e+03
    endloop
  endfacet
  facet normal -5.517190e-01 4.322091e-01 7.133032e-01
    outer loop
      vertex 1.768466e+06 5.420482e+06 -3.821500e+03
      vertex 1.769997e+06 5.421899e+06 -3.495764e+03
      vertex 1.768392e+06 5.422273e+06 -4.964119e+03
    endloop
  endfacet
  facet normal -5.783013e-01 4.213466e-01 6.985949e-01
    outer loop
      vertex 1.771255e+06 5.419674e+06 -1.095534e+03
      vertex 1.770073e+06 5.418350e+06 -1.276145e+03
      vertex 1.771598e+06 5.418329e+06 0.000000e+00
    endloop
  endfacet
  facet normal -5.856373e-01 3.965627e-01 7.069420e-01
    outer loop
      vertex 1.771598e+06 5.418329e+06 0.000000e+00
      vertex 1.770073e+06 5.418350e+06 -1.276145e+03
      vertex 1.770455e+06 5.416640e+06 3.284450e-12
    endloop
  endfacet
  facet normal -5.489160e-01 4.391258e-01 7.112382e-01
    outer loop
      vertex 1.771255e+06 5.419674e+06 -1.095534e+03
      vertex 1.771598e+06 5.418329e+06 0.000000e+00
      vertex 1.772872e+06 5.419921e+06 0.000000e+00
    endloop
  endfacet
  facet normal -5.462982e-01 4.560415e-01 7.025557e-01
    outer loop
      vertex 1.769972e+06 5.420120e+06 -2.383089e+03
      vertex 1.771255e+06 5.419674e+06 -1.095534e+03
      vertex 1.771716e+06 5.421400e+06 -1.857053e+03
    endloop
  endfacet
  facet normal -5.386999e-01 4.605967e-01 7.054453e-01
    outer loop
      vertex 1.769997e+06 5.421899e+06 -3.495764e+03
      vertex 1.771716e+06 5.421400e+06 -1.857053e+03
      vertex 1.771515e+06 5.423314e+06 -3.260359e+03
    endloop
  endfacet
  facet normal -5.458426e-01 4.560683e-01 7.028922e-01
    outer loop
      vertex 1.771716e+06 5.421400e+06 -1.857053e+03
      vertex 1.771255e+06 5.419674e+06 -1.095534e+03
      vertex 1.772872e+06 5.419921e+06 0.000000e+00
    endloop
  endfacet
  facet normal -5.396568e-01 4.601659e-01 7.049949e-01
    outer loop
      vertex 1.771515e+06 5.423314e+06 -3.260359e+03
      vertex 1.771716e+06 5.421400e+06 -1.857053e+03
      vertex 1.773461e+06 5.423108e+06 -1.636204e+03
    endloop
  endfacet
  facet normal -5.366137e-01 4.577916e-01 7.088530e-01
    outer loop
      vertex 1.769997e+06 5.421899e+06 -3.495764e+03
      vertex 1.771515e+06 5.423314e+06 -3.260359e+03
      vertex 1.769863e+06 5.423736e+06 -4.783528e+03
    endloop
  endfacet
  facet normal -5.403741e-01 4.562211e-01 7.070065e-01
    outer loop
      vertex 1.769997e+06 5.421899e+06 -3.495764e+03
      vertex 1.769863e+06 5.423736e+06 -4.783528e+03
      vertex 1.768392e+06 5.422273e+06 -4.964119e+03
    endloop
  endfacet
  facet normal -5.951906e-01 4.035462e-01 6.949090e-01
    outer loop
      vertex 1.761245e+06 5.403170e+06 0.000000e+00
      vertex 1.762390e+06 5.404858e+06 0.000000e+00
      vertex 1.761237e+06 5.404600e+06 -8.374742e+02
    endloop
  endfacet
  facet normal -5.947767e-01 4.069070e-01 6.933017e-01
    outer loop
      vertex 1.761237e+06 5.404600e+06 -8.374742e+02
      vertex 1.762390e+06 5.404858e+06 0.000000e+00
      vertex 1.761524e+06 5.406084e+06 -1.461677e+03
    endloop
  endfacet
  facet normal -5.956891e-01 4.059777e-01 6.930632e-01
    outer loop
      vertex 1.761524e+06 5.406084e+06 -1.461677e+03
      vertex 1.762390e+06 5.404858e+06 0.000000e+00
      vertex 1.763539e+06 5.406544e+06 0.000000e+00
    endloop
  endfacet
  facet normal -5.868989e-01 4.066536e-01 7.001303e-01
    outer loop
      vertex 1.761245e+06 5.403170e+06 0.000000e+00
      vertex 1.761237e+06 5.404600e+06 -8.374742e+02
      vertex 1.759913e+06 5.404356e+06 -1.805823e+03
    endloop
  endfacet
  facet normal -5.894259e-01 3.983553e-01 7.027733e-01
    outer loop
      vertex 1.765850e+06 5.409905e+06 0.000000e+00
      vertex 1.766992e+06 5.411595e+06 0.000000e+00
      vertex 1.765682e+06 5.412015e+06 -1.337108e+03
    endloop
  endfacet
  facet normal -5.869415e-01 4.013206e-01 7.031654e-01
    outer loop
      vertex 1.766992e+06 5.411595e+06 0.000000e+00
      vertex 1.768144e+06 5.413278e+06 0.000000e+00
      vertex 1.767219e+06 5.413573e+06 -9.394963e+02
    endloop
  endfacet
  facet normal -5.859961e-01 4.032611e-01 7.028436e-01
    outer loop
      vertex 1.767219e+06 5.413573e+06 -9.394963e+02
      vertex 1.768144e+06 5.413278e+06 0.000000e+00
      vertex 1.769300e+06 5.414959e+06 0.000000e+00
    endloop
  endfacet
  facet normal -5.881118e-01 4.010607e-01 7.023352e-01
    outer loop
      vertex 1.766992e+06 5.411595e+06 0.000000e+00
      vertex 1.767219e+06 5.413573e+06 -9.394963e+02
      vertex 1.765682e+06 5.412015e+06 -1.337108e+03
    endloop
  endfacet
  facet normal -5.365285e-01 4.624623e-01 7.058794e-01
    outer loop
      vertex 1.772872e+06 5.419921e+06 0.000000e+00
      vertex 1.774204e+06 5.421466e+06 0.000000e+00
      vertex 1.773044e+06 5.421482e+06 -8.916588e+02
    endloop
  endfacet
  facet normal -5.369576e-01 4.611447e-01 7.064149e-01
    outer loop
      vertex 1.773044e+06 5.421482e+06 -8.916588e+02
      vertex 1.774204e+06 5.421466e+06 0.000000e+00
      vertex 1.773461e+06 5.423108e+06 -1.636204e+03
    endloop
  endfacet
  facet normal -5.371618e-01 4.609951e-01 7.063574e-01
    outer loop
      vertex 1.773461e+06 5.423108e+06 -1.636204e+03
      vertex 1.774204e+06 5.421466e+06 0.000000e+00
      vertex 1.775532e+06 5.423014e+06 0.000000e+00
    endloop
  endfacet
  facet normal -5.402632e-01 4.609084e-01 7.040448e-01
    outer loop
      vertex 1.773044e+06 5.421482e+06 -8.916588e+02
      vertex 1.773461e+06 5.423108e+06 -1.636204e+03
      vertex 1.771716e+06 5.421400e+06 -1.857053e+03
    endloop
  endfacet
  facet normal -5.400734e-01 4.616207e-01 7.037237e-01
    outer loop
      vertex 1.773044e+06 5.421482e+06 -8.916588e+02
      vertex 1.771716e+06 5.421400e+06 -1.857053e+03
      vertex 1.772872e+06 5.419921e+06 0.000000e+00
    endloop
  endfacet
  facet normal -5.349277e-01 4.611468e-01 7.079520e-01
    outer loop
      vertex 1.771349e+06 5.425346e+06 -4.709084e+03
      vertex 1.769863e+06 5.423736e+06 -4.783528e+03
      vertex 1.771515e+06 5.423314e+06 -3.260359e+03
    endloop
  endfacet
  facet normal -5.377861e-01 4.599316e-01 7.065756e-01
    outer loop
      vertex 1.771349e+06 5.425346e+06 -4.709084e+03
      vertex 1.771515e+06 5.423314e+06 -3.260359e+03
      vertex 1.772646e+06 5.424530e+06 -3.191308e+03
    endloop
  endfacet
  facet normal -5.391871e-01 4.613476e-01 7.045819e-01
    outer loop
      vertex 1.772646e+06 5.424530e+06 -3.191308e+03
      vertex 1.771515e+06 5.423314e+06 -3.260359e+03
      vertex 1.773461e+06 5.423108e+06 -1.636204e+03
    endloop
  endfacet
  facet normal -5.847678e-01 4.076802e-01 7.013155e-01
    outer loop
      vertex 1.759842e+06 5.406386e+06 -3.045458e+03
      vertex 1.758377e+06 5.405002e+06 -3.461921e+03
      vertex 1.759913e+06 5.404356e+06 -1.805823e+03
    endloop
  endfacet
  facet normal -5.860577e-01 4.071616e-01 7.005397e-01
    outer loop
      vertex 1.759842e+06 5.406386e+06 -3.045458e+03
      vertex 1.759913e+06 5.404356e+06 -1.805823e+03
      vertex 1.761524e+06 5.406084e+06 -1.461677e+03
    endloop
  endfacet
  facet normal -5.867027e-01 4.079641e-01 6.995322e-01
    outer loop
      vertex 1.761524e+06 5.406084e+06 -1.461677e+03
      vertex 1.759913e+06 5.404356e+06 -1.805823e+03
      vertex 1.761237e+06 5.404600e+06 -8.374742e+02
    endloop
  endfacet
endsolid Surface 1
