solid Surface 1
  facet normal -7.899575e-01 3.590378e-01 4.970504e-01
    outer loop
      vertex 1.746054e+06 5.425442e+06 -2.452895e+04
      vertex 1.745784e+06 5.424782e+06 -2.448068e+04
      vertex 1.746218e+06 5.425029e+06 -2.396968e+04
    endloop
  endfacet
  facet normal -7.904731e-01 3.536172e-01 5.001072e-01
    outer loop
      vertex 1.746218e+06 5.425029e+06 -2.396968e+04
      vertex 1.745784e+06 5.424782e+06 -2.448068e+04
      vertex 1.746692e+06 5.424292e+06 -2.269832e+04
    endloop
  endfacet
  facet normal -7.882732e-01 3.612033e-01 4.981542e-01
    outer loop
      vertex 1.746054e+06 5.425442e+06 -2.452895e+04
      vertex 1.746218e+06 5.425029e+06 -2.396968e+04
      vertex 1.747267e+06 5.426096e+06 -2.308347e+04
    endloop
  endfacet
  facet normal -7.590334e-01 4.129418e-01 5.033362e-01
    outer loop
      vertex 1.770755e+06 5.442408e+06 0.000000e+00
      vertex 1.770087e+06 5.442769e+06 -1.303938e+03
      vertex 1.769814e+06 5.440680e+06 0.000000e+00
    endloop
  endfacet
  facet normal -7.622229e-01 4.129629e-01 4.984756e-01
    outer loop
      vertex 1.770087e+06 5.442769e+06 -1.303938e+03
      vertex 1.769425e+06 5.443126e+06 -2.612141e+03
      vertex 1.769124e+06 5.441615e+06 -1.820537e+03
    endloop
  endfacet
  facet normal -7.600973e-01 4.138509e-01 5.009786e-01
    outer loop
      vertex 1.769124e+06 5.441615e+06 -1.820537e+03
      vertex 1.769425e+06 5.443126e+06 -2.612141e+03
      vertex 1.768168e+06 5.441818e+06 -3.438292e+03
    endloop
  endfacet
  facet normal -7.616323e-01 4.115414e-01 5.005497e-01
    outer loop
      vertex 1.770087e+06 5.442769e+06 -1.303938e+03
      vertex 1.769124e+06 5.441615e+06 -1.820537e+03
      vertex 1.769814e+06 5.440680e+06 0.000000e+00
    endloop
  endfacet
  facet normal -7.876812e-01 3.578360e-01 5.015095e-01
    outer loop
      vertex 1.746218e+06 5.425029e+06 -2.396968e+04
      vertex 1.746692e+06 5.424292e+06 -2.269832e+04
      vertex 1.747267e+06 5.426096e+06 -2.308347e+04
    endloop
  endfacet
  facet normal -7.392000e-01 4.722520e-01 4.801681e-01
    outer loop
      vertex 1.754114e+06 5.427026e+06 -1.257593e+04
      vertex 1.755077e+06 5.428465e+06 -1.250738e+04
      vertex 1.754258e+06 5.428371e+06 -1.367615e+04
    endloop
  endfacet
  facet normal -7.648944e-01 4.012958e-01 5.038832e-01
    outer loop
      vertex 1.754258e+06 5.428371e+06 -1.367615e+04
      vertex 1.755077e+06 5.428465e+06 -1.250738e+04
      vertex 1.755542e+06 5.429422e+06 -1.256493e+04
    endloop
  endfacet
  facet normal -7.658575e-01 4.016576e-01 5.021290e-01
    outer loop
      vertex 1.755542e+06 5.429422e+06 -1.256493e+04
      vertex 1.755077e+06 5.428465e+06 -1.250738e+04
      vertex 1.756098e+06 5.428419e+06 -1.091445e+04
    endloop
  endfacet
  facet normal -7.841489e-01 3.564977e-01 5.079566e-01
    outer loop
      vertex 1.769124e+06 5.441615e+06 -1.820537e+03
      vertex 1.768168e+06 5.441818e+06 -3.438292e+03
      vertex 1.768249e+06 5.440020e+06 -2.050674e+03
    endloop
  endfacet
  facet normal -7.191378e-01 4.846518e-01 4.979492e-01
    outer loop
      vertex 1.754114e+06 5.427026e+06 -1.257593e+04
      vertex 1.754258e+06 5.428371e+06 -1.367615e+04
      vertex 1.752926e+06 5.427804e+06 -1.504775e+04
    endloop
  endfacet
  facet normal -7.413769e-01 4.605250e-01 4.881364e-01
    outer loop
      vertex 1.756098e+06 5.428419e+06 -1.091445e+04
      vertex 1.755077e+06 5.428465e+06 -1.250738e+04
      vertex 1.754556e+06 5.426792e+06 -1.172067e+04
    endloop
  endfacet
  facet normal -7.675226e-01 3.994495e-01 5.013474e-01
    outer loop
      vertex 1.755542e+06 5.429422e+06 -1.256493e+04
      vertex 1.756098e+06 5.428419e+06 -1.091445e+04
      vertex 1.756816e+06 5.430546e+06 -1.150934e+04
    endloop
  endfacet
  facet normal -7.999815e-01 3.434723e-01 4.919924e-01
    outer loop
      vertex 1.768249e+06 5.440020e+06 -2.050674e+03
      vertex 1.768168e+06 5.441818e+06 -3.438292e+03
      vertex 1.767014e+06 5.440508e+06 -4.400168e+03
    endloop
  endfacet
  facet normal -7.930925e-01 3.642517e-01 4.881855e-01
    outer loop
      vertex 1.769124e+06 5.441615e+06 -1.820537e+03
      vertex 1.768249e+06 5.440020e+06 -2.050674e+03
      vertex 1.769814e+06 5.440680e+06 0.000000e+00
    endloop
  endfacet
  facet normal -7.957341e-01 3.439999e-01 4.984690e-01
    outer loop
      vertex 1.746692e+06 5.424292e+06 -2.269832e+04
      vertex 1.747599e+06 5.423804e+06 -2.091447e+04
      vertex 1.748426e+06 5.426639e+06 -2.155166e+04
    endloop
  endfacet
  facet normal -8.014460e-01 3.575095e-01 4.794489e-01
    outer loop
      vertex 1.746692e+06 5.424292e+06 -2.269832e+04
      vertex 1.748426e+06 5.426639e+06 -2.155166e+04
      vertex 1.747267e+06 5.426096e+06 -2.308347e+04
    endloop
  endfacet
  facet normal -7.895510e-01 3.575042e-01 4.987985e-01
    outer loop
      vertex 1.747599e+06 5.423804e+06 -2.091447e+04
      vertex 1.748505e+06 5.423315e+06 -1.913041e+04
      vertex 1.748787e+06 5.425157e+06 -2.000365e+04
    endloop
  endfacet
  facet normal -7.902769e-01 3.563166e-01 4.984987e-01
    outer loop
      vertex 1.748505e+06 5.423315e+06 -1.913041e+04
      vertex 1.749410e+06 5.422827e+06 -1.734604e+04
      vertex 1.749820e+06 5.425068e+06 -1.829929e+04
    endloop
  endfacet
  facet normal -7.891501e-01 3.580541e-01 4.990385e-01
    outer loop
      vertex 1.749410e+06 5.422827e+06 -1.734604e+04
      vertex 1.750316e+06 5.422338e+06 -1.556224e+04
      vertex 1.750723e+06 5.424253e+06 -1.629288e+04
    endloop
  endfacet
  facet normal -7.896565e-01 3.571925e-01 4.988548e-01
    outer loop
      vertex 1.750316e+06 5.422338e+06 -1.556224e+04
      vertex 1.751222e+06 5.421850e+06 -1.377826e+04
      vertex 1.751749e+06 5.423798e+06 -1.434052e+04
    endloop
  endfacet
  facet normal -7.891650e-01 3.576956e-01 4.992719e-01
    outer loop
      vertex 1.751222e+06 5.421850e+06 -1.377826e+04
      vertex 1.752129e+06 5.421360e+06 -1.199475e+04
      vertex 1.752665e+06 5.423269e+06 -1.251501e+04
    endloop
  endfacet
  facet normal -8.231933e-01 2.794674e-01 4.942175e-01
    outer loop
      vertex 1.752665e+06 5.423269e+06 -1.251501e+04
      vertex 1.753230e+06 5.425210e+06 -1.267113e+04
      vertex 1.751749e+06 5.423798e+06 -1.434052e+04
    endloop
  endfacet
  facet normal -7.891025e-01 3.572780e-01 4.996696e-01
    outer loop
      vertex 1.752665e+06 5.423269e+06 -1.251501e+04
      vertex 1.751749e+06 5.423798e+06 -1.434052e+04
      vertex 1.751222e+06 5.421850e+06 -1.377826e+04
    endloop
  endfacet
  facet normal -7.919408e-01 3.594679e-01 4.935712e-01
    outer loop
      vertex 1.753230e+06 5.425210e+06 -1.267113e+04
      vertex 1.754114e+06 5.427026e+06 -1.257593e+04
      vertex 1.752926e+06 5.427804e+06 -1.504775e+04
    endloop
  endfacet
  facet normal -8.180828e-01 3.758635e-01 4.352782e-01
    outer loop
      vertex 1.754556e+06 5.426792e+06 -1.172067e+04
      vertex 1.753666e+06 5.424978e+06 -1.182615e+04
      vertex 1.754565e+06 5.425352e+06 -1.045971e+04
    endloop
  endfacet
  facet normal -8.067012e-01 2.809023e-01 5.199299e-01
    outer loop
      vertex 1.753666e+06 5.424978e+06 -1.182615e+04
      vertex 1.753116e+06 5.423032e+06 -1.162938e+04
      vertex 1.754225e+06 5.423682e+06 -1.025964e+04
    endloop
  endfacet
  facet normal -7.890929e-01 3.568541e-01 4.999876e-01
    outer loop
      vertex 1.753116e+06 5.423032e+06 -1.162938e+04
      vertex 1.752570e+06 5.421123e+06 -1.112835e+04
      vertex 1.753653e+06 5.422136e+06 -1.014205e+04
    endloop
  endfacet
  facet normal -7.891692e-01 3.575083e-01 4.993994e-01
    outer loop
      vertex 1.752570e+06 5.421123e+06 -1.112835e+04
      vertex 1.753513e+06 5.420614e+06 -9.273851e+03
      vertex 1.753653e+06 5.422136e+06 -1.014205e+04
    endloop
  endfacet
  facet normal -7.904875e-01 3.567485e-01 4.978554e-01
    outer loop
      vertex 1.753653e+06 5.422136e+06 -1.014205e+04
      vertex 1.753513e+06 5.420614e+06 -9.273851e+03
      vertex 1.754756e+06 5.422298e+06 -8.506515e+03
    endloop
  endfacet
  facet normal -7.901044e-01 3.559183e-01 4.990562e-01
    outer loop
      vertex 1.753513e+06 5.420614e+06 -9.273851e+03
      vertex 1.754456e+06 5.420106e+06 -7.419001e+03
      vertex 1.754756e+06 5.422298e+06 -8.506515e+03
    endloop
  endfacet
  facet normal -7.888018e-01 3.565406e-01 5.006701e-01
    outer loop
      vertex 1.754756e+06 5.422298e+06 -8.506515e+03
      vertex 1.754456e+06 5.420106e+06 -7.419001e+03
      vertex 1.755736e+06 5.421596e+06 -6.461981e+03
    endloop
  endfacet
  facet normal -7.891815e-01 3.578553e-01 4.991314e-01
    outer loop
      vertex 1.754456e+06 5.420106e+06 -7.419001e+03
      vertex 1.755398e+06 5.419598e+06 -5.564165e+03
      vertex 1.755736e+06 5.421596e+06 -6.461981e+03
    endloop
  endfacet
  facet normal -7.891474e-01 3.576726e-01 4.993163e-01
    outer loop
      vertex 1.755398e+06 5.419598e+06 -5.564165e+03
      vertex 1.756341e+06 5.419090e+06 -3.709561e+03
      vertex 1.756730e+06 5.421016e+06 -4.474709e+03
    endloop
  endfacet
  facet normal -7.894256e-01 3.579820e-01 4.986544e-01
    outer loop
      vertex 1.756341e+06 5.419090e+06 -3.709561e+03
      vertex 1.757283e+06 5.418582e+06 -1.854133e+03
      vertex 1.757731e+06 5.420391e+06 -2.443676e+03
    endloop
  endfacet
  facet normal -7.893390e-01 3.567560e-01 4.996689e-01
    outer loop
      vertex 1.757283e+06 5.418582e+06 -1.854133e+03
      vertex 1.758227e+06 5.418072e+06 0.000000e+00
      vertex 1.759037e+06 5.419866e+06 0.000000e+00
    endloop
  endfacet
  facet normal -8.312343e-01 2.857449e-01 4.768640e-01
    outer loop
      vertex 1.759037e+06 5.419866e+06 0.000000e+00
      vertex 1.759676e+06 5.421722e+06 0.000000e+00
      vertex 1.758742e+06 5.421476e+06 -1.479491e+03
    endloop
  endfacet
  facet normal -7.646759e-01 3.354435e-01 5.502259e-01
    outer loop
      vertex 1.759676e+06 5.421722e+06 0.000000e+00
      vertex 1.760457e+06 5.423504e+06 0.000000e+00
      vertex 1.759210e+06 5.423153e+06 -1.518731e+03
    endloop
  endfacet
  facet normal -7.409690e-01 4.660847e-01 4.834563e-01
    outer loop
      vertex 1.760457e+06 5.423504e+06 0.000000e+00
      vertex 1.761503e+06 5.425166e+06 0.000000e+00
      vertex 1.760257e+06 5.424810e+06 -1.565293e+03
    endloop
  endfacet
  facet normal -7.686356e-01 3.988695e-01 5.001023e-01
    outer loop
      vertex 1.761503e+06 5.425166e+06 0.000000e+00
      vertex 1.762409e+06 5.426914e+06 0.000000e+00
      vertex 1.761211e+06 5.426526e+06 -1.531862e+03
    endloop
  endfacet
  facet normal -7.421802e-01 4.304728e-01 5.136748e-01
    outer loop
      vertex 1.762409e+06 5.426914e+06 0.000000e+00
      vertex 1.763396e+06 5.428615e+06 0.000000e+00
      vertex 1.762138e+06 5.428279e+06 -1.536999e+03
    endloop
  endfacet
  facet normal -7.117876e-01 4.963841e-01 4.969521e-01
    outer loop
      vertex 1.763396e+06 5.428615e+06 0.000000e+00
      vertex 1.764522e+06 5.430230e+06 0.000000e+00
      vertex 1.763195e+06 5.429954e+06 -1.624821e+03
    endloop
  endfacet
  facet normal -7.563875e-01 4.355283e-01 4.880502e-01
    outer loop
      vertex 1.764522e+06 5.430230e+06 0.000000e+00
      vertex 1.765503e+06 5.431934e+06 0.000000e+00
      vertex 1.764252e+06 5.431620e+06 -1.660283e+03
    endloop
  endfacet
  facet normal -7.707225e-01 3.955078e-01 4.995602e-01
    outer loop
      vertex 1.765503e+06 5.431934e+06 0.000000e+00
      vertex 1.766402e+06 5.433684e+06 0.000000e+00
      vertex 1.765203e+06 5.433336e+06 -1.573916e+03
    endloop
  endfacet
  facet normal -7.621694e-01 4.026899e-01 5.068913e-01
    outer loop
      vertex 1.766402e+06 5.433684e+06 0.000000e+00
      vertex 1.767321e+06 5.435424e+06 0.000000e+00
      vertex 1.766141e+06 5.435086e+06 -1.504576e+03
    endloop
  endfacet
  facet normal -7.015649e-01 5.018436e-01 5.059246e-01
    outer loop
      vertex 1.767321e+06 5.435424e+06 0.000000e+00
      vertex 1.768465e+06 5.437024e+06 0.000000e+00
      vertex 1.767148e+06 5.436784e+06 -1.589094e+03
    endloop
  endfacet
  facet normal -8.362581e-01 3.203435e-01 4.450310e-01
    outer loop
      vertex 1.768465e+06 5.437024e+06 0.000000e+00
      vertex 1.769160e+06 5.438838e+06 0.000000e+00
      vertex 1.768111e+06 5.438202e+06 -1.513041e+03
    endloop
  endfacet
  facet normal -8.038726e-01 2.857475e-01 5.216676e-01
    outer loop
      vertex 1.769160e+06 5.438838e+06 0.000000e+00
      vertex 1.769814e+06 5.440680e+06 0.000000e+00
      vertex 1.768249e+06 5.440020e+06 -2.050674e+03
    endloop
  endfacet
  facet normal -8.495471e-01 2.378633e-01 4.708404e-01
    outer loop
      vertex 1.767014e+06 5.440508e+06 -4.400168e+03
      vertex 1.765994e+06 5.439310e+06 -5.634706e+03
      vertex 1.766978e+06 5.438376e+06 -3.386969e+03
    endloop
  endfacet
  facet normal -7.268791e-01 4.691592e-01 5.015340e-01
    outer loop
      vertex 1.765994e+06 5.439310e+06 -5.634706e+03
      vertex 1.764650e+06 5.438058e+06 -6.411759e+03
      vertex 1.765468e+06 5.437480e+06 -4.685129e+03
    endloop
  endfacet
  facet normal -7.356291e-01 4.566624e-01 5.003092e-01
    outer loop
      vertex 1.764650e+06 5.438058e+06 -6.411759e+03
      vertex 1.763331e+06 5.436753e+06 -7.159383e+03
      vertex 1.764150e+06 5.436310e+06 -5.551969e+03
    endloop
  endfacet
  facet normal -7.702528e-01 3.953323e-01 5.004228e-01
    outer loop
      vertex 1.763331e+06 5.436753e+06 -7.159383e+03
      vertex 1.762081e+06 5.435508e+06 -8.100687e+03
      vertex 1.762962e+06 5.434912e+06 -6.273586e+03
    endloop
  endfacet
  facet normal -7.707183e-01 3.936948e-01 5.009968e-01
    outer loop
      vertex 1.762081e+06 5.435508e+06 -8.100687e+03
      vertex 1.760836e+06 5.434242e+06 -9.020201e+03
      vertex 1.761746e+06 5.433648e+06 -7.153740e+03
    endloop
  endfacet
  facet normal -7.490352e-01 4.382211e-01 4.968989e-01
    outer loop
      vertex 1.760836e+06 5.434242e+06 -9.020201e+03
      vertex 1.759540e+06 5.432954e+06 -9.838558e+03
      vertex 1.760407e+06 5.432326e+06 -7.977558e+03
    endloop
  endfacet
  facet normal -7.108064e-01 4.964982e-01 4.982407e-01
    outer loop
      vertex 1.759540e+06 5.432954e+06 -9.838558e+03
      vertex 1.758159e+06 5.431692e+06 -1.055078e+04
      vertex 1.758992e+06 5.431018e+06 -8.692146e+03
    endloop
  endfacet
  facet normal -7.396826e-01 4.437767e-01 5.058972e-01
    outer loop
      vertex 1.758159e+06 5.431692e+06 -1.055078e+04
      vertex 1.756816e+06 5.430546e+06 -1.150934e+04
      vertex 1.757562e+06 5.429728e+06 -9.701764e+03
    endloop
  endfacet
  facet normal -7.577885e-01 3.354180e-01 5.596886e-01
    outer loop
      vertex 1.752926e+06 5.427804e+06 -1.504775e+04
      vertex 1.751667e+06 5.427518e+06 -1.658135e+04
      vertex 1.751935e+06 5.425758e+06 -1.516357e+04
    endloop
  endfacet
  facet normal -8.177340e-01 2.634764e-01 5.117531e-01
    outer loop
      vertex 1.751667e+06 5.427518e+06 -1.658135e+04
      vertex 1.750557e+06 5.427274e+06 -1.822934e+04
      vertex 1.750949e+06 5.425950e+06 -1.692225e+04
    endloop
  endfacet
  facet normal -8.369739e-01 2.647262e-01 4.789517e-01
    outer loop
      vertex 1.750557e+06 5.427274e+06 -1.822934e+04
      vertex 1.749508e+06 5.426997e+06 -1.991007e+04
      vertex 1.749820e+06 5.425068e+06 -1.829929e+04
    endloop
  endfacet
  facet normal -8.253641e-01 2.989239e-01 4.789767e-01
    outer loop
      vertex 1.749508e+06 5.426997e+06 -1.991007e+04
      vertex 1.748426e+06 5.426639e+06 -2.155166e+04
      vertex 1.748787e+06 5.425157e+06 -2.000365e+04
    endloop
  endfacet
  facet normal -7.859507e-01 3.445064e-01 5.134168e-01
    outer loop
      vertex 1.748787e+06 5.425157e+06 -2.000365e+04
      vertex 1.748426e+06 5.426639e+06 -2.155166e+04
      vertex 1.747599e+06 5.423804e+06 -2.091447e+04
    endloop
  endfacet
  facet normal -8.112332e-01 2.919841e-01 5.066024e-01
    outer loop
      vertex 1.749508e+06 5.426997e+06 -1.991007e+04
      vertex 1.748787e+06 5.425157e+06 -2.000365e+04
      vertex 1.749820e+06 5.425068e+06 -1.829929e+04
    endloop
  endfacet
  facet normal -7.905942e-01 3.570382e-01 4.974782e-01
    outer loop
      vertex 1.749820e+06 5.425068e+06 -1.829929e+04
      vertex 1.748787e+06 5.425157e+06 -2.000365e+04
      vertex 1.748505e+06 5.423315e+06 -1.913041e+04
    endloop
  endfacet
  facet normal -7.368836e-01 4.467425e-01 5.073694e-01
    outer loop
      vertex 1.756098e+06 5.428419e+06 -1.091445e+04
      vertex 1.754556e+06 5.426792e+06 -1.172067e+04
      vertex 1.755676e+06 5.426480e+06 -9.818720e+03
    endloop
  endfacet
  facet normal -7.697025e-01 3.992851e-01 4.981260e-01
    outer loop
      vertex 1.756816e+06 5.430546e+06 -1.150934e+04
      vertex 1.756098e+06 5.428419e+06 -1.091445e+04
      vertex 1.757562e+06 5.429728e+06 -9.701764e+03
    endloop
  endfacet
  facet normal -8.355739e-01 2.470636e-01 4.906892e-01
    outer loop
      vertex 1.768249e+06 5.440020e+06 -2.050674e+03
      vertex 1.767014e+06 5.440508e+06 -4.400168e+03
      vertex 1.766978e+06 5.438376e+06 -3.386969e+03
    endloop
  endfacet
  facet normal -7.888761e-01 3.568427e-01 5.003377e-01
    outer loop
      vertex 1.749820e+06 5.425068e+06 -1.829929e+04
      vertex 1.749410e+06 5.422827e+06 -1.734604e+04
      vertex 1.750723e+06 5.424253e+06 -1.629288e+04
    endloop
  endfacet
  facet normal -7.897727e-01 3.578627e-01 4.981901e-01
    outer loop
      vertex 1.750723e+06 5.424253e+06 -1.629288e+04
      vertex 1.750316e+06 5.422338e+06 -1.556224e+04
      vertex 1.751749e+06 5.423798e+06 -1.434052e+04
    endloop
  endfacet
  facet normal -8.237211e-01 2.844084e-01 4.905053e-01
    outer loop
      vertex 1.751749e+06 5.423798e+06 -1.434052e+04
      vertex 1.753230e+06 5.425210e+06 -1.267113e+04
      vertex 1.751935e+06 5.425758e+06 -1.516357e+04
    endloop
  endfacet
  facet normal -7.944610e-01 3.570584e-01 4.912647e-01
    outer loop
      vertex 1.751935e+06 5.425758e+06 -1.516357e+04
      vertex 1.753230e+06 5.425210e+06 -1.267113e+04
      vertex 1.752926e+06 5.427804e+06 -1.504775e+04
    endloop
  endfacet
  facet normal -8.407555e-01 2.301341e-01 4.900700e-01
    outer loop
      vertex 1.754565e+06 5.425352e+06 -1.045971e+04
      vertex 1.753666e+06 5.424978e+06 -1.182615e+04
      vertex 1.754225e+06 5.423682e+06 -1.025964e+04
    endloop
  endfacet
  facet normal -8.433287e-01 2.301270e-01 4.856318e-01
    outer loop
      vertex 1.754565e+06 5.425352e+06 -1.045971e+04
      vertex 1.754225e+06 5.423682e+06 -1.025964e+04
      vertex 1.755216e+06 5.424530e+06 -8.939938e+03
    endloop
  endfacet
  facet normal -7.401724e-01 4.402636e-01 5.082448e-01
    outer loop
      vertex 1.754556e+06 5.426792e+06 -1.172067e+04
      vertex 1.754565e+06 5.425352e+06 -1.045971e+04
      vertex 1.755676e+06 5.426480e+06 -9.818720e+03
    endloop
  endfacet
  facet normal -7.328125e-01 4.157367e-01 5.386546e-01
    outer loop
      vertex 1.755676e+06 5.426480e+06 -9.818720e+03
      vertex 1.754565e+06 5.425352e+06 -1.045971e+04
      vertex 1.755216e+06 5.424530e+06 -8.939938e+03
    endloop
  endfacet
  facet normal -8.036808e-01 3.347850e-01 4.919514e-01
    outer loop
      vertex 1.754225e+06 5.423682e+06 -1.025964e+04
      vertex 1.753116e+06 5.423032e+06 -1.162938e+04
      vertex 1.753653e+06 5.422136e+06 -1.014205e+04
    endloop
  endfacet
  facet normal -7.966530e-01 3.331281e-01 5.043508e-01
    outer loop
      vertex 1.754225e+06 5.423682e+06 -1.025964e+04
      vertex 1.753653e+06 5.422136e+06 -1.014205e+04
      vertex 1.754756e+06 5.422298e+06 -8.506515e+03
    endloop
  endfacet
  facet normal -8.246943e-01 2.797651e-01 4.915392e-01
    outer loop
      vertex 1.754756e+06 5.422298e+06 -8.506515e+03
      vertex 1.755736e+06 5.421596e+06 -6.461981e+03
      vertex 1.756001e+06 5.423683e+06 -7.206707e+03
    endloop
  endfacet
  facet normal -7.891852e-01 3.578538e-01 4.991266e-01
    outer loop
      vertex 1.755736e+06 5.421596e+06 -6.461981e+03
      vertex 1.755398e+06 5.419598e+06 -5.564165e+03
      vertex 1.756730e+06 5.421016e+06 -4.474709e+03
    endloop
  endfacet
  facet normal -7.893807e-01 3.575952e-01 4.990028e-01
    outer loop
      vertex 1.756730e+06 5.421016e+06 -4.474709e+03
      vertex 1.756341e+06 5.419090e+06 -3.709561e+03
      vertex 1.757731e+06 5.420391e+06 -2.443676e+03
    endloop
  endfacet
  facet normal -7.893277e-01 3.580032e-01 4.987940e-01
    outer loop
      vertex 1.757731e+06 5.420391e+06 -2.443676e+03
      vertex 1.757283e+06 5.418582e+06 -1.854133e+03
      vertex 1.759037e+06 5.419866e+06 0.000000e+00
    endloop
  endfacet
  facet normal -8.378054e-01 2.453167e-01 4.877517e-01
    outer loop
      vertex 1.758742e+06 5.421476e+06 -1.479491e+03
      vertex 1.759676e+06 5.421722e+06 0.000000e+00
      vertex 1.759210e+06 5.423153e+06 -1.518731e+03
    endloop
  endfacet
  facet normal -8.090971e-01 3.102508e-01 4.991055e-01
    outer loop
      vertex 1.759037e+06 5.419866e+06 0.000000e+00
      vertex 1.758742e+06 5.421476e+06 -1.479491e+03
      vertex 1.757731e+06 5.420391e+06 -2.443676e+03
    endloop
  endfacet
  facet normal -8.061504e-01 2.954481e-01 5.126714e-01
    outer loop
      vertex 1.757731e+06 5.420391e+06 -2.443676e+03
      vertex 1.758742e+06 5.421476e+06 -1.479491e+03
      vertex 1.757985e+06 5.422520e+06 -3.271886e+03
    endloop
  endfacet
  facet normal -7.306502e-01 4.754704e-01 4.899776e-01
    outer loop
      vertex 1.759210e+06 5.423153e+06 -1.518731e+03
      vertex 1.760457e+06 5.423504e+06 0.000000e+00
      vertex 1.760257e+06 5.424810e+06 -1.565293e+03
    endloop
  endfacet
  facet normal -7.566780e-01 4.109169e-01 5.085132e-01
    outer loop
      vertex 1.760257e+06 5.424810e+06 -1.565293e+03
      vertex 1.761503e+06 5.425166e+06 0.000000e+00
      vertex 1.761211e+06 5.426526e+06 -1.531862e+03
    endloop
  endfacet
  facet normal -7.668129e-01 4.065048e-01 4.967411e-01
    outer loop
      vertex 1.761211e+06 5.426526e+06 -1.531862e+03
      vertex 1.762409e+06 5.426914e+06 0.000000e+00
      vertex 1.762138e+06 5.428279e+06 -1.536999e+03
    endloop
  endfacet
  facet normal -7.258738e-01 4.841299e-01 4.885955e-01
    outer loop
      vertex 1.762138e+06 5.428279e+06 -1.536999e+03
      vertex 1.763396e+06 5.428615e+06 0.000000e+00
      vertex 1.763195e+06 5.429954e+06 -1.624821e+03
    endloop
  endfacet
  facet normal -7.216914e-01 4.682448e-01 5.098121e-01
    outer loop
      vertex 1.763195e+06 5.429954e+06 -1.624821e+03
      vertex 1.764522e+06 5.430230e+06 0.000000e+00
      vertex 1.764252e+06 5.431620e+06 -1.660283e+03
    endloop
  endfacet
  facet normal -7.666228e-01 3.997058e-01 5.025184e-01
    outer loop
      vertex 1.764252e+06 5.431620e+06 -1.660283e+03
      vertex 1.765503e+06 5.431934e+06 0.000000e+00
      vertex 1.765203e+06 5.433336e+06 -1.573916e+03
    endloop
  endfacet
  facet normal -7.711266e-01 3.938686e-01 5.002313e-01
    outer loop
      vertex 1.765203e+06 5.433336e+06 -1.573916e+03
      vertex 1.766402e+06 5.433684e+06 0.000000e+00
      vertex 1.766141e+06 5.435086e+06 -1.504576e+03
    endloop
  endfacet
  facet normal -7.445505e-01 4.649315e-01 4.790441e-01
    outer loop
      vertex 1.766141e+06 5.435086e+06 -1.504576e+03
      vertex 1.767321e+06 5.435424e+06 0.000000e+00
      vertex 1.767148e+06 5.436784e+06 -1.589094e+03
    endloop
  endfacet
  facet normal -7.167516e-01 4.589777e-01 5.249826e-01
    outer loop
      vertex 1.767148e+06 5.436784e+06 -1.589094e+03
      vertex 1.768465e+06 5.437024e+06 0.000000e+00
      vertex 1.768111e+06 5.438202e+06 -1.513041e+03
    endloop
  endfacet
  facet normal -7.340410e-01 4.727369e-01 4.875486e-01
    outer loop
      vertex 1.767148e+06 5.436784e+06 -1.589094e+03
      vertex 1.768111e+06 5.438202e+06 -1.513041e+03
      vertex 1.766978e+06 5.438376e+06 -3.386969e+03
    endloop
  endfacet
  facet normal -8.264976e-01 2.165246e-01 5.196333e-01
    outer loop
      vertex 1.766978e+06 5.438376e+06 -3.386969e+03
      vertex 1.768111e+06 5.438202e+06 -1.513041e+03
      vertex 1.768249e+06 5.440020e+06 -2.050674e+03
    endloop
  endfacet
  facet normal -8.426168e-01 2.106463e-01 4.956058e-01
    outer loop
      vertex 1.768249e+06 5.440020e+06 -2.050674e+03
      vertex 1.768111e+06 5.438202e+06 -1.513041e+03
      vertex 1.769160e+06 5.438838e+06 0.000000e+00
    endloop
  endfacet
  facet normal -7.187324e-01 4.716493e-01 5.108529e-01
    outer loop
      vertex 1.766978e+06 5.438376e+06 -3.386969e+03
      vertex 1.765994e+06 5.439310e+06 -5.634706e+03
      vertex 1.765468e+06 5.437480e+06 -4.685129e+03
    endloop
  endfacet
  facet normal -7.168748e-01 4.898119e-01 4.961601e-01
    outer loop
      vertex 1.766978e+06 5.438376e+06 -3.386969e+03
      vertex 1.765468e+06 5.437480e+06 -4.685129e+03
      vertex 1.765934e+06 5.436466e+06 -3.010863e+03
    endloop
  endfacet
  facet normal -7.348742e-01 4.568896e-01 5.012103e-01
    outer loop
      vertex 1.765468e+06 5.437480e+06 -4.685129e+03
      vertex 1.764650e+06 5.438058e+06 -6.411759e+03
      vertex 1.764150e+06 5.436310e+06 -5.551969e+03
    endloop
  endfacet
  facet normal -7.698653e-01 3.954837e-01 5.008992e-01
    outer loop
      vertex 1.764150e+06 5.436310e+06 -5.551969e+03
      vertex 1.763331e+06 5.436753e+06 -7.159383e+03
      vertex 1.762962e+06 5.434912e+06 -6.273586e+03
    endloop
  endfacet
  facet normal -7.712916e-01 3.934474e-01 5.003083e-01
    outer loop
      vertex 1.762962e+06 5.434912e+06 -6.273586e+03
      vertex 1.762081e+06 5.435508e+06 -8.100687e+03
      vertex 1.761746e+06 5.433648e+06 -7.153740e+03
    endloop
  endfacet
  facet normal -7.439178e-01 4.402600e-01 5.027500e-01
    outer loop
      vertex 1.761746e+06 5.433648e+06 -7.153740e+03
      vertex 1.760836e+06 5.434242e+06 -9.020201e+03
      vertex 1.760407e+06 5.432326e+06 -7.977558e+03
    endloop
  endfacet
  facet normal -7.104744e-01 4.966154e-01 4.985972e-01
    outer loop
      vertex 1.760407e+06 5.432326e+06 -7.977558e+03
      vertex 1.759540e+06 5.432954e+06 -9.838558e+03
      vertex 1.758992e+06 5.431018e+06 -8.692146e+03
    endloop
  endfacet
  facet normal -7.481657e-01 4.417008e-01 4.951247e-01
    outer loop
      vertex 1.758992e+06 5.431018e+06 -8.692146e+03
      vertex 1.758159e+06 5.431692e+06 -1.055078e+04
      vertex 1.757562e+06 5.429728e+06 -9.701764e+03
    endloop
  endfacet
  facet normal -8.264195e-01 2.714714e-01 4.932891e-01
    outer loop
      vertex 1.751935e+06 5.425758e+06 -1.516357e+04
      vertex 1.751667e+06 5.427518e+06 -1.658135e+04
      vertex 1.750949e+06 5.425950e+06 -1.692225e+04
    endloop
  endfacet
  facet normal -8.215868e-01 2.586583e-01 5.080265e-01
    outer loop
      vertex 1.750949e+06 5.425950e+06 -1.692225e+04
      vertex 1.750557e+06 5.427274e+06 -1.822934e+04
      vertex 1.749820e+06 5.425068e+06 -1.829929e+04
    endloop
  endfacet
  facet normal -7.412602e-01 4.449625e-01 5.025352e-01
    outer loop
      vertex 1.756098e+06 5.428419e+06 -1.091445e+04
      vertex 1.755676e+06 5.426480e+06 -9.818720e+03
      vertex 1.757058e+06 5.427722e+06 -8.881118e+03
    endloop
  endfacet
  facet normal -7.695366e-01 3.976598e-01 4.996800e-01
    outer loop
      vertex 1.757562e+06 5.429728e+06 -9.701764e+03
      vertex 1.756098e+06 5.428419e+06 -1.091445e+04
      vertex 1.757058e+06 5.427722e+06 -8.881118e+03
    endloop
  endfacet
  facet normal -7.696138e-01 3.976378e-01 4.995786e-01
    outer loop
      vertex 1.757562e+06 5.429728e+06 -9.701764e+03
      vertex 1.757058e+06 5.427722e+06 -8.881118e+03
      vertex 1.758448e+06 5.429022e+06 -7.774774e+03
    endloop
  endfacet
  facet normal -8.227380e-01 2.904502e-01 4.886112e-01
    outer loop
      vertex 1.749820e+06 5.425068e+06 -1.829929e+04
      vertex 1.750723e+06 5.424253e+06 -1.629288e+04
      vertex 1.750949e+06 5.425950e+06 -1.692225e+04
    endloop
  endfacet
  facet normal -8.203416e-01 2.914098e-01 4.920569e-01
    outer loop
      vertex 1.750949e+06 5.425950e+06 -1.692225e+04
      vertex 1.750723e+06 5.424253e+06 -1.629288e+04
      vertex 1.751935e+06 5.425758e+06 -1.516357e+04
    endloop
  endfacet
  facet normal -8.190451e-01 2.866782e-01 4.969715e-01
    outer loop
      vertex 1.751935e+06 5.425758e+06 -1.516357e+04
      vertex 1.750723e+06 5.424253e+06 -1.629288e+04
      vertex 1.751749e+06 5.423798e+06 -1.434052e+04
    endloop
  endfacet
  facet normal -8.449900e-01 2.644736e-01 4.648070e-01
    outer loop
      vertex 1.755216e+06 5.424530e+06 -8.939938e+03
      vertex 1.754225e+06 5.423682e+06 -1.025964e+04
      vertex 1.754756e+06 5.422298e+06 -8.506515e+03
    endloop
  endfacet
  facet normal -7.755916e-01 4.022979e-01 4.864299e-01
    outer loop
      vertex 1.755676e+06 5.426480e+06 -9.818720e+03
      vertex 1.755216e+06 5.424530e+06 -8.939938e+03
      vertex 1.756475e+06 5.425764e+06 -7.952482e+03
    endloop
  endfacet
  facet normal -8.158283e-01 2.831692e-01 5.042215e-01
    outer loop
      vertex 1.756001e+06 5.423683e+06 -7.206707e+03
      vertex 1.755736e+06 5.421596e+06 -6.461981e+03
      vertex 1.756914e+06 5.422980e+06 -5.333070e+03
    endloop
  endfacet
  facet normal -8.222000e-01 2.671196e-01 5.026274e-01
    outer loop
      vertex 1.754756e+06 5.422298e+06 -8.506515e+03
      vertex 1.756001e+06 5.423683e+06 -7.206707e+03
      vertex 1.755216e+06 5.424530e+06 -8.939938e+03
    endloop
  endfacet
  facet normal -7.688456e-01 3.639289e-01 5.257682e-01
    outer loop
      vertex 1.755216e+06 5.424530e+06 -8.939938e+03
      vertex 1.756001e+06 5.423683e+06 -7.206707e+03
      vertex 1.756475e+06 5.425764e+06 -7.952482e+03
    endloop
  endfacet
  facet normal -8.182006e-01 2.929670e-01 4.946899e-01
    outer loop
      vertex 1.755736e+06 5.421596e+06 -6.461981e+03
      vertex 1.756730e+06 5.421016e+06 -4.474709e+03
      vertex 1.756914e+06 5.422980e+06 -5.333070e+03
    endloop
  endfacet
  facet normal -8.202449e-01 2.895887e-01 4.932917e-01
    outer loop
      vertex 1.756730e+06 5.421016e+06 -4.474709e+03
      vertex 1.757731e+06 5.420391e+06 -2.443676e+03
      vertex 1.757985e+06 5.422520e+06 -3.271886e+03
    endloop
  endfacet
  facet normal -8.339896e-01 2.444139e-01 4.946950e-01
    outer loop
      vertex 1.758742e+06 5.421476e+06 -1.479491e+03
      vertex 1.759210e+06 5.423153e+06 -1.518731e+03
      vertex 1.757985e+06 5.422520e+06 -3.271886e+03
    endloop
  endfacet
  facet normal -7.227466e-01 4.709215e-01 5.058363e-01
    outer loop
      vertex 1.759210e+06 5.423153e+06 -1.518731e+03
      vertex 1.760257e+06 5.424810e+06 -1.565293e+03
      vertex 1.758970e+06 5.424506e+06 -3.122404e+03
    endloop
  endfacet
  facet normal -7.654765e-01 4.161560e-01 4.907748e-01
    outer loop
      vertex 1.760257e+06 5.424810e+06 -1.565293e+03
      vertex 1.761211e+06 5.426526e+06 -1.531862e+03
      vertex 1.760006e+06 5.426164e+06 -3.104599e+03
    endloop
  endfacet
  facet normal -7.633104e-01 4.046747e-01 5.035827e-01
    outer loop
      vertex 1.761211e+06 5.426526e+06 -1.531862e+03
      vertex 1.762138e+06 5.428279e+06 -1.536999e+03
      vertex 1.760941e+06 5.427884e+06 -3.034392e+03
    endloop
  endfacet
  facet normal -7.166898e-01 4.792734e-01 5.066090e-01
    outer loop
      vertex 1.762138e+06 5.428279e+06 -1.536999e+03
      vertex 1.763195e+06 5.429954e+06 -1.624821e+03
      vertex 1.761870e+06 5.429608e+06 -3.172729e+03
    endloop
  endfacet
  facet normal -7.325944e-01 4.746872e-01 4.878295e-01
    outer loop
      vertex 1.763195e+06 5.429954e+06 -1.624821e+03
      vertex 1.764252e+06 5.431620e+06 -1.660283e+03
      vertex 1.762947e+06 5.431335e+06 -3.341330e+03
    endloop
  endfacet
  facet normal -7.698472e-01 4.018290e-01 4.958516e-01
    outer loop
      vertex 1.764252e+06 5.431620e+06 -1.660283e+03
      vertex 1.765203e+06 5.433336e+06 -1.573916e+03
      vertex 1.763982e+06 5.433052e+06 -3.238329e+03
    endloop
  endfacet
  facet normal -7.711312e-01 3.938714e-01 5.002220e-01
    outer loop
      vertex 1.765203e+06 5.433336e+06 -1.573916e+03
      vertex 1.766141e+06 5.435086e+06 -1.504576e+03
      vertex 1.764996e+06 5.434716e+06 -2.979997e+03
    endloop
  endfacet
  facet normal -7.249346e-01 4.551979e-01 5.169764e-01
    outer loop
      vertex 1.766141e+06 5.435086e+06 -1.504576e+03
      vertex 1.767148e+06 5.436784e+06 -1.589094e+03
      vertex 1.765934e+06 5.436466e+06 -3.010863e+03
    endloop
  endfacet
  facet normal -7.143597e-01 4.892552e-01 5.003195e-01
    outer loop
      vertex 1.765934e+06 5.436466e+06 -3.010863e+03
      vertex 1.767148e+06 5.436784e+06 -1.589094e+03
      vertex 1.766978e+06 5.438376e+06 -3.386969e+03
    endloop
  endfacet
  facet normal -7.446823e-01 4.585486e-01 4.849551e-01
    outer loop
      vertex 1.765934e+06 5.436466e+06 -3.010863e+03
      vertex 1.765468e+06 5.437480e+06 -4.685129e+03
      vertex 1.764864e+06 5.435926e+06 -4.143041e+03
    endloop
  endfacet
  facet normal -7.352542e-01 4.595200e-01 4.982394e-01
    outer loop
      vertex 1.765468e+06 5.437480e+06 -4.685129e+03
      vertex 1.764150e+06 5.436310e+06 -5.551969e+03
      vertex 1.764864e+06 5.435926e+06 -4.143041e+03
    endloop
  endfacet
  facet normal -7.712632e-01 3.952081e-01 4.989626e-01
    outer loop
      vertex 1.764864e+06 5.435926e+06 -4.143041e+03
      vertex 1.764150e+06 5.436310e+06 -5.551969e+03
      vertex 1.763896e+06 5.434576e+06 -4.570392e+03
    endloop
  endfacet
  facet normal -7.699954e-01 3.958446e-01 5.004140e-01
    outer loop
      vertex 1.764150e+06 5.436310e+06 -5.551969e+03
      vertex 1.762962e+06 5.434912e+06 -6.273586e+03
      vertex 1.763896e+06 5.434576e+06 -4.570392e+03
    endloop
  endfacet
  facet normal -7.706788e-01 3.943975e-01 5.005046e-01
    outer loop
      vertex 1.763896e+06 5.434576e+06 -4.570392e+03
      vertex 1.762962e+06 5.434912e+06 -6.273586e+03
      vertex 1.762673e+06 5.432894e+06 -5.127997e+03
    endloop
  endfacet
  facet normal -7.714192e-01 3.940230e-01 4.996581e-01
    outer loop
      vertex 1.762962e+06 5.434912e+06 -6.273586e+03
      vertex 1.761746e+06 5.433648e+06 -7.153740e+03
      vertex 1.762673e+06 5.432894e+06 -5.127997e+03
    endloop
  endfacet
  facet normal -7.436525e-01 4.391339e-01 5.041253e-01
    outer loop
      vertex 1.761746e+06 5.433648e+06 -7.153740e+03
      vertex 1.760407e+06 5.432326e+06 -7.977558e+03
      vertex 1.761304e+06 5.431988e+06 -6.360070e+03
    endloop
  endfacet
  facet normal -7.104879e-01 4.966703e-01 4.985234e-01
    outer loop
      vertex 1.760407e+06 5.432326e+06 -7.977558e+03
      vertex 1.758992e+06 5.431018e+06 -8.692146e+03
      vertex 1.760004e+06 5.430370e+06 -6.602368e+03
    endloop
  endfacet
  facet normal -7.471926e-01 4.346130e-01 5.028068e-01
    outer loop
      vertex 1.758992e+06 5.431018e+06 -8.692146e+03
      vertex 1.757562e+06 5.429728e+06 -9.701764e+03
      vertex 1.758448e+06 5.429022e+06 -7.774774e+03
    endloop
  endfacet
  facet normal -7.425752e-01 4.542109e-01 4.922138e-01
    outer loop
      vertex 1.757058e+06 5.427722e+06 -8.881118e+03
      vertex 1.755676e+06 5.426480e+06 -9.818720e+03
      vertex 1.756475e+06 5.425764e+06 -7.952482e+03
    endloop
  endfacet
  facet normal -7.696717e-01 3.980661e-01 4.991481e-01
    outer loop
      vertex 1.758448e+06 5.429022e+06 -7.774774e+03
      vertex 1.757058e+06 5.427722e+06 -8.881118e+03
      vertex 1.757908e+06 5.426937e+06 -6.943746e+03
    endloop
  endfacet
  facet normal -7.978391e-01 3.216531e-01 5.098942e-01
    outer loop
      vertex 1.756001e+06 5.423683e+06 -7.206707e+03
      vertex 1.756914e+06 5.422980e+06 -5.333070e+03
      vertex 1.757241e+06 5.425015e+06 -6.106516e+03
    endloop
  endfacet
  facet normal -8.041274e-01 3.545525e-01 4.771495e-01
    outer loop
      vertex 1.756475e+06 5.425764e+06 -7.952482e+03
      vertex 1.756001e+06 5.423683e+06 -7.206707e+03
      vertex 1.757241e+06 5.425015e+06 -6.106516e+03
    endloop
  endfacet
  facet normal -8.207552e-01 2.916830e-01 4.912045e-01
    outer loop
      vertex 1.756914e+06 5.422980e+06 -5.333070e+03
      vertex 1.756730e+06 5.421016e+06 -4.474709e+03
      vertex 1.757985e+06 5.422520e+06 -3.271886e+03
    endloop
  endfacet
  facet normal -8.183303e-01 3.728491e-01 4.374004e-01
    outer loop
      vertex 1.757985e+06 5.422520e+06 -3.271886e+03
      vertex 1.759210e+06 5.423153e+06 -1.518731e+03
      vertex 1.758970e+06 5.424506e+06 -3.122404e+03
    endloop
  endfacet
  facet normal -7.291473e-01 4.505731e-01 5.151001e-01
    outer loop
      vertex 1.758970e+06 5.424506e+06 -3.122404e+03
      vertex 1.760257e+06 5.424810e+06 -1.565293e+03
      vertex 1.760006e+06 5.426164e+06 -3.104599e+03
    endloop
  endfacet
  facet normal -7.701687e-01 3.977969e-01 4.985958e-01
    outer loop
      vertex 1.760006e+06 5.426164e+06 -3.104599e+03
      vertex 1.761211e+06 5.426526e+06 -1.531862e+03
      vertex 1.760941e+06 5.427884e+06 -3.034392e+03
    endloop
  endfacet
  facet normal -7.529948e-01 4.450364e-01 4.847076e-01
    outer loop
      vertex 1.760941e+06 5.427884e+06 -3.034392e+03
      vertex 1.762138e+06 5.428279e+06 -1.536999e+03
      vertex 1.761870e+06 5.429608e+06 -3.172729e+03
    endloop
  endfacet
  facet normal -7.121831e-01 4.930722e-01 4.996750e-01
    outer loop
      vertex 1.761870e+06 5.429608e+06 -3.172729e+03
      vertex 1.763195e+06 5.429954e+06 -1.624821e+03
      vertex 1.762947e+06 5.431335e+06 -3.341330e+03
    endloop
  endfacet
  facet normal -7.497485e-01 4.214135e-01 5.101841e-01
    outer loop
      vertex 1.762947e+06 5.431335e+06 -3.341330e+03
      vertex 1.764252e+06 5.431620e+06 -1.660283e+03
      vertex 1.763982e+06 5.433052e+06 -3.238329e+03
    endloop
  endfacet
  facet normal -7.591284e-01 4.282668e-01 4.902160e-01
    outer loop
      vertex 1.762947e+06 5.431335e+06 -3.341330e+03
      vertex 1.763982e+06 5.433052e+06 -3.238329e+03
      vertex 1.762673e+06 5.432894e+06 -5.127997e+03
    endloop
  endfacet
  facet normal -7.723573e-01 3.926990e-01 4.992511e-01
    outer loop
      vertex 1.763982e+06 5.433052e+06 -3.238329e+03
      vertex 1.765203e+06 5.433336e+06 -1.573916e+03
      vertex 1.764996e+06 5.434716e+06 -2.979997e+03
    endloop
  endfacet
  facet normal -7.649960e-01 4.188693e-01 4.892133e-01
    outer loop
      vertex 1.764996e+06 5.434716e+06 -2.979997e+03
      vertex 1.766141e+06 5.435086e+06 -1.504576e+03
      vertex 1.765934e+06 5.436466e+06 -3.010863e+03
    endloop
  endfacet
  facet normal -7.521492e-01 4.124174e-01 5.139878e-01
    outer loop
      vertex 1.765934e+06 5.436466e+06 -3.010863e+03
      vertex 1.764864e+06 5.435926e+06 -4.143041e+03
      vertex 1.764996e+06 5.434716e+06 -2.979997e+03
    endloop
  endfacet
  facet normal -7.714159e-01 3.954541e-01 4.985314e-01
    outer loop
      vertex 1.764996e+06 5.434716e+06 -2.979997e+03
      vertex 1.764864e+06 5.435926e+06 -4.143041e+03
      vertex 1.763896e+06 5.434576e+06 -4.570392e+03
    endloop
  endfacet
  facet normal -7.722976e-01 3.926413e-01 4.993888e-01
    outer loop
      vertex 1.764996e+06 5.434716e+06 -2.979997e+03
      vertex 1.763896e+06 5.434576e+06 -4.570392e+03
      vertex 1.763982e+06 5.433052e+06 -3.238329e+03
    endloop
  endfacet
  facet normal -7.705154e-01 3.941242e-01 5.009712e-01
    outer loop
      vertex 1.763982e+06 5.433052e+06 -3.238329e+03
      vertex 1.763896e+06 5.434576e+06 -4.570392e+03
      vertex 1.762673e+06 5.432894e+06 -5.127997e+03
    endloop
  endfacet
  facet normal -7.438904e-01 4.390602e-01 5.038385e-01
    outer loop
      vertex 1.762673e+06 5.432894e+06 -5.127997e+03
      vertex 1.761746e+06 5.433648e+06 -7.153740e+03
      vertex 1.761304e+06 5.431988e+06 -6.360070e+03
    endloop
  endfacet
  facet normal -7.110018e-01 4.964296e-01 4.980302e-01
    outer loop
      vertex 1.761304e+06 5.431988e+06 -6.360070e+03
      vertex 1.760407e+06 5.432326e+06 -7.977558e+03
      vertex 1.760004e+06 5.430370e+06 -6.602368e+03
    endloop
  endfacet
  facet normal -7.507415e-01 4.335597e-01 4.984107e-01
    outer loop
      vertex 1.760004e+06 5.430370e+06 -6.602368e+03
      vertex 1.758992e+06 5.431018e+06 -8.692146e+03
      vertex 1.758448e+06 5.429022e+06 -7.774774e+03
    endloop
  endfacet
  facet normal -7.310482e-01 4.574466e-01 5.062719e-01
    outer loop
      vertex 1.757058e+06 5.427722e+06 -8.881118e+03
      vertex 1.756475e+06 5.425764e+06 -7.952482e+03
      vertex 1.757908e+06 5.426937e+06 -6.943746e+03
    endloop
  endfacet
  facet normal -7.320256e-01 4.693598e-01 4.938014e-01
    outer loop
      vertex 1.757908e+06 5.426937e+06 -6.943746e+03
      vertex 1.756475e+06 5.425764e+06 -7.952482e+03
      vertex 1.757241e+06 5.425015e+06 -6.106516e+03
    endloop
  endfacet
  facet normal -7.692859e-01 3.981701e-01 4.996597e-01
    outer loop
      vertex 1.758448e+06 5.429022e+06 -7.774774e+03
      vertex 1.757908e+06 5.426937e+06 -6.943746e+03
      vertex 1.759227e+06 5.428184e+06 -5.906594e+03
    endloop
  endfacet
  facet normal -8.320529e-01 3.085447e-01 4.609642e-01
    outer loop
      vertex 1.757241e+06 5.425015e+06 -6.106516e+03
      vertex 1.756914e+06 5.422980e+06 -5.333070e+03
      vertex 1.757868e+06 5.424265e+06 -4.472443e+03
    endloop
  endfacet
  facet normal -8.241012e-01 2.825922e-01 4.909163e-01
    outer loop
      vertex 1.756914e+06 5.422980e+06 -5.333070e+03
      vertex 1.757985e+06 5.422520e+06 -3.271886e+03
      vertex 1.757868e+06 5.424265e+06 -4.472443e+03
    endloop
  endfacet
  facet normal -7.586328e-01 3.340697e-01 5.593510e-01
    outer loop
      vertex 1.757985e+06 5.422520e+06 -3.271886e+03
      vertex 1.758970e+06 5.424506e+06 -3.122404e+03
      vertex 1.757868e+06 5.424265e+06 -4.472443e+03
    endloop
  endfacet
  facet normal -7.431706e-01 4.596554e-01 4.862247e-01
    outer loop
      vertex 1.758970e+06 5.424506e+06 -3.122404e+03
      vertex 1.760006e+06 5.426164e+06 -3.104599e+03
      vertex 1.758758e+06 5.426060e+06 -4.915125e+03
    endloop
  endfacet
  facet normal -7.694336e-01 3.973366e-01 5.000955e-01
    outer loop
      vertex 1.760006e+06 5.426164e+06 -3.104599e+03
      vertex 1.760941e+06 5.427884e+06 -3.034392e+03
      vertex 1.759876e+06 5.427476e+06 -4.346826e+03
    endloop
  endfacet
  facet normal -7.375242e-01 4.389771e-01 5.131834e-01
    outer loop
      vertex 1.760941e+06 5.427884e+06 -3.034392e+03
      vertex 1.761870e+06 5.429608e+06 -3.172729e+03
      vertex 1.760545e+06 5.429142e+06 -4.678651e+03
    endloop
  endfacet
  facet normal -7.147435e-01 4.942012e-01 4.948806e-01
    outer loop
      vertex 1.761870e+06 5.429608e+06 -3.172729e+03
      vertex 1.762947e+06 5.431335e+06 -3.341330e+03
      vertex 1.761566e+06 5.430887e+06 -4.889138e+03
    endloop
  endfacet
  facet normal -7.242571e-01 4.606415e-01 5.130898e-01
    outer loop
      vertex 1.762947e+06 5.431335e+06 -3.341330e+03
      vertex 1.762673e+06 5.432894e+06 -5.127997e+03
      vertex 1.761566e+06 5.430887e+06 -4.889138e+03
    endloop
  endfacet
  facet normal -7.419528e-01 4.666330e-01 4.814143e-01
    outer loop
      vertex 1.762673e+06 5.432894e+06 -5.127997e+03
      vertex 1.761304e+06 5.431988e+06 -6.360070e+03
      vertex 1.761566e+06 5.430887e+06 -4.889138e+03
    endloop
  endfacet
  facet normal -7.109582e-01 4.963776e-01 4.981442e-01
    outer loop
      vertex 1.761304e+06 5.431988e+06 -6.360070e+03
      vertex 1.760004e+06 5.430370e+06 -6.602368e+03
      vertex 1.761566e+06 5.430887e+06 -4.889138e+03
    endloop
  endfacet
  facet normal -7.500979e-01 4.273067e-01 5.047398e-01
    outer loop
      vertex 1.760004e+06 5.430370e+06 -6.602368e+03
      vertex 1.758448e+06 5.429022e+06 -7.774774e+03
      vertex 1.759227e+06 5.428184e+06 -5.906594e+03
    endloop
  endfacet
  facet normal -7.222511e-01 4.713444e-01 5.061501e-01
    outer loop
      vertex 1.757908e+06 5.426937e+06 -6.943746e+03
      vertex 1.757241e+06 5.425015e+06 -6.106516e+03
      vertex 1.758758e+06 5.426060e+06 -4.915125e+03
    endloop
  endfacet
  facet normal -7.220075e-01 4.806155e-01 4.977086e-01
    outer loop
      vertex 1.758758e+06 5.426060e+06 -4.915125e+03
      vertex 1.757241e+06 5.425015e+06 -6.106516e+03
      vertex 1.757868e+06 5.424265e+06 -4.472443e+03
    endloop
  endfacet
  facet normal -7.196451e-01 4.803486e-01 5.013742e-01
    outer loop
      vertex 1.758758e+06 5.426060e+06 -4.915125e+03
      vertex 1.757868e+06 5.424265e+06 -4.472443e+03
      vertex 1.758970e+06 5.424506e+06 -3.122404e+03
    endloop
  endfacet
  facet normal -7.697952e-01 4.017713e-01 4.959790e-01
    outer loop
      vertex 1.759227e+06 5.428184e+06 -5.906594e+03
      vertex 1.757908e+06 5.426937e+06 -6.943746e+03
      vertex 1.758758e+06 5.426060e+06 -4.915125e+03
    endloop
  endfacet
  facet normal -7.644525e-01 4.017257e-01 5.042111e-01
    outer loop
      vertex 1.758758e+06 5.426060e+06 -4.915125e+03
      vertex 1.760006e+06 5.426164e+06 -3.104599e+03
      vertex 1.759876e+06 5.427476e+06 -4.346826e+03
    endloop
  endfacet
  facet normal -7.674841e-01 4.065977e-01 4.956274e-01
    outer loop
      vertex 1.759876e+06 5.427476e+06 -4.346826e+03
      vertex 1.760941e+06 5.427884e+06 -3.034392e+03
      vertex 1.760545e+06 5.429142e+06 -4.678651e+03
    endloop
  endfacet
  facet normal -7.258437e-01 4.837204e-01 4.890456e-01
    outer loop
      vertex 1.760545e+06 5.429142e+06 -4.678651e+03
      vertex 1.761870e+06 5.429608e+06 -3.172729e+03
      vertex 1.761566e+06 5.430887e+06 -4.889138e+03
    endloop
  endfacet
  facet normal -7.156652e-01 4.799778e-01 5.073900e-01
    outer loop
      vertex 1.761566e+06 5.430887e+06 -4.889138e+03
      vertex 1.760004e+06 5.430370e+06 -6.602368e+03
      vertex 1.760545e+06 5.429142e+06 -4.678651e+03
    endloop
  endfacet
  facet normal -7.629493e-01 4.259898e-01 4.862521e-01
    outer loop
      vertex 1.760004e+06 5.430370e+06 -6.602368e+03
      vertex 1.759227e+06 5.428184e+06 -5.906594e+03
      vertex 1.760545e+06 5.429142e+06 -4.678651e+03
    endloop
  endfacet
  facet normal -7.634109e-01 4.062622e-01 5.021502e-01
    outer loop
      vertex 1.760545e+06 5.429142e+06 -4.678651e+03
      vertex 1.759227e+06 5.428184e+06 -5.906594e+03
      vertex 1.759876e+06 5.427476e+06 -4.346826e+03
    endloop
  endfacet
  facet normal -7.652670e-01 4.034069e-01 5.016267e-01
    outer loop
      vertex 1.759876e+06 5.427476e+06 -4.346826e+03
      vertex 1.759227e+06 5.428184e+06 -5.906594e+03
      vertex 1.758758e+06 5.426060e+06 -4.915125e+03
    endloop
  endfacet
endsolid Surface 1
