solid Surface 1
  facet normal -6.860959e-01 5.260791e-01 -5.025069e-01
    outer loop
      vertex 1.777023e+06 5.401147e+06 -1.167454e+03
      vertex 1.776475e+06 5.401548e+06 0.000000e+00
      vertex 1.777722e+06 5.403174e+06 0.000000e+00
    endloop
  endfacet
  facet normal -5.798951e-01 6.518040e-01 -4.887466e-01
    outer loop
      vertex 1.797660e+06 5.429055e+06 0.000000e+00
      vertex 1.798393e+06 5.428520e+06 -1.583654e+03
      vertex 1.796129e+06 5.427692e+06 0.000000e+00
    endloop
  endfacet
  facet normal -5.791771e-01 6.499916e-01 -4.920008e-01
    outer loop
      vertex 1.798393e+06 5.428520e+06 -1.583654e+03
      vertex 1.799130e+06 5.427980e+06 -3.163931e+03
      vertex 1.797400e+06 5.426829e+06 -2.647670e+03
    endloop
  endfacet
  facet normal -5.764917e-01 6.515685e-01 -4.930677e-01
    outer loop
      vertex 1.799130e+06 5.427980e+06 -3.163931e+03
      vertex 1.799870e+06 5.427440e+06 -4.742773e+03
      vertex 1.798371e+06 5.426178e+06 -4.656820e+03
    endloop
  endfacet
  facet normal -5.793425e-01 6.508182e-01 -4.907115e-01
    outer loop
      vertex 1.797400e+06 5.426829e+06 -2.647670e+03
      vertex 1.799130e+06 5.427980e+06 -3.163931e+03
      vertex 1.798371e+06 5.426178e+06 -4.656820e+03
    endloop
  endfacet
  facet normal -5.804889e-01 6.498805e-01 -4.905997e-01
    outer loop
      vertex 1.798393e+06 5.428520e+06 -1.583654e+03
      vertex 1.797400e+06 5.426829e+06 -2.647670e+03
      vertex 1.796129e+06 5.427692e+06 0.000000e+00
    endloop
  endfacet
  facet normal -6.853946e-01 5.262718e-01 -5.032616e-01
    outer loop
      vertex 1.778294e+06 5.402616e+06 -1.363192e+03
      vertex 1.777023e+06 5.401147e+06 -1.167454e+03
      vertex 1.777722e+06 5.403174e+06 0.000000e+00
    endloop
  endfacet
  facet normal -6.868392e-01 5.244994e-01 -5.031424e-01
    outer loop
      vertex 1.778294e+06 5.402616e+06 -1.363192e+03
      vertex 1.777722e+06 5.403174e+06 0.000000e+00
      vertex 1.779572e+06 5.404086e+06 -1.574979e+03
    endloop
  endfacet
  facet normal -6.867122e-01 5.251940e-01 -5.025909e-01
    outer loop
      vertex 1.777722e+06 5.403174e+06 0.000000e+00
      vertex 1.778967e+06 5.404802e+06 0.000000e+00
      vertex 1.779572e+06 5.404086e+06 -1.574979e+03
    endloop
  endfacet
  facet normal -6.886991e-01 5.228685e-01 -5.022968e-01
    outer loop
      vertex 1.779572e+06 5.404086e+06 -1.574979e+03
      vertex 1.778967e+06 5.404802e+06 0.000000e+00
      vertex 1.780846e+06 5.405559e+06 -1.788435e+03
    endloop
  endfacet
  facet normal -6.893228e-01 5.204088e-01 -5.039928e-01
    outer loop
      vertex 1.778967e+06 5.404802e+06 0.000000e+00
      vertex 1.780202e+06 5.406438e+06 0.000000e+00
      vertex 1.780846e+06 5.405559e+06 -1.788435e+03
    endloop
  endfacet
  facet normal -7.156185e-01 4.857136e-01 -5.019686e-01
    outer loop
      vertex 1.780202e+06 5.406438e+06 0.000000e+00
      vertex 1.781353e+06 5.408134e+06 0.000000e+00
      vertex 1.782080e+06 5.407044e+06 -2.090429e+03
    endloop
  endfacet
  facet normal -7.138727e-01 4.916269e-01 -4.986870e-01
    outer loop
      vertex 1.780202e+06 5.406438e+06 0.000000e+00
      vertex 1.782080e+06 5.407044e+06 -2.090429e+03
      vertex 1.780846e+06 5.405559e+06 -1.788435e+03
    endloop
  endfacet
  facet normal -7.231261e-01 4.766040e-01 -4.999373e-01
    outer loop
      vertex 1.781353e+06 5.408134e+06 0.000000e+00
      vertex 1.782481e+06 5.409846e+06 0.000000e+00
      vertex 1.783302e+06 5.408532e+06 -2.440271e+03
    endloop
  endfacet
  facet normal -7.230803e-01 4.767341e-01 -4.998795e-01
    outer loop
      vertex 1.781353e+06 5.408134e+06 0.000000e+00
      vertex 1.783302e+06 5.408532e+06 -2.440271e+03
      vertex 1.782080e+06 5.407044e+06 -2.090429e+03
    endloop
  endfacet
  facet normal -7.223579e-01 4.757926e-01 -5.018172e-01
    outer loop
      vertex 1.782481e+06 5.409846e+06 0.000000e+00
      vertex 1.783609e+06 5.411557e+06 0.000000e+00
      vertex 1.784527e+06 5.410016e+06 -2.782388e+03
    endloop
  endfacet
  facet normal -7.209754e-01 4.791666e-01 -5.005935e-01
    outer loop
      vertex 1.782481e+06 5.409846e+06 0.000000e+00
      vertex 1.784527e+06 5.410016e+06 -2.782388e+03
      vertex 1.783302e+06 5.408532e+06 -2.440271e+03
    endloop
  endfacet
  facet normal -7.142569e-01 4.883191e-01 -5.013795e-01
    outer loop
      vertex 1.783609e+06 5.411557e+06 0.000000e+00
      vertex 1.784766e+06 5.413249e+06 0.000000e+00
      vertex 1.784873e+06 5.411848e+06 -1.518488e+03
    endloop
  endfacet
  facet normal -7.102271e-01 4.963825e-01 -4.991811e-01
    outer loop
      vertex 1.784766e+06 5.413249e+06 0.000000e+00
      vertex 1.785940e+06 5.414930e+06 0.000000e+00
      vertex 1.785937e+06 5.413249e+06 -1.666392e+03
    endloop
  endfacet
  facet normal -7.090528e-01 4.983153e-01 -4.989248e-01
    outer loop
      vertex 1.785940e+06 5.414930e+06 0.000000e+00
      vertex 1.787118e+06 5.416606e+06 0.000000e+00
      vertex 1.787151e+06 5.414815e+06 -1.835548e+03
    endloop
  endfacet
  facet normal -7.099499e-01 4.980065e-01 -4.979565e-01
    outer loop
      vertex 1.787118e+06 5.416606e+06 0.000000e+00
      vertex 1.788296e+06 5.418284e+06 0.000000e+00
      vertex 1.788493e+06 5.416528e+06 -2.038091e+03
    endloop
  endfacet
  facet normal -7.056734e-01 5.049248e-01 -4.970675e-01
    outer loop
      vertex 1.788296e+06 5.418284e+06 0.000000e+00
      vertex 1.789488e+06 5.419952e+06 0.000000e+00
      vertex 1.789582e+06 5.418507e+06 -1.599806e+03
    endloop
  endfacet
  facet normal -7.011592e-01 5.094060e-01 -4.988802e-01
    outer loop
      vertex 1.789488e+06 5.419952e+06 0.000000e+00
      vertex 1.790693e+06 5.421610e+06 0.000000e+00
      vertex 1.790768e+06 5.420154e+06 -1.591677e+03
    endloop
  endfacet
  facet normal -7.009481e-01 5.092721e-01 -4.993133e-01
    outer loop
      vertex 1.790693e+06 5.421610e+06 0.000000e+00
      vertex 1.791898e+06 5.423268e+06 0.000000e+00
      vertex 1.791956e+06 5.421740e+06 -1.639604e+03
    endloop
  endfacet
  facet normal -7.005316e-01 5.166136e-01 -4.923067e-01
    outer loop
      vertex 1.791898e+06 5.423268e+06 0.000000e+00
      vertex 1.793114e+06 5.424918e+06 0.000000e+00
      vertex 1.793119e+06 5.423317e+06 -1.685872e+03
    endloop
  endfacet
  facet normal -6.064822e-01 6.327885e-01 -4.814126e-01
    outer loop
      vertex 1.793114e+06 5.424918e+06 0.000000e+00
      vertex 1.794593e+06 5.426335e+06 0.000000e+00
      vertex 1.794351e+06 5.424775e+06 -1.745397e+03
    endloop
  endfacet
  facet normal -5.768895e-01 6.523436e-01 -4.915754e-01
    outer loop
      vertex 1.794593e+06 5.426335e+06 0.000000e+00
      vertex 1.796129e+06 5.427692e+06 0.000000e+00
      vertex 1.795858e+06 5.425892e+06 -2.071951e+03
    endloop
  endfacet
  facet normal -5.810210e-01 6.491221e-01 -4.909737e-01
    outer loop
      vertex 1.798371e+06 5.426178e+06 -4.656820e+03
      vertex 1.796920e+06 5.424870e+06 -4.669976e+03
      vertex 1.797400e+06 5.426829e+06 -2.647670e+03
    endloop
  endfacet
  facet normal -5.875823e-01 6.332655e-01 -5.037080e-01
    outer loop
      vertex 1.796920e+06 5.424870e+06 -4.669976e+03
      vertex 1.795642e+06 5.423428e+06 -4.993226e+03
      vertex 1.795436e+06 5.424514e+06 -3.387581e+03
    endloop
  endfacet
  facet normal -6.784908e-01 5.280262e-01 -5.107237e-01
    outer loop
      vertex 1.795642e+06 5.423428e+06 -4.993226e+03
      vertex 1.794466e+06 5.421864e+06 -5.047035e+03
      vertex 1.794324e+06 5.423290e+06 -3.385021e+03
    endloop
  endfacet
  facet normal -7.010343e-01 5.101055e-01 -4.983406e-01
    outer loop
      vertex 1.794466e+06 5.421864e+06 -5.047035e+03
      vertex 1.793294e+06 5.420296e+06 -5.002741e+03
      vertex 1.793199e+06 5.421794e+06 -3.336675e+03
    endloop
  endfacet
  facet normal -7.017640e-01 5.097608e-01 -4.976657e-01
    outer loop
      vertex 1.793294e+06 5.420296e+06 -5.002741e+03
      vertex 1.792044e+06 5.418815e+06 -4.757594e+03
      vertex 1.792031e+06 5.420276e+06 -3.243766e+03
    endloop
  endfacet
  facet normal -7.019922e-01 5.096901e-01 -4.974164e-01
    outer loop
      vertex 1.792044e+06 5.418815e+06 -4.757594e+03
      vertex 1.790772e+06 5.417360e+06 -4.453762e+03
      vertex 1.790851e+06 5.418781e+06 -3.109301e+03
    endloop
  endfacet
  facet normal -7.098963e-01 4.968192e-01 -4.992173e-01
    outer loop
      vertex 1.790772e+06 5.417360e+06 -4.453762e+03
      vertex 1.789520e+06 5.415889e+06 -4.136335e+03
      vertex 1.789807e+06 5.417392e+06 -3.049831e+03
    endloop
  endfacet
  facet normal -7.113814e-01 4.951107e-01 -4.988005e-01
    outer loop
      vertex 1.789520e+06 5.415889e+06 -4.136335e+03
      vertex 1.788271e+06 5.414419e+06 -3.815645e+03
      vertex 1.788493e+06 5.416528e+06 -2.038091e+03
    endloop
  endfacet
  facet normal -7.101941e-01 4.947789e-01 -5.008175e-01
    outer loop
      vertex 1.788271e+06 5.414419e+06 -3.815645e+03
      vertex 1.787015e+06 5.412957e+06 -3.477362e+03
      vertex 1.787151e+06 5.414815e+06 -1.835548e+03
    endloop
  endfacet
  facet normal -7.092246e-01 4.963948e-01 -5.005923e-01
    outer loop
      vertex 1.788271e+06 5.414419e+06 -3.815645e+03
      vertex 1.787151e+06 5.414815e+06 -1.835548e+03
      vertex 1.788493e+06 5.416528e+06 -2.038091e+03
    endloop
  endfacet
  facet normal -7.102174e-01 4.974653e-01 -4.981159e-01
    outer loop
      vertex 1.788493e+06 5.416528e+06 -2.038091e+03
      vertex 1.787151e+06 5.414815e+06 -1.835548e+03
      vertex 1.787118e+06 5.416606e+06 0.000000e+00
    endloop
  endfacet
  facet normal -7.107144e-01 4.924545e-01 -5.023680e-01
    outer loop
      vertex 1.787015e+06 5.412957e+06 -3.477362e+03
      vertex 1.785762e+06 5.411492e+06 -3.141954e+03
      vertex 1.785937e+06 5.413249e+06 -1.666392e+03
    endloop
  endfacet
  facet normal -7.089404e-01 4.955670e-01 -5.018135e-01
    outer loop
      vertex 1.787015e+06 5.412957e+06 -3.477362e+03
      vertex 1.785937e+06 5.413249e+06 -1.666392e+03
      vertex 1.787151e+06 5.414815e+06 -1.835548e+03
    endloop
  endfacet
  facet normal -7.099284e-01 4.965944e-01 -4.993953e-01
    outer loop
      vertex 1.787151e+06 5.414815e+06 -1.835548e+03
      vertex 1.785937e+06 5.413249e+06 -1.666392e+03
      vertex 1.785940e+06 5.414930e+06 0.000000e+00
    endloop
  endfacet
  facet normal -7.202093e-01 4.811830e-01 -4.997615e-01
    outer loop
      vertex 1.785762e+06 5.411492e+06 -3.141954e+03
      vertex 1.784527e+06 5.410016e+06 -2.782388e+03
      vertex 1.784873e+06 5.411848e+06 -1.518488e+03
    endloop
  endfacet
  facet normal -7.160184e-01 4.831955e-01 -5.038251e-01
    outer loop
      vertex 1.784873e+06 5.411848e+06 -1.518488e+03
      vertex 1.784527e+06 5.410016e+06 -2.782388e+03
      vertex 1.783609e+06 5.411557e+06 0.000000e+00
    endloop
  endfacet
  facet normal -7.149803e-01 4.898909e-01 -4.988087e-01
    outer loop
      vertex 1.785762e+06 5.411492e+06 -3.141954e+03
      vertex 1.784873e+06 5.411848e+06 -1.518488e+03
      vertex 1.785937e+06 5.413249e+06 -1.666392e+03
    endloop
  endfacet
  facet normal -7.137918e-01 4.886855e-01 -5.016849e-01
    outer loop
      vertex 1.785937e+06 5.413249e+06 -1.666392e+03
      vertex 1.784873e+06 5.411848e+06 -1.518488e+03
      vertex 1.784766e+06 5.413249e+06 0.000000e+00
    endloop
  endfacet
  facet normal -5.790745e-01 6.513029e-01 -4.903849e-01
    outer loop
      vertex 1.796129e+06 5.427692e+06 0.000000e+00
      vertex 1.797400e+06 5.426829e+06 -2.647670e+03
      vertex 1.795858e+06 5.425892e+06 -2.071951e+03
    endloop
  endfacet
  facet normal -7.076448e-01 4.998852e-01 -4.993532e-01
    outer loop
      vertex 1.788493e+06 5.416528e+06 -2.038091e+03
      vertex 1.788296e+06 5.418284e+06 0.000000e+00
      vertex 1.789582e+06 5.418507e+06 -1.599806e+03
    endloop
  endfacet
  facet normal -7.017570e-01 5.079257e-01 -4.995485e-01
    outer loop
      vertex 1.789582e+06 5.418507e+06 -1.599806e+03
      vertex 1.789488e+06 5.419952e+06 0.000000e+00
      vertex 1.790768e+06 5.420154e+06 -1.591677e+03
    endloop
  endfacet
  facet normal -7.007610e-01 5.097045e-01 -4.991347e-01
    outer loop
      vertex 1.790768e+06 5.420154e+06 -1.591677e+03
      vertex 1.790693e+06 5.421610e+06 0.000000e+00
      vertex 1.791956e+06 5.421740e+06 -1.639604e+03
    endloop
  endfacet
  facet normal -7.055782e-01 5.058358e-01 -4.962758e-01
    outer loop
      vertex 1.791956e+06 5.421740e+06 -1.639604e+03
      vertex 1.791898e+06 5.423268e+06 0.000000e+00
      vertex 1.793119e+06 5.423317e+06 -1.685872e+03
    endloop
  endfacet
  facet normal -6.648045e-01 5.408838e-01 -5.152472e-01
    outer loop
      vertex 1.793119e+06 5.423317e+06 -1.685872e+03
      vertex 1.793114e+06 5.424918e+06 0.000000e+00
      vertex 1.794351e+06 5.424775e+06 -1.745397e+03
    endloop
  endfacet
  facet normal -5.842820e-01 6.436958e-01 -4.942371e-01
    outer loop
      vertex 1.794351e+06 5.424775e+06 -1.745397e+03
      vertex 1.794593e+06 5.426335e+06 0.000000e+00
      vertex 1.795858e+06 5.425892e+06 -2.071951e+03
    endloop
  endfacet
  facet normal -5.789692e-01 6.499668e-01 -4.922782e-01
    outer loop
      vertex 1.797400e+06 5.426829e+06 -2.647670e+03
      vertex 1.796920e+06 5.424870e+06 -4.669976e+03
      vertex 1.795858e+06 5.425892e+06 -2.071951e+03
    endloop
  endfacet
  facet normal -6.492388e-01 5.887380e-01 -4.815356e-01
    outer loop
      vertex 1.795436e+06 5.424514e+06 -3.387581e+03
      vertex 1.795642e+06 5.423428e+06 -4.993226e+03
      vertex 1.794324e+06 5.423290e+06 -3.385021e+03
    endloop
  endfacet
  facet normal -6.362662e-01 5.768900e-01 -5.122140e-01
    outer loop
      vertex 1.795436e+06 5.424514e+06 -3.387581e+03
      vertex 1.794324e+06 5.423290e+06 -3.385021e+03
      vertex 1.794351e+06 5.424775e+06 -1.745397e+03
    endloop
  endfacet
  facet normal -5.852498e-01 6.463591e-01 -4.895944e-01
    outer loop
      vertex 1.795436e+06 5.424514e+06 -3.387581e+03
      vertex 1.794351e+06 5.424775e+06 -1.745397e+03
      vertex 1.795858e+06 5.425892e+06 -2.071951e+03
    endloop
  endfacet
  facet normal -5.812953e-01 6.478090e-01 -4.923812e-01
    outer loop
      vertex 1.795436e+06 5.424514e+06 -3.387581e+03
      vertex 1.795858e+06 5.425892e+06 -2.071951e+03
      vertex 1.796920e+06 5.424870e+06 -4.669976e+03
    endloop
  endfacet
  facet normal -7.006299e-01 5.109888e-01 -4.980042e-01
    outer loop
      vertex 1.794324e+06 5.423290e+06 -3.385021e+03
      vertex 1.794466e+06 5.421864e+06 -5.047035e+03
      vertex 1.793199e+06 5.421794e+06 -3.336675e+03
    endloop
  endfacet
  facet normal -7.019220e-01 5.094286e-01 -4.977831e-01
    outer loop
      vertex 1.793199e+06 5.421794e+06 -3.336675e+03
      vertex 1.793294e+06 5.420296e+06 -5.002741e+03
      vertex 1.792031e+06 5.420276e+06 -3.243766e+03
    endloop
  endfacet
  facet normal -7.018178e-01 5.093336e-01 -4.980272e-01
    outer loop
      vertex 1.793199e+06 5.421794e+06 -3.336675e+03
      vertex 1.792031e+06 5.420276e+06 -3.243766e+03
      vertex 1.791956e+06 5.421740e+06 -1.639604e+03
    endloop
  endfacet
  facet normal -7.020573e-01 5.095515e-01 -4.974664e-01
    outer loop
      vertex 1.792031e+06 5.420276e+06 -3.243766e+03
      vertex 1.792044e+06 5.418815e+06 -4.757594e+03
      vertex 1.790851e+06 5.418781e+06 -3.109301e+03
    endloop
  endfacet
  facet normal -7.043459e-01 5.081552e-01 -4.956561e-01
    outer loop
      vertex 1.790851e+06 5.418781e+06 -3.109301e+03
      vertex 1.790772e+06 5.417360e+06 -4.453762e+03
      vertex 1.789807e+06 5.417392e+06 -3.049831e+03
    endloop
  endfacet
  facet normal -7.103839e-01 4.965817e-01 -4.987598e-01
    outer loop
      vertex 1.789807e+06 5.417392e+06 -3.049831e+03
      vertex 1.789520e+06 5.415889e+06 -4.136335e+03
      vertex 1.788493e+06 5.416528e+06 -2.038091e+03
    endloop
  endfacet
  facet normal -7.101773e-01 5.003710e-01 -4.952545e-01
    outer loop
      vertex 1.789807e+06 5.417392e+06 -3.049831e+03
      vertex 1.788493e+06 5.416528e+06 -2.038091e+03
      vertex 1.789582e+06 5.418507e+06 -1.599806e+03
    endloop
  endfacet
  facet normal -7.028318e-01 5.068694e-01 -4.991101e-01
    outer loop
      vertex 1.789807e+06 5.417392e+06 -3.049831e+03
      vertex 1.789582e+06 5.418507e+06 -1.599806e+03
      vertex 1.790851e+06 5.418781e+06 -3.109301e+03
    endloop
  endfacet
  facet normal -7.022968e-01 5.083089e-01 -4.983987e-01
    outer loop
      vertex 1.789582e+06 5.418507e+06 -1.599806e+03
      vertex 1.790768e+06 5.420154e+06 -1.591677e+03
      vertex 1.790851e+06 5.418781e+06 -3.109301e+03
    endloop
  endfacet
  facet normal -7.014578e-01 5.089466e-01 -4.989291e-01
    outer loop
      vertex 1.790851e+06 5.418781e+06 -3.109301e+03
      vertex 1.790768e+06 5.420154e+06 -1.591677e+03
      vertex 1.792031e+06 5.420276e+06 -3.243766e+03
    endloop
  endfacet
  facet normal -7.010308e-01 5.099248e-01 -4.985304e-01
    outer loop
      vertex 1.792031e+06 5.420276e+06 -3.243766e+03
      vertex 1.790768e+06 5.420154e+06 -1.591677e+03
      vertex 1.791956e+06 5.421740e+06 -1.639604e+03
    endloop
  endfacet
  facet normal -7.040071e-01 5.045742e-01 -4.997789e-01
    outer loop
      vertex 1.791956e+06 5.421740e+06 -1.639604e+03
      vertex 1.793119e+06 5.423317e+06 -1.685872e+03
      vertex 1.793199e+06 5.421794e+06 -3.336675e+03
    endloop
  endfacet
  facet normal -6.981568e-01 5.089497e-01 -5.035348e-01
    outer loop
      vertex 1.793199e+06 5.421794e+06 -3.336675e+03
      vertex 1.793119e+06 5.423317e+06 -1.685872e+03
      vertex 1.794324e+06 5.423290e+06 -3.385021e+03
    endloop
  endfacet
  facet normal -6.761023e-01 5.515221e-01 -4.885785e-01
    outer loop
      vertex 1.794324e+06 5.423290e+06 -3.385021e+03
      vertex 1.793119e+06 5.423317e+06 -1.685872e+03
      vertex 1.794351e+06 5.424775e+06 -1.745397e+03
    endloop
  endfacet
endsolid Surface 1
