solid Surface 1
  facet normal -7.436726e-01 4.757469e-01 4.696978e-01
    outer loop
      vertex 1.754114e+06 5.427026e+06 -1.257593e+04
      vertex 1.755077e+06 5.428465e+06 -1.250738e+04
      vertex 1.754058e+06 5.428124e+06 -1.377475e+04
    endloop
  endfacet
  facet normal -7.629767e-01 4.041553e-01 5.045047e-01
    outer loop
      vertex 1.754058e+06 5.428124e+06 -1.377475e+04
      vertex 1.755077e+06 5.428465e+06 -1.250738e+04
      vertex 1.755362e+06 5.429266e+06 -1.271872e+04
    endloop
  endfacet
  facet normal -7.102665e-01 5.026730e-01 4.927894e-01
    outer loop
      vertex 1.754114e+06 5.427026e+06 -1.257593e+04
      vertex 1.754058e+06 5.428124e+06 -1.377475e+04
      vertex 1.752642e+06 5.427127e+06 -1.479924e+04
    endloop
  endfacet
  facet normal -7.650616e-01 4.040764e-01 5.014010e-01
    outer loop
      vertex 1.755362e+06 5.429266e+06 -1.271872e+04
      vertex 1.755077e+06 5.428465e+06 -1.250738e+04
      vertex 1.755935e+06 5.428614e+06 -1.131935e+04
    endloop
  endfacet
  facet normal -7.467666e-01 4.589967e-01 4.813124e-01
    outer loop
      vertex 1.755935e+06 5.428614e+06 -1.131935e+04
      vertex 1.755077e+06 5.428465e+06 -1.250738e+04
      vertex 1.754556e+06 5.426792e+06 -1.172067e+04
    endloop
  endfacet
  facet normal -7.684406e-01 3.989026e-01 5.003756e-01
    outer loop
      vertex 1.755362e+06 5.429266e+06 -1.271872e+04
      vertex 1.755935e+06 5.428614e+06 -1.131935e+04
      vertex 1.756653e+06 5.430390e+06 -1.163213e+04
    endloop
  endfacet
  facet normal -7.695926e-01 3.990371e-01 4.984943e-01
    outer loop
      vertex 1.756653e+06 5.430390e+06 -1.163213e+04
      vertex 1.755935e+06 5.428614e+06 -1.131935e+04
      vertex 1.757278e+06 5.429648e+06 -1.007224e+04
    endloop
  endfacet
  facet normal -7.602541e-01 4.147716e-01 4.999782e-01
    outer loop
      vertex 1.769433e+06 5.443122e+06 -2.595389e+03
      vertex 1.768160e+06 5.441796e+06 -3.432263e+03
      vertex 1.769286e+06 5.441632e+06 -1.583459e+03
    endloop
  endfacet
  facet normal -8.020391e-01 3.418934e-01 4.897369e-01
    outer loop
      vertex 1.768160e+06 5.441796e+06 -3.432263e+03
      vertex 1.766990e+06 5.440488e+06 -4.435048e+03
      vertex 1.768261e+06 5.440042e+06 -2.041280e+03
    endloop
  endfacet
  facet normal -8.478643e-01 2.342396e-01 4.756658e-01
    outer loop
      vertex 1.766990e+06 5.440488e+06 -4.435048e+03
      vertex 1.765952e+06 5.439292e+06 -5.697297e+03
      vertex 1.767000e+06 5.438445e+06 -3.410704e+03
    endloop
  endfacet
  facet normal -7.230799e-01 4.736806e-01 5.027745e-01
    outer loop
      vertex 1.765952e+06 5.439292e+06 -5.697297e+03
      vertex 1.764584e+06 5.438020e+06 -6.464684e+03
      vertex 1.765483e+06 5.437472e+06 -4.655764e+03
    endloop
  endfacet
  facet normal -7.385654e-01 4.526613e-01 4.996186e-01
    outer loop
      vertex 1.764584e+06 5.438020e+06 -6.464684e+03
      vertex 1.763253e+06 5.436702e+06 -7.238559e+03
      vertex 1.764147e+06 5.436237e+06 -5.496001e+03
    endloop
  endfacet
  facet normal -7.704047e-01 3.950350e-01 5.004238e-01
    outer loop
      vertex 1.763253e+06 5.436702e+06 -7.238559e+03
      vertex 1.761989e+06 5.435418e+06 -8.170473e+03
      vertex 1.762894e+06 5.434886e+06 -6.358142e+03
    endloop
  endfacet
  facet normal -7.706465e-01 3.953803e-01 4.997784e-01
    outer loop
      vertex 1.761989e+06 5.435418e+06 -8.170473e+03
      vertex 1.760729e+06 5.434112e+06 -9.081840e+03
      vertex 1.761617e+06 5.433512e+06 -7.236358e+03
    endloop
  endfacet
  facet normal -7.452341e-01 4.467805e-01 4.949881e-01
    outer loop
      vertex 1.760729e+06 5.434112e+06 -9.081840e+03
      vertex 1.759406e+06 5.432818e+06 -9.905426e+03
      vertex 1.760224e+06 5.432194e+06 -8.108621e+03
    endloop
  endfacet
  facet normal -7.120502e-01 4.966759e-01 4.962837e-01
    outer loop
      vertex 1.759406e+06 5.432818e+06 -9.905426e+03
      vertex 1.758004e+06 5.431552e+06 -1.064896e+04
      vertex 1.758722e+06 5.430930e+06 -8.996322e+03
    endloop
  endfacet
  facet normal -7.438092e-01 4.366519e-01 5.060465e-01
    outer loop
      vertex 1.758004e+06 5.431552e+06 -1.064896e+04
      vertex 1.756653e+06 5.430390e+06 -1.163213e+04
      vertex 1.757278e+06 5.429648e+06 -1.007224e+04
    endloop
  endfacet
  facet normal -8.045998e-01 2.773046e-01 5.250917e-01
    outer loop
      vertex 1.752642e+06 5.427127e+06 -1.479924e+04
      vertex 1.751450e+06 5.426496e+06 -1.629259e+04
      vertex 1.752088e+06 5.425382e+06 -1.472656e+04
    endloop
  endfacet
  facet normal -8.453555e-01 2.585557e-01 4.674646e-01
    outer loop
      vertex 1.751450e+06 5.426496e+06 -1.629259e+04
      vertex 1.750378e+06 5.425847e+06 -1.787376e+04
      vertex 1.750972e+06 5.424366e+06 -1.598016e+04
    endloop
  endfacet
  facet normal -8.058195e-01 3.399832e-01 4.848365e-01
    outer loop
      vertex 1.750378e+06 5.425847e+06 -1.787376e+04
      vertex 1.749203e+06 5.424645e+06 -1.898323e+04
      vertex 1.749631e+06 5.422708e+06 -1.691398e+04
    endloop
  endfacet
  facet normal -7.885476e-01 3.591478e-01 4.992050e-01
    outer loop
      vertex 1.749631e+06 5.422708e+06 -1.691398e+04
      vertex 1.749203e+06 5.424645e+06 -1.898323e+04
      vertex 1.748797e+06 5.423157e+06 -1.855345e+04
    endloop
  endfacet
  facet normal -7.887560e-01 3.591160e-01 4.988984e-01
    outer loop
      vertex 1.748797e+06 5.423157e+06 -1.855345e+04
      vertex 1.749203e+06 5.424645e+06 -1.898323e+04
      vertex 1.747965e+06 5.423606e+06 -2.019324e+04
    endloop
  endfacet
  facet normal -7.895352e-01 3.577298e-01 4.986618e-01
    outer loop
      vertex 1.749631e+06 5.422708e+06 -1.691398e+04
      vertex 1.750463e+06 5.422259e+06 -1.527397e+04
      vertex 1.750972e+06 5.424366e+06 -1.598016e+04
    endloop
  endfacet
  facet normal -7.846732e-01 3.443230e-01 5.154897e-01
    outer loop
      vertex 1.749631e+06 5.422708e+06 -1.691398e+04
      vertex 1.750972e+06 5.424366e+06 -1.598016e+04
      vertex 1.750378e+06 5.425847e+06 -1.787376e+04
    endloop
  endfacet
  facet normal -7.893821e-01 3.576402e-01 4.989683e-01
    outer loop
      vertex 1.750463e+06 5.422259e+06 -1.527397e+04
      vertex 1.751296e+06 5.421810e+06 -1.363430e+04
      vertex 1.751832e+06 5.423706e+06 -1.414588e+04
    endloop
  endfacet
  facet normal -7.892924e-01 3.576795e-01 4.990820e-01
    outer loop
      vertex 1.751296e+06 5.421810e+06 -1.363430e+04
      vertex 1.752129e+06 5.421360e+06 -1.199475e+04
      vertex 1.752665e+06 5.423269e+06 -1.251501e+04
    endloop
  endfacet
  facet normal -8.226501e-01 2.793855e-01 4.951672e-01
    outer loop
      vertex 1.752665e+06 5.423269e+06 -1.251501e+04
      vertex 1.753230e+06 5.425210e+06 -1.267113e+04
      vertex 1.751832e+06 5.423706e+06 -1.414588e+04
    endloop
  endfacet
  facet normal -7.892866e-01 3.576517e-01 4.991111e-01
    outer loop
      vertex 1.752665e+06 5.423269e+06 -1.251501e+04
      vertex 1.751832e+06 5.423706e+06 -1.414588e+04
      vertex 1.751296e+06 5.421810e+06 -1.363430e+04
    endloop
  endfacet
  facet normal -7.741368e-01 3.489932e-01 5.281250e-01
    outer loop
      vertex 1.753230e+06 5.425210e+06 -1.267113e+04
      vertex 1.754114e+06 5.427026e+06 -1.257593e+04
      vertex 1.752642e+06 5.427127e+06 -1.479924e+04
    endloop
  endfacet
  facet normal -8.160792e-01 3.746005e-01 4.401014e-01
    outer loop
      vertex 1.754556e+06 5.426792e+06 -1.172067e+04
      vertex 1.753666e+06 5.424978e+06 -1.182615e+04
      vertex 1.754963e+06 5.425670e+06 -1.001242e+04
    endloop
  endfacet
  facet normal -8.103386e-01 2.813325e-01 5.140072e-01
    outer loop
      vertex 1.753666e+06 5.424978e+06 -1.182615e+04
      vertex 1.753116e+06 5.423032e+06 -1.162938e+04
      vertex 1.754272e+06 5.424020e+06 -1.034647e+04
    endloop
  endfacet
  facet normal -7.890076e-01 3.568633e-01 5.001156e-01
    outer loop
      vertex 1.753116e+06 5.423032e+06 -1.162938e+04
      vertex 1.752570e+06 5.421123e+06 -1.112835e+04
      vertex 1.753990e+06 5.422432e+06 -9.821872e+03
    endloop
  endfacet
  facet normal -7.893390e-01 3.567560e-01 4.996689e-01
    outer loop
      vertex 1.758227e+06 5.418072e+06 0.000000e+00
      vertex 1.759037e+06 5.419866e+06 0.000000e+00
      vertex 1.757283e+06 5.418582e+06 -1.854133e+03
    endloop
  endfacet
  facet normal -8.313682e-01 2.857910e-01 4.766030e-01
    outer loop
      vertex 1.759037e+06 5.419866e+06 0.000000e+00
      vertex 1.759676e+06 5.421722e+06 0.000000e+00
      vertex 1.758457e+06 5.420878e+06 -1.619082e+03
    endloop
  endfacet
  facet normal -7.608777e-01 3.337774e-01 5.564691e-01
    outer loop
      vertex 1.759676e+06 5.421722e+06 0.000000e+00
      vertex 1.760457e+06 5.423504e+06 0.000000e+00
      vertex 1.759103e+06 5.422944e+06 -1.514981e+03
    endloop
  endfacet
  facet normal -7.412819e-01 4.662815e-01 4.827863e-01
    outer loop
      vertex 1.760457e+06 5.423504e+06 0.000000e+00
      vertex 1.761503e+06 5.425166e+06 0.000000e+00
      vertex 1.760163e+06 5.424711e+06 -1.616363e+03
    endloop
  endfacet
  facet normal -7.686982e-01 3.989020e-01 4.999802e-01
    outer loop
      vertex 1.761503e+06 5.425166e+06 0.000000e+00
      vertex 1.762409e+06 5.426914e+06 0.000000e+00
      vertex 1.761144e+06 5.426506e+06 -1.620257e+03
    endloop
  endfacet
  facet normal -7.421898e-01 4.304784e-01 5.136562e-01
    outer loop
      vertex 1.762409e+06 5.426914e+06 0.000000e+00
      vertex 1.763396e+06 5.428615e+06 0.000000e+00
      vertex 1.762100e+06 5.428256e+06 -1.572471e+03
    endloop
  endfacet
  facet normal -7.115328e-01 4.962064e-01 4.974940e-01
    outer loop
      vertex 1.763396e+06 5.428615e+06 0.000000e+00
      vertex 1.764522e+06 5.430230e+06 0.000000e+00
      vertex 1.763204e+06 5.429850e+06 -1.507178e+03
    endloop
  endfacet
  facet normal -7.567273e-01 4.357239e-01 4.873484e-01
    outer loop
      vertex 1.764522e+06 5.430230e+06 0.000000e+00
      vertex 1.765503e+06 5.431934e+06 0.000000e+00
      vertex 1.764228e+06 5.431485e+06 -1.578406e+03
    endloop
  endfacet
  facet normal -7.708520e-01 3.955742e-01 4.993078e-01
    outer loop
      vertex 1.765503e+06 5.431934e+06 0.000000e+00
      vertex 1.766402e+06 5.433684e+06 0.000000e+00
      vertex 1.765094e+06 5.433190e+06 -1.627370e+03
    endloop
  endfacet
  facet normal -7.628531e-01 4.030511e-01 5.055739e-01
    outer loop
      vertex 1.766402e+06 5.433684e+06 0.000000e+00
      vertex 1.767321e+06 5.435424e+06 0.000000e+00
      vertex 1.765971e+06 5.435126e+06 -1.799460e+03
    endloop
  endfacet
  facet normal -7.017230e-01 5.019568e-01 5.055929e-01
    outer loop
      vertex 1.767321e+06 5.435424e+06 0.000000e+00
      vertex 1.768465e+06 5.437024e+06 0.000000e+00
      vertex 1.767155e+06 5.436830e+06 -1.625779e+03
    endloop
  endfacet
  facet normal -8.358755e-01 3.201969e-01 4.458543e-01
    outer loop
      vertex 1.768465e+06 5.437024e+06 0.000000e+00
      vertex 1.769160e+06 5.438838e+06 0.000000e+00
      vertex 1.768114e+06 5.438226e+06 -1.520861e+03
    endloop
  endfacet
  facet normal -8.035622e-01 2.856371e-01 5.222062e-01
    outer loop
      vertex 1.769160e+06 5.438838e+06 0.000000e+00
      vertex 1.769814e+06 5.440680e+06 0.000000e+00
      vertex 1.768261e+06 5.440042e+06 -2.041280e+03
    endloop
  endfacet
  facet normal -7.596446e-01 4.132743e-01 5.021399e-01
    outer loop
      vertex 1.769814e+06 5.440680e+06 0.000000e+00
      vertex 1.770755e+06 5.442408e+06 0.000000e+00
      vertex 1.769286e+06 5.441632e+06 -1.583459e+03
    endloop
  endfacet
  facet normal -7.593656e-01 4.153019e-01 5.008874e-01
    outer loop
      vertex 1.769286e+06 5.441632e+06 -1.583459e+03
      vertex 1.770755e+06 5.442408e+06 0.000000e+00
      vertex 1.769433e+06 5.443122e+06 -2.595389e+03
    endloop
  endfacet
  facet normal -7.914259e-01 3.699057e-01 4.866363e-01
    outer loop
      vertex 1.769814e+06 5.440680e+06 0.000000e+00
      vertex 1.769286e+06 5.441632e+06 -1.583459e+03
      vertex 1.768261e+06 5.440042e+06 -2.041280e+03
    endloop
  endfacet
  facet normal -7.829207e-01 3.580624e-01 5.087500e-01
    outer loop
      vertex 1.768261e+06 5.440042e+06 -2.041280e+03
      vertex 1.769286e+06 5.441632e+06 -1.583459e+03
      vertex 1.768160e+06 5.441796e+06 -3.432263e+03
    endloop
  endfacet
  facet normal -7.695906e-01 3.988415e-01 4.986541e-01
    outer loop
      vertex 1.757278e+06 5.429648e+06 -1.007224e+04
      vertex 1.755935e+06 5.428614e+06 -1.131935e+04
      vertex 1.756392e+06 5.427504e+06 -9.725504e+03
    endloop
  endfacet
  facet normal -8.376825e-01 2.414245e-01 4.899001e-01
    outer loop
      vertex 1.768261e+06 5.440042e+06 -2.041280e+03
      vertex 1.766990e+06 5.440488e+06 -4.435048e+03
      vertex 1.767000e+06 5.438445e+06 -3.410704e+03
    endloop
  endfacet
  facet normal -7.199395e-01 4.748254e-01 5.061897e-01
    outer loop
      vertex 1.767000e+06 5.438445e+06 -3.410704e+03
      vertex 1.765952e+06 5.439292e+06 -5.697297e+03
      vertex 1.765483e+06 5.437472e+06 -4.655764e+03
    endloop
  endfacet
  facet normal -7.191074e-01 4.871994e-01 4.955010e-01
    outer loop
      vertex 1.767000e+06 5.438445e+06 -3.410704e+03
      vertex 1.765483e+06 5.437472e+06 -4.655764e+03
      vertex 1.766119e+06 5.436747e+06 -3.019821e+03
    endloop
  endfacet
  facet normal -7.356179e-01 4.537557e-01 5.029632e-01
    outer loop
      vertex 1.765483e+06 5.437472e+06 -4.655764e+03
      vertex 1.764584e+06 5.438020e+06 -6.464684e+03
      vertex 1.764147e+06 5.436237e+06 -5.496001e+03
    endloop
  endfacet
  facet normal -7.703235e-01 3.950672e-01 5.005234e-01
    outer loop
      vertex 1.764147e+06 5.436237e+06 -5.496001e+03
      vertex 1.763253e+06 5.436702e+06 -7.238559e+03
      vertex 1.762894e+06 5.434886e+06 -6.358142e+03
    endloop
  endfacet
  facet normal -7.701049e-01 3.955988e-01 5.004399e-01
    outer loop
      vertex 1.762894e+06 5.434886e+06 -6.358142e+03
      vertex 1.761989e+06 5.435418e+06 -8.170473e+03
      vertex 1.761617e+06 5.433512e+06 -7.236358e+03
    endloop
  endfacet
  facet normal -7.392578e-01 4.488019e-01 5.020705e-01
    outer loop
      vertex 1.761617e+06 5.433512e+06 -7.236358e+03
      vertex 1.760729e+06 5.434112e+06 -9.081840e+03
      vertex 1.760224e+06 5.432194e+06 -8.108621e+03
    endloop
  endfacet
  facet normal -7.114525e-01 4.968080e-01 4.970082e-01
    outer loop
      vertex 1.760224e+06 5.432194e+06 -8.108621e+03
      vertex 1.759406e+06 5.432818e+06 -9.905426e+03
      vertex 1.758722e+06 5.430930e+06 -8.996322e+03
    endloop
  endfacet
  facet normal -7.537826e-01 4.360714e-01 4.915827e-01
    outer loop
      vertex 1.758722e+06 5.430930e+06 -8.996322e+03
      vertex 1.758004e+06 5.431552e+06 -1.064896e+04
      vertex 1.757278e+06 5.429648e+06 -1.007224e+04
    endloop
  endfacet
  facet normal -8.159299e-01 2.591794e-01 5.168021e-01
    outer loop
      vertex 1.752088e+06 5.425382e+06 -1.472656e+04
      vertex 1.751450e+06 5.426496e+06 -1.629259e+04
      vertex 1.750972e+06 5.424366e+06 -1.598016e+04
    endloop
  endfacet
  facet normal -8.281937e-01 2.830713e-01 4.837002e-01
    outer loop
      vertex 1.752642e+06 5.427127e+06 -1.479924e+04
      vertex 1.752088e+06 5.425382e+06 -1.472656e+04
      vertex 1.753230e+06 5.425210e+06 -1.267113e+04
    endloop
  endfacet
  facet normal -7.894063e-01 3.577599e-01 4.988442e-01
    outer loop
      vertex 1.750463e+06 5.422259e+06 -1.527397e+04
      vertex 1.751832e+06 5.423706e+06 -1.414588e+04
      vertex 1.750972e+06 5.424366e+06 -1.598016e+04
    endloop
  endfacet
  facet normal -8.196823e-01 2.955917e-01 4.906592e-01
    outer loop
      vertex 1.750972e+06 5.424366e+06 -1.598016e+04
      vertex 1.751832e+06 5.423706e+06 -1.414588e+04
      vertex 1.752088e+06 5.425382e+06 -1.472656e+04
    endloop
  endfacet
  facet normal -8.250085e-01 2.936879e-01 4.828131e-01
    outer loop
      vertex 1.752088e+06 5.425382e+06 -1.472656e+04
      vertex 1.751832e+06 5.423706e+06 -1.414588e+04
      vertex 1.753230e+06 5.425210e+06 -1.267113e+04
    endloop
  endfacet
  facet normal -8.305718e-01 2.461909e-01 4.995403e-01
    outer loop
      vertex 1.754963e+06 5.425670e+06 -1.001242e+04
      vertex 1.753666e+06 5.424978e+06 -1.182615e+04
      vertex 1.754272e+06 5.424020e+06 -1.034647e+04
    endloop
  endfacet
  facet normal -8.353046e-01 2.501879e-01 4.895634e-01
    outer loop
      vertex 1.754963e+06 5.425670e+06 -1.001242e+04
      vertex 1.754272e+06 5.424020e+06 -1.034647e+04
      vertex 1.755356e+06 5.423996e+06 -8.485201e+03
    endloop
  endfacet
  facet normal -7.225148e-01 4.864909e-01 4.912219e-01
    outer loop
      vertex 1.754556e+06 5.426792e+06 -1.172067e+04
      vertex 1.754963e+06 5.425670e+06 -1.001242e+04
      vertex 1.756392e+06 5.427504e+06 -9.725504e+03
    endloop
  endfacet
  facet normal -7.333568e-01 4.408811e-01 5.175052e-01
    outer loop
      vertex 1.754556e+06 5.426792e+06 -1.172067e+04
      vertex 1.756392e+06 5.427504e+06 -9.725504e+03
      vertex 1.755935e+06 5.428614e+06 -1.131935e+04
    endloop
  endfacet
  facet normal -8.123158e-01 3.081188e-01 4.951826e-01
    outer loop
      vertex 1.754272e+06 5.424020e+06 -1.034647e+04
      vertex 1.753116e+06 5.423032e+06 -1.162938e+04
      vertex 1.753990e+06 5.422432e+06 -9.821872e+03
    endloop
  endfacet
  facet normal -8.212083e-01 3.053615e-01 4.820491e-01
    outer loop
      vertex 1.754272e+06 5.424020e+06 -1.034647e+04
      vertex 1.753990e+06 5.422432e+06 -9.821872e+03
      vertex 1.755356e+06 5.423996e+06 -8.485201e+03
    endloop
  endfacet
  facet normal -7.890941e-01 3.576668e-01 4.994047e-01
    outer loop
      vertex 1.753990e+06 5.422432e+06 -9.821872e+03
      vertex 1.752570e+06 5.421123e+06 -1.112835e+04
      vertex 1.753513e+06 5.420614e+06 -9.273851e+03
    endloop
  endfacet
  facet normal -7.894810e-01 3.575985e-01 4.988418e-01
    outer loop
      vertex 1.753990e+06 5.422432e+06 -9.821872e+03
      vertex 1.753513e+06 5.420614e+06 -9.273851e+03
      vertex 1.754874e+06 5.421903e+06 -8.043946e+03
    endloop
  endfacet
  facet normal -8.315697e-01 2.347561e-01 5.033700e-01
    outer loop
      vertex 1.758457e+06 5.420878e+06 -1.619082e+03
      vertex 1.759676e+06 5.421722e+06 0.000000e+00
      vertex 1.759103e+06 5.422944e+06 -1.514981e+03
    endloop
  endfacet
  facet normal -7.893652e-01 3.520443e-01 5.029587e-01
    outer loop
      vertex 1.759037e+06 5.419866e+06 0.000000e+00
      vertex 1.758457e+06 5.420878e+06 -1.619082e+03
      vertex 1.757283e+06 5.418582e+06 -1.854133e+03
    endloop
  endfacet
  facet normal -7.373337e-01 4.702175e-01 4.850099e-01
    outer loop
      vertex 1.759103e+06 5.422944e+06 -1.514981e+03
      vertex 1.760457e+06 5.423504e+06 0.000000e+00
      vertex 1.760163e+06 5.424711e+06 -1.616363e+03
    endloop
  endfacet
  facet normal -7.549503e-01 4.134889e-01 5.089961e-01
    outer loop
      vertex 1.760163e+06 5.424711e+06 -1.616363e+03
      vertex 1.761503e+06 5.425166e+06 0.000000e+00
      vertex 1.761144e+06 5.426506e+06 -1.620257e+03
    endloop
  endfacet
  facet normal -7.671506e-01 4.053744e-01 4.971433e-01
    outer loop
      vertex 1.761144e+06 5.426506e+06 -1.620257e+03
      vertex 1.762409e+06 5.426914e+06 0.000000e+00
      vertex 1.762100e+06 5.428256e+06 -1.572471e+03
    endloop
  endfacet
  facet normal -7.264777e-01 4.831347e-01 4.886829e-01
    outer loop
      vertex 1.762100e+06 5.428256e+06 -1.572471e+03
      vertex 1.763396e+06 5.428615e+06 0.000000e+00
      vertex 1.763204e+06 5.429850e+06 -1.507178e+03
    endloop
  endfacet
  facet normal -7.187971e-01 4.727505e-01 5.097427e-01
    outer loop
      vertex 1.763204e+06 5.429850e+06 -1.507178e+03
      vertex 1.764522e+06 5.430230e+06 0.000000e+00
      vertex 1.764228e+06 5.431485e+06 -1.578406e+03
    endloop
  endfacet
  facet normal -7.646727e-01 4.025993e-01 5.031794e-01
    outer loop
      vertex 1.764228e+06 5.431485e+06 -1.578406e+03
      vertex 1.765503e+06 5.431934e+06 0.000000e+00
      vertex 1.765094e+06 5.433190e+06 -1.627370e+03
    endloop
  endfacet
  facet normal -7.712240e-01 3.937775e-01 5.001527e-01
    outer loop
      vertex 1.765094e+06 5.433190e+06 -1.627370e+03
      vertex 1.766402e+06 5.433684e+06 0.000000e+00
      vertex 1.765971e+06 5.435126e+06 -1.799460e+03
    endloop
  endfacet
  facet normal -7.426424e-01 4.672459e-01 4.797536e-01
    outer loop
      vertex 1.765971e+06 5.435126e+06 -1.799460e+03
      vertex 1.767321e+06 5.435424e+06 0.000000e+00
      vertex 1.767155e+06 5.436830e+06 -1.625779e+03
    endloop
  endfacet
  facet normal -7.192387e-01 4.546723e-01 5.253273e-01
    outer loop
      vertex 1.767155e+06 5.436830e+06 -1.625779e+03
      vertex 1.768465e+06 5.437024e+06 0.000000e+00
      vertex 1.768114e+06 5.438226e+06 -1.520861e+03
    endloop
  endfacet
  facet normal -7.360216e-01 4.689947e-01 4.881765e-01
    outer loop
      vertex 1.767155e+06 5.436830e+06 -1.625779e+03
      vertex 1.768114e+06 5.438226e+06 -1.520861e+03
      vertex 1.767000e+06 5.438445e+06 -3.410704e+03
    endloop
  endfacet
  facet normal -8.302877e-01 2.146031e-01 5.143616e-01
    outer loop
      vertex 1.767000e+06 5.438445e+06 -3.410704e+03
      vertex 1.768114e+06 5.438226e+06 -1.520861e+03
      vertex 1.768261e+06 5.440042e+06 -2.041280e+03
    endloop
  endfacet
  facet normal -8.430624e-01 2.101062e-01 4.950770e-01
    outer loop
      vertex 1.768261e+06 5.440042e+06 -2.041280e+03
      vertex 1.768114e+06 5.438226e+06 -1.520861e+03
      vertex 1.769160e+06 5.438838e+06 0.000000e+00
    endloop
  endfacet
  facet normal -7.688296e-01 3.987309e-01 4.999148e-01
    outer loop
      vertex 1.757278e+06 5.429648e+06 -1.007224e+04
      vertex 1.756392e+06 5.427504e+06 -9.725504e+03
      vertex 1.758038e+06 5.428972e+06 -8.365716e+03
    endloop
  endfacet
  facet normal -7.445681e-01 4.530326e-01 4.902854e-01
    outer loop
      vertex 1.766119e+06 5.436747e+06 -3.019821e+03
      vertex 1.765483e+06 5.437472e+06 -4.655764e+03
      vertex 1.765024e+06 5.435735e+06 -3.748533e+03
    endloop
  endfacet
  facet normal -7.148745e-01 4.865499e-01 5.022187e-01
    outer loop
      vertex 1.767000e+06 5.438445e+06 -3.410704e+03
      vertex 1.766119e+06 5.436747e+06 -3.019821e+03
      vertex 1.767155e+06 5.436830e+06 -1.625779e+03
    endloop
  endfacet
  facet normal -7.360331e-01 4.560129e-01 5.003074e-01
    outer loop
      vertex 1.765483e+06 5.437472e+06 -4.655764e+03
      vertex 1.764147e+06 5.436237e+06 -5.496001e+03
      vertex 1.765024e+06 5.435735e+06 -3.748533e+03
    endloop
  endfacet
  facet normal -7.706801e-01 3.948701e-01 5.001298e-01
    outer loop
      vertex 1.765024e+06 5.435735e+06 -3.748533e+03
      vertex 1.764147e+06 5.436237e+06 -5.496001e+03
      vertex 1.763817e+06 5.434445e+06 -4.589301e+03
    endloop
  endfacet
  facet normal -7.699151e-01 3.948665e-01 5.013095e-01
    outer loop
      vertex 1.762894e+06 5.434886e+06 -6.358142e+03
      vertex 1.761617e+06 5.433512e+06 -7.236358e+03
      vertex 1.762580e+06 5.433030e+06 -5.378107e+03
    endloop
  endfacet
  facet normal -7.399239e-01 4.521594e-01 4.980607e-01
    outer loop
      vertex 1.761617e+06 5.433512e+06 -7.236358e+03
      vertex 1.760224e+06 5.432194e+06 -8.108621e+03
      vertex 1.761123e+06 5.431589e+06 -6.225438e+03
    endloop
  endfacet
  facet normal -7.106851e-01 4.913321e-01 5.035072e-01
    outer loop
      vertex 1.760224e+06 5.432194e+06 -8.108621e+03
      vertex 1.758722e+06 5.430930e+06 -8.996322e+03
      vertex 1.759575e+06 5.430282e+06 -7.160219e+03
    endloop
  endfacet
  facet normal -7.587899e-01 3.324783e-01 5.600858e-01
    outer loop
      vertex 1.754963e+06 5.425670e+06 -1.001242e+04
      vertex 1.755356e+06 5.423996e+06 -8.485201e+03
      vertex 1.756196e+06 5.425884e+06 -8.468647e+03
    endloop
  endfacet
  facet normal -7.894456e-01 3.573117e-01 4.991032e-01
    outer loop
      vertex 1.754874e+06 5.421903e+06 -8.043946e+03
      vertex 1.753513e+06 5.420614e+06 -9.273851e+03
      vertex 1.754456e+06 5.420106e+06 -7.419001e+03
    endloop
  endfacet
  facet normal -8.186234e-01 2.928328e-01 4.940696e-01
    outer loop
      vertex 1.753990e+06 5.422432e+06 -9.821872e+03
      vertex 1.754874e+06 5.421903e+06 -8.043946e+03
      vertex 1.755356e+06 5.423996e+06 -8.485201e+03
    endloop
  endfacet
  facet normal -8.465843e-01 2.409022e-01 4.746169e-01
    outer loop
      vertex 1.758457e+06 5.420878e+06 -1.619082e+03
      vertex 1.759103e+06 5.422944e+06 -1.514981e+03
      vertex 1.757963e+06 5.422230e+06 -3.185802e+03
    endloop
  endfacet
  facet normal -7.647287e-01 4.187883e-01 4.897003e-01
    outer loop
      vertex 1.760163e+06 5.424711e+06 -1.616363e+03
      vertex 1.761144e+06 5.426506e+06 -1.620257e+03
      vertex 1.759843e+06 5.426018e+06 -3.234915e+03
    endloop
  endfacet
  facet normal -7.641995e-01 4.036001e-01 5.030965e-01
    outer loop
      vertex 1.761144e+06 5.426506e+06 -1.620257e+03
      vertex 1.762100e+06 5.428256e+06 -1.572471e+03
      vertex 1.760814e+06 5.427920e+06 -3.255239e+03
    endloop
  endfacet
  facet normal -7.184983e-01 4.768870e-01 5.062992e-01
    outer loop
      vertex 1.762100e+06 5.428256e+06 -1.572471e+03
      vertex 1.763204e+06 5.429850e+06 -1.507178e+03
      vertex 1.761906e+06 5.429623e+06 -3.135309e+03
    endloop
  endfacet
  facet normal -7.321717e-01 4.799795e-01 4.832643e-01
    outer loop
      vertex 1.763204e+06 5.429850e+06 -1.507178e+03
      vertex 1.764228e+06 5.431485e+06 -1.578406e+03
      vertex 1.763063e+06 5.430978e+06 -2.841010e+03
    endloop
  endfacet
  facet normal -7.690865e-01 4.045986e-01 4.947786e-01
    outer loop
      vertex 1.764228e+06 5.431485e+06 -1.578406e+03
      vertex 1.765094e+06 5.433190e+06 -1.627370e+03
      vertex 1.763679e+06 5.432648e+06 -3.384202e+03
    endloop
  endfacet
  facet normal -7.714252e-01 3.938369e-01 4.997955e-01
    outer loop
      vertex 1.765094e+06 5.433190e+06 -1.627370e+03
      vertex 1.765971e+06 5.435126e+06 -1.799460e+03
      vertex 1.764718e+06 5.434212e+06 -3.013781e+03
    endloop
  endfacet
  facet normal -7.688221e-01 3.986578e-01 4.999846e-01
    outer loop
      vertex 1.758038e+06 5.428972e+06 -8.365716e+03
      vertex 1.756392e+06 5.427504e+06 -9.725504e+03
      vertex 1.757493e+06 5.427082e+06 -7.696149e+03
    endloop
  endfacet
  facet normal -7.525224e-01 4.250222e-01 5.030568e-01
    outer loop
      vertex 1.757278e+06 5.429648e+06 -1.007224e+04
      vertex 1.758038e+06 5.428972e+06 -8.365716e+03
      vertex 1.758722e+06 5.430930e+06 -8.996322e+03
    endloop
  endfacet
  facet normal -7.432024e-01 4.445259e-01 5.000468e-01
    outer loop
      vertex 1.766119e+06 5.436747e+06 -3.019821e+03
      vertex 1.765024e+06 5.435735e+06 -3.748533e+03
      vertex 1.765971e+06 5.435126e+06 -1.799460e+03
    endloop
  endfacet
  facet normal -7.280530e-01 4.536192e-01 5.139732e-01
    outer loop
      vertex 1.766119e+06 5.436747e+06 -3.019821e+03
      vertex 1.765971e+06 5.435126e+06 -1.799460e+03
      vertex 1.767155e+06 5.436830e+06 -1.625779e+03
    endloop
  endfacet
  facet normal -7.703128e-01 3.950263e-01 5.005721e-01
    outer loop
      vertex 1.763817e+06 5.434445e+06 -4.589301e+03
      vertex 1.764147e+06 5.436237e+06 -5.496001e+03
      vertex 1.762894e+06 5.434886e+06 -6.358142e+03
    endloop
  endfacet
  facet normal -7.705349e-01 3.945851e-01 5.005783e-01
    outer loop
      vertex 1.763817e+06 5.434445e+06 -4.589301e+03
      vertex 1.762894e+06 5.434886e+06 -6.358142e+03
      vertex 1.762580e+06 5.433030e+06 -5.378107e+03
    endloop
  endfacet
  facet normal -7.709076e-01 3.957823e-01 4.990569e-01
    outer loop
      vertex 1.765024e+06 5.435735e+06 -3.748533e+03
      vertex 1.763817e+06 5.434445e+06 -4.589301e+03
      vertex 1.764718e+06 5.434212e+06 -3.013781e+03
    endloop
  endfacet
  facet normal -7.713993e-01 3.955886e-01 4.984505e-01
    outer loop
      vertex 1.765024e+06 5.435735e+06 -3.748533e+03
      vertex 1.764718e+06 5.434212e+06 -3.013781e+03
      vertex 1.765971e+06 5.435126e+06 -1.799460e+03
    endloop
  endfacet
  facet normal -7.383113e-01 4.527290e-01 4.999328e-01
    outer loop
      vertex 1.762580e+06 5.433030e+06 -5.378107e+03
      vertex 1.761617e+06 5.433512e+06 -7.236358e+03
      vertex 1.761123e+06 5.431589e+06 -6.225438e+03
    endloop
  endfacet
  facet normal -7.149993e-01 4.902691e-01 4.984097e-01
    outer loop
      vertex 1.761123e+06 5.431589e+06 -6.225438e+03
      vertex 1.760224e+06 5.432194e+06 -8.108621e+03
      vertex 1.759575e+06 5.430282e+06 -7.160219e+03
    endloop
  endfacet
  facet normal -7.544172e-01 4.248219e-01 5.003809e-01
    outer loop
      vertex 1.759575e+06 5.430282e+06 -7.160219e+03
      vertex 1.758722e+06 5.430930e+06 -8.996322e+03
      vertex 1.758038e+06 5.428972e+06 -8.365716e+03
    endloop
  endfacet
  facet normal -8.068639e-01 3.546222e-01 4.724550e-01
    outer loop
      vertex 1.756196e+06 5.425884e+06 -8.468647e+03
      vertex 1.755356e+06 5.423996e+06 -8.485201e+03
      vertex 1.756924e+06 5.425092e+06 -6.630800e+03
    endloop
  endfacet
  facet normal -7.167509e-01 4.796600e-01 5.061566e-01
    outer loop
      vertex 1.754963e+06 5.425670e+06 -1.001242e+04
      vertex 1.756196e+06 5.425884e+06 -8.468647e+03
      vertex 1.756392e+06 5.427504e+06 -9.725504e+03
    endloop
  endfacet
  facet normal -7.889667e-01 3.574332e-01 4.997730e-01
    outer loop
      vertex 1.754874e+06 5.421903e+06 -8.043946e+03
      vertex 1.754456e+06 5.420106e+06 -7.419001e+03
      vertex 1.755552e+06 5.421172e+06 -6.449739e+03
    endloop
  endfacet
  facet normal -8.403764e-01 3.228643e-01 4.353460e-01
    outer loop
      vertex 1.757963e+06 5.422230e+06 -3.185802e+03
      vertex 1.759103e+06 5.422944e+06 -1.514981e+03
      vertex 1.758738e+06 5.424200e+06 -3.150823e+03
    endloop
  endfacet
  facet normal -8.011802e-01 3.045051e-01 5.151572e-01
    outer loop
      vertex 1.758457e+06 5.420878e+06 -1.619082e+03
      vertex 1.757963e+06 5.422230e+06 -3.185802e+03
      vertex 1.757358e+06 5.420391e+06 -3.039795e+03
    endloop
  endfacet
  facet normal -7.692776e-01 3.983201e-01 4.995529e-01
    outer loop
      vertex 1.759843e+06 5.426018e+06 -3.234915e+03
      vertex 1.761144e+06 5.426506e+06 -1.620257e+03
      vertex 1.760814e+06 5.427920e+06 -3.255239e+03
    endloop
  endfacet
  facet normal -7.212979e-01 4.620184e-01 5.160120e-01
    outer loop
      vertex 1.760163e+06 5.424711e+06 -1.616363e+03
      vertex 1.759843e+06 5.426018e+06 -3.234915e+03
      vertex 1.758738e+06 5.424200e+06 -3.150823e+03
    endloop
  endfacet
  facet normal -7.212247e-01 4.623211e-01 5.158431e-01
    outer loop
      vertex 1.760163e+06 5.424711e+06 -1.616363e+03
      vertex 1.758738e+06 5.424200e+06 -3.150823e+03
      vertex 1.759103e+06 5.422944e+06 -1.514981e+03
    endloop
  endfacet
  facet normal -7.515565e-01 4.474865e-01 4.846841e-01
    outer loop
      vertex 1.760814e+06 5.427920e+06 -3.255239e+03
      vertex 1.762100e+06 5.428256e+06 -1.572471e+03
      vertex 1.761906e+06 5.429623e+06 -3.135309e+03
    endloop
  endfacet
  facet normal -7.103333e-01 4.986691e-01 4.967451e-01
    outer loop
      vertex 1.761906e+06 5.429623e+06 -3.135309e+03
      vertex 1.763204e+06 5.429850e+06 -1.507178e+03
      vertex 1.763063e+06 5.430978e+06 -2.841010e+03
    endloop
  endfacet
  facet normal -7.411865e-01 4.386024e-01 5.082032e-01
    outer loop
      vertex 1.763063e+06 5.430978e+06 -2.841010e+03
      vertex 1.764228e+06 5.431485e+06 -1.578406e+03
      vertex 1.763679e+06 5.432648e+06 -3.384202e+03
    endloop
  endfacet
  facet normal -7.713215e-01 3.939604e-01 4.998583e-01
    outer loop
      vertex 1.763679e+06 5.432648e+06 -3.384202e+03
      vertex 1.765094e+06 5.433190e+06 -1.627370e+03
      vertex 1.764718e+06 5.434212e+06 -3.013781e+03
    endloop
  endfacet
  facet normal -7.300321e-01 4.720151e-01 4.942214e-01
    outer loop
      vertex 1.757493e+06 5.427082e+06 -7.696149e+03
      vertex 1.756392e+06 5.427504e+06 -9.725504e+03
      vertex 1.756196e+06 5.425884e+06 -8.468647e+03
    endloop
  endfacet
  facet normal -7.688997e-01 3.986423e-01 4.998776e-01
    outer loop
      vertex 1.758038e+06 5.428972e+06 -8.365716e+03
      vertex 1.757493e+06 5.427082e+06 -7.696149e+03
      vertex 1.758930e+06 5.428378e+06 -6.519207e+03
    endloop
  endfacet
  facet normal -7.706281e-01 3.948731e-01 5.002075e-01
    outer loop
      vertex 1.763817e+06 5.434445e+06 -4.589301e+03
      vertex 1.762580e+06 5.433030e+06 -5.378107e+03
      vertex 1.763679e+06 5.432648e+06 -3.384202e+03
    endloop
  endfacet
  facet normal -7.715741e-01 3.942805e-01 4.992156e-01
    outer loop
      vertex 1.763817e+06 5.434445e+06 -4.589301e+03
      vertex 1.763679e+06 5.432648e+06 -3.384202e+03
      vertex 1.764718e+06 5.434212e+06 -3.013781e+03
    endloop
  endfacet
  facet normal -7.379241e-01 4.511802e-01 5.019009e-01
    outer loop
      vertex 1.762580e+06 5.433030e+06 -5.378107e+03
      vertex 1.761123e+06 5.431589e+06 -6.225438e+03
      vertex 1.762138e+06 5.431213e+06 -4.395009e+03
    endloop
  endfacet
  facet normal -7.148165e-01 4.889165e-01 4.999982e-01
    outer loop
      vertex 1.761123e+06 5.431589e+06 -6.225438e+03
      vertex 1.759575e+06 5.430282e+06 -7.160219e+03
      vertex 1.760526e+06 5.429520e+06 -5.055063e+03
    endloop
  endfacet
  facet normal -8.085038e-01 2.893413e-01 5.124482e-01
    outer loop
      vertex 1.756924e+06 5.425092e+06 -6.630800e+03
      vertex 1.755356e+06 5.423996e+06 -8.485201e+03
      vertex 1.756181e+06 5.422878e+06 -6.552503e+03
    endloop
  endfacet
  facet normal -7.302110e-01 4.729670e-01 4.930458e-01
    outer loop
      vertex 1.756196e+06 5.425884e+06 -8.468647e+03
      vertex 1.756924e+06 5.425092e+06 -6.630800e+03
      vertex 1.757493e+06 5.427082e+06 -7.696149e+03
    endloop
  endfacet
  facet normal -7.890620e-01 3.581073e-01 4.991396e-01
    outer loop
      vertex 1.755552e+06 5.421172e+06 -6.449739e+03
      vertex 1.754456e+06 5.420106e+06 -7.419001e+03
      vertex 1.755398e+06 5.419598e+06 -5.564165e+03
    endloop
  endfacet
  facet normal -8.062702e-01 3.267964e-01 4.930846e-01
    outer loop
      vertex 1.754874e+06 5.421903e+06 -8.043946e+03
      vertex 1.755552e+06 5.421172e+06 -6.449739e+03
      vertex 1.756181e+06 5.422878e+06 -6.552503e+03
    endloop
  endfacet
  facet normal -8.057837e-01 2.940818e-01 5.140315e-01
    outer loop
      vertex 1.754874e+06 5.421903e+06 -8.043946e+03
      vertex 1.756181e+06 5.422878e+06 -6.552503e+03
      vertex 1.755356e+06 5.423996e+06 -8.485201e+03
    endloop
  endfacet
  facet normal -7.868372e-01 2.999560e-01 5.393641e-01
    outer loop
      vertex 1.757963e+06 5.422230e+06 -3.185802e+03
      vertex 1.758738e+06 5.424200e+06 -3.150823e+03
      vertex 1.757356e+06 5.423554e+06 -4.808864e+03
    endloop
  endfacet
  facet normal -8.164553e-01 3.074340e-01 4.887587e-01
    outer loop
      vertex 1.757358e+06 5.420391e+06 -3.039795e+03
      vertex 1.757963e+06 5.422230e+06 -3.185802e+03
      vertex 1.756648e+06 5.421276e+06 -4.783314e+03
    endloop
  endfacet
  facet normal -7.943959e-01 3.557012e-01 4.923534e-01
    outer loop
      vertex 1.758457e+06 5.420878e+06 -1.619082e+03
      vertex 1.757358e+06 5.420391e+06 -3.039795e+03
      vertex 1.757283e+06 5.418582e+06 -1.854133e+03
    endloop
  endfacet
  facet normal -7.696364e-01 3.984959e-01 4.988595e-01
    outer loop
      vertex 1.759843e+06 5.426018e+06 -3.234915e+03
      vertex 1.760814e+06 5.427920e+06 -3.255239e+03
      vertex 1.759516e+06 5.427366e+06 -4.816009e+03
    endloop
  endfacet
  facet normal -7.099432e-01 4.980887e-01 4.978838e-01
    outer loop
      vertex 1.761906e+06 5.429623e+06 -3.135309e+03
      vertex 1.763063e+06 5.430978e+06 -2.841010e+03
      vertex 1.762138e+06 5.431213e+06 -4.395009e+03
    endloop
  endfacet
  facet normal -7.415594e-01 4.385716e-01 5.076854e-01
    outer loop
      vertex 1.762138e+06 5.431213e+06 -4.395009e+03
      vertex 1.763063e+06 5.430978e+06 -2.841010e+03
      vertex 1.763679e+06 5.432648e+06 -3.384202e+03
    endloop
  endfacet
  facet normal -7.434363e-01 4.491051e-01 4.955876e-01
    outer loop
      vertex 1.762138e+06 5.431213e+06 -4.395009e+03
      vertex 1.763679e+06 5.432648e+06 -3.384202e+03
      vertex 1.762580e+06 5.433030e+06 -5.378107e+03
    endloop
  endfacet
  facet normal -7.689528e-01 3.991263e-01 4.994094e-01
    outer loop
      vertex 1.758930e+06 5.428378e+06 -6.519207e+03
      vertex 1.757493e+06 5.427082e+06 -7.696149e+03
      vertex 1.758280e+06 5.426632e+06 -6.124036e+03
    endloop
  endfacet
  facet normal -7.543585e-01 4.241374e-01 5.010497e-01
    outer loop
      vertex 1.758038e+06 5.428972e+06 -8.365716e+03
      vertex 1.758930e+06 5.428378e+06 -6.519207e+03
      vertex 1.759575e+06 5.430282e+06 -7.160219e+03
    endloop
  endfacet
  facet normal -7.168094e-01 4.882454e-01 4.977958e-01
    outer loop
      vertex 1.762138e+06 5.431213e+06 -4.395009e+03
      vertex 1.761123e+06 5.431589e+06 -6.225438e+03
      vertex 1.760526e+06 5.429520e+06 -5.055063e+03
    endloop
  endfacet
  facet normal -7.580370e-01 4.236448e-01 4.958882e-01
    outer loop
      vertex 1.760526e+06 5.429520e+06 -5.055063e+03
      vertex 1.759575e+06 5.430282e+06 -7.160219e+03
      vertex 1.758930e+06 5.428378e+06 -6.519207e+03
    endloop
  endfacet
  facet normal -8.412221e-01 2.981477e-01 4.510580e-01
    outer loop
      vertex 1.756924e+06 5.425092e+06 -6.630800e+03
      vertex 1.756181e+06 5.422878e+06 -6.552503e+03
      vertex 1.757356e+06 5.423554e+06 -4.808864e+03
    endloop
  endfacet
  facet normal -7.905706e-01 3.572541e-01 4.973608e-01
    outer loop
      vertex 1.755552e+06 5.421172e+06 -6.449739e+03
      vertex 1.755398e+06 5.419598e+06 -5.564165e+03
      vertex 1.756648e+06 5.421276e+06 -4.783314e+03
    endloop
  endfacet
  facet normal -7.994496e-01 3.250143e-01 5.052188e-01
    outer loop
      vertex 1.756181e+06 5.422878e+06 -6.552503e+03
      vertex 1.755552e+06 5.421172e+06 -6.449739e+03
      vertex 1.756648e+06 5.421276e+06 -4.783314e+03
    endloop
  endfacet
  facet normal -8.440223e-01 2.674336e-01 4.648716e-01
    outer loop
      vertex 1.756181e+06 5.422878e+06 -6.552503e+03
      vertex 1.756648e+06 5.421276e+06 -4.783314e+03
      vertex 1.757356e+06 5.423554e+06 -4.808864e+03
    endloop
  endfacet
  facet normal -8.157988e-01 2.592494e-01 5.169739e-01
    outer loop
      vertex 1.757356e+06 5.423554e+06 -4.808864e+03
      vertex 1.756648e+06 5.421276e+06 -4.783314e+03
      vertex 1.757963e+06 5.422230e+06 -3.185802e+03
    endloop
  endfacet
  facet normal -7.653559e-01 4.449510e-01 4.650258e-01
    outer loop
      vertex 1.757356e+06 5.423554e+06 -4.808864e+03
      vertex 1.758738e+06 5.424200e+06 -3.150823e+03
      vertex 1.758443e+06 5.425431e+06 -4.813966e+03
    endloop
  endfacet
  facet normal -7.876161e-01 3.570330e-01 5.021836e-01
    outer loop
      vertex 1.757358e+06 5.420391e+06 -3.039795e+03
      vertex 1.756648e+06 5.421276e+06 -4.783314e+03
      vertex 1.756341e+06 5.419090e+06 -3.709561e+03
    endloop
  endfacet
  facet normal -7.899733e-01 3.559269e-01 4.992576e-01
    outer loop
      vertex 1.756341e+06 5.419090e+06 -3.709561e+03
      vertex 1.756648e+06 5.421276e+06 -4.783314e+03
      vertex 1.755398e+06 5.419598e+06 -5.564165e+03
    endloop
  endfacet
  facet normal -7.886447e-01 3.596250e-01 4.987078e-01
    outer loop
      vertex 1.757358e+06 5.420391e+06 -3.039795e+03
      vertex 1.756341e+06 5.419090e+06 -3.709561e+03
      vertex 1.757283e+06 5.418582e+06 -1.854133e+03
    endloop
  endfacet
  facet normal -7.666038e-01 4.140298e-01 4.908135e-01
    outer loop
      vertex 1.759516e+06 5.427366e+06 -4.816009e+03
      vertex 1.760814e+06 5.427920e+06 -3.255239e+03
      vertex 1.760526e+06 5.429520e+06 -5.055063e+03
    endloop
  endfacet
  facet normal -7.407017e-01 4.388386e-01 5.087058e-01
    outer loop
      vertex 1.760526e+06 5.429520e+06 -5.055063e+03
      vertex 1.760814e+06 5.427920e+06 -3.255239e+03
      vertex 1.761906e+06 5.429623e+06 -3.135309e+03
    endloop
  endfacet
  facet normal -7.187929e-01 4.931596e-01 4.900310e-01
    outer loop
      vertex 1.760526e+06 5.429520e+06 -5.055063e+03
      vertex 1.761906e+06 5.429623e+06 -3.135309e+03
      vertex 1.762138e+06 5.431213e+06 -4.395009e+03
    endloop
  endfacet
  facet normal -7.516232e-01 4.170908e-01 5.109774e-01
    outer loop
      vertex 1.759843e+06 5.426018e+06 -3.234915e+03
      vertex 1.759516e+06 5.427366e+06 -4.816009e+03
      vertex 1.758443e+06 5.425431e+06 -4.813966e+03
    endloop
  endfacet
  facet normal -7.396783e-01 4.715251e-01 4.801459e-01
    outer loop
      vertex 1.759843e+06 5.426018e+06 -3.234915e+03
      vertex 1.758443e+06 5.425431e+06 -4.813966e+03
      vertex 1.758738e+06 5.424200e+06 -3.150823e+03
    endloop
  endfacet
  facet normal -7.250004e-01 4.746887e-01 4.990442e-01
    outer loop
      vertex 1.758280e+06 5.426632e+06 -6.124036e+03
      vertex 1.757493e+06 5.427082e+06 -7.696149e+03
      vertex 1.756924e+06 5.425092e+06 -6.630800e+03
    endloop
  endfacet
  facet normal -7.678120e-01 3.991024e-01 5.011806e-01
    outer loop
      vertex 1.758930e+06 5.428378e+06 -6.519207e+03
      vertex 1.758280e+06 5.426632e+06 -6.124036e+03
      vertex 1.759516e+06 5.427366e+06 -4.816009e+03
    endloop
  endfacet
  facet normal -7.582876e-01 4.117514e-01 5.054312e-01
    outer loop
      vertex 1.758930e+06 5.428378e+06 -6.519207e+03
      vertex 1.759516e+06 5.427366e+06 -4.816009e+03
      vertex 1.760526e+06 5.429520e+06 -5.055063e+03
    endloop
  endfacet
  facet normal -7.315722e-01 4.255499e-01 5.326439e-01
    outer loop
      vertex 1.757356e+06 5.423554e+06 -4.808864e+03
      vertex 1.758443e+06 5.425431e+06 -4.813966e+03
      vertex 1.756924e+06 5.425092e+06 -6.630800e+03
    endloop
  endfacet
  facet normal -7.198728e-01 4.647276e-01 5.155690e-01
    outer loop
      vertex 1.756924e+06 5.425092e+06 -6.630800e+03
      vertex 1.758443e+06 5.425431e+06 -4.813966e+03
      vertex 1.758280e+06 5.426632e+06 -6.124036e+03
    endloop
  endfacet
  facet normal -7.650222e-01 4.244884e-01 4.843043e-01
    outer loop
      vertex 1.758280e+06 5.426632e+06 -6.124036e+03
      vertex 1.758443e+06 5.425431e+06 -4.813966e+03
      vertex 1.759516e+06 5.427366e+06 -4.816009e+03
    endloop
  endfacet
endsolid Surface 1
