solid Surface 1
  facet normal -5.974586e-01 5.927414e-02 7.997060e-01
    outer loop
      vertex 1.778605e+06 5.430185e+06 0.000000e+00
      vertex 1.777564e+06 5.431050e+06 -8.421418e+02
      vertex 1.777486e+06 5.429522e+06 -7.870096e+02
    endloop
  endfacet
  facet normal -5.895515e-01 3.808930e-02 8.068322e-01
    outer loop
      vertex 1.777564e+06 5.431050e+06 -8.421418e+02
      vertex 1.776509e+06 5.431928e+06 -1.654648e+03
      vertex 1.776285e+06 5.430247e+06 -1.738744e+03
    endloop
  endfacet
  facet normal -5.977292e-01 5.928062e-02 7.995034e-01
    outer loop
      vertex 1.777486e+06 5.429522e+06 -7.870096e+02
      vertex 1.777564e+06 5.431050e+06 -8.421418e+02
      vertex 1.776285e+06 5.430247e+06 -1.738744e+03
    endloop
  endfacet
  facet normal -5.909619e-01 4.125178e-02 8.056440e-01
    outer loop
      vertex 1.778605e+06 5.430185e+06 0.000000e+00
      vertex 1.777486e+06 5.429522e+06 -7.870096e+02
      vertex 1.778469e+06 5.428229e+06 0.000000e+00
    endloop
  endfacet
  facet normal -5.930820e-01 3.869021e-02 8.042119e-01
    outer loop
      vertex 1.776285e+06 5.430247e+06 -1.738744e+03
      vertex 1.776509e+06 5.431928e+06 -1.654648e+03
      vertex 1.774957e+06 5.431459e+06 -2.776472e+03
    endloop
  endfacet
  facet normal -5.888079e-01 8.032585e-02 8.042718e-01
    outer loop
      vertex 1.777486e+06 5.429522e+06 -7.870096e+02
      vertex 1.776285e+06 5.430247e+06 -1.738744e+03
      vertex 1.776564e+06 5.428186e+06 -1.328988e+03
    endloop
  endfacet
  facet normal -5.719301e-01 6.315447e-02 8.178677e-01
    outer loop
      vertex 1.778469e+06 5.428229e+06 0.000000e+00
      vertex 1.777486e+06 5.429522e+06 -7.870096e+02
      vertex 1.776564e+06 5.428186e+06 -1.328988e+03
    endloop
  endfacet
  facet normal -5.617689e-01 8.763335e-02 8.226397e-01
    outer loop
      vertex 1.776564e+06 5.428186e+06 -1.328988e+03
      vertex 1.776285e+06 5.430247e+06 -1.738744e+03
      vertex 1.774807e+06 5.429572e+06 -2.676279e+03
    endloop
  endfacet
  facet normal -5.619704e-01 8.837683e-02 8.224225e-01
    outer loop
      vertex 1.774807e+06 5.429572e+06 -2.676279e+03
      vertex 1.776285e+06 5.430247e+06 -1.738744e+03
      vertex 1.774957e+06 5.431459e+06 -2.776472e+03
    endloop
  endfacet
  facet normal -5.894946e-01 8.952351e-02 8.027961e-01
    outer loop
      vertex 1.774807e+06 5.429572e+06 -2.676279e+03
      vertex 1.774957e+06 5.431459e+06 -2.776472e+03
      vertex 1.773342e+06 5.431156e+06 -3.928636e+03
    endloop
  endfacet
  facet normal -4.585943e-01 2.481698e-01 8.532895e-01
    outer loop
      vertex 1.776564e+06 5.428186e+06 -1.328988e+03
      vertex 1.774807e+06 5.429572e+06 -2.676279e+03
      vertex 1.774438e+06 5.427650e+06 -2.315421e+03
    endloop
  endfacet
  facet normal -4.593743e-01 2.482370e-01 8.528503e-01
    outer loop
      vertex 1.774438e+06 5.427650e+06 -2.315421e+03
      vertex 1.774807e+06 5.429572e+06 -2.676279e+03
      vertex 1.772946e+06 5.428972e+06 -3.503879e+03
    endloop
  endfacet
  facet normal -4.593359e-01 2.562510e-01 8.504975e-01
    outer loop
      vertex 1.776564e+06 5.428186e+06 -1.328988e+03
      vertex 1.774438e+06 5.427650e+06 -2.315421e+03
      vertex 1.775932e+06 5.426296e+06 -1.100317e+03
    endloop
  endfacet
  facet normal -2.511372e-01 4.804433e-01 8.403001e-01
    outer loop
      vertex 1.746424e+06 5.392948e+06 0.000000e+00
      vertex 1.748163e+06 5.393856e+06 0.000000e+00
      vertex 1.746716e+06 5.394722e+06 -9.267838e+02
    endloop
  endfacet
  facet normal -2.478189e-01 4.820243e-01 8.403799e-01
    outer loop
      vertex 1.748163e+06 5.393856e+06 0.000000e+00
      vertex 1.749907e+06 5.394754e+06 0.000000e+00
      vertex 1.748304e+06 5.395740e+06 -1.038501e+03
    endloop
  endfacet
  facet normal -2.522533e-01 4.817168e-01 8.392361e-01
    outer loop
      vertex 1.749907e+06 5.394754e+06 0.000000e+00
      vertex 1.751645e+06 5.395664e+06 0.000000e+00
      vertex 1.749963e+06 5.396598e+06 -1.042156e+03
    endloop
  endfacet
  facet normal -2.524926e-01 4.834938e-01 8.381416e-01
    outer loop
      vertex 1.751645e+06 5.395664e+06 0.000000e+00
      vertex 1.753384e+06 5.396572e+06 0.000000e+00
      vertex 1.751841e+06 5.397371e+06 -9.258714e+02
    endloop
  endfacet
  facet normal -2.514905e-01 4.874246e-01 8.361637e-01
    outer loop
      vertex 1.753384e+06 5.396572e+06 0.000000e+00
      vertex 1.755128e+06 5.397472e+06 0.000000e+00
      vertex 1.753626e+06 5.398300e+06 -9.346613e+02
    endloop
  endfacet
  facet normal -2.573900e-01 4.893778e-01 8.332225e-01
    outer loop
      vertex 1.755128e+06 5.397472e+06 0.000000e+00
      vertex 1.756864e+06 5.398384e+06 0.000000e+00
      vertex 1.755493e+06 5.399277e+06 -9.475587e+02
    endloop
  endfacet
  facet normal -2.684009e-01 4.501785e-01 8.516456e-01
    outer loop
      vertex 1.756864e+06 5.398384e+06 0.000000e+00
      vertex 1.758546e+06 5.399388e+06 0.000000e+00
      vertex 1.757545e+06 5.400434e+06 -8.684437e+02
    endloop
  endfacet
  facet normal -3.966344e-01 3.311409e-01 8.561699e-01
    outer loop
      vertex 1.758546e+06 5.399388e+06 0.000000e+00
      vertex 1.759798e+06 5.400887e+06 0.000000e+00
      vertex 1.757545e+06 5.400434e+06 -8.684437e+02
    endloop
  endfacet
  facet normal -4.394048e-01 2.922664e-01 8.494138e-01
    outer loop
      vertex 1.759798e+06 5.400887e+06 0.000000e+00
      vertex 1.760884e+06 5.402520e+06 0.000000e+00
      vertex 1.758889e+06 5.402338e+06 -9.696561e+02
    endloop
  endfacet
  facet normal -4.332228e-01 2.936526e-01 8.521069e-01
    outer loop
      vertex 1.760884e+06 5.402520e+06 0.000000e+00
      vertex 1.761985e+06 5.404144e+06 0.000000e+00
      vertex 1.759971e+06 5.404104e+06 -1.009885e+03
    endloop
  endfacet
  facet normal -4.269546e-01 2.937892e-01 8.552179e-01
    outer loop
      vertex 1.761985e+06 5.404144e+06 0.000000e+00
      vertex 1.763097e+06 5.405760e+06 0.000000e+00
      vertex 1.761169e+06 5.405793e+06 -9.738080e+02
    endloop
  endfacet
  facet normal -4.253426e-01 2.889528e-01 8.576654e-01
    outer loop
      vertex 1.763097e+06 5.405760e+06 0.000000e+00
      vertex 1.764200e+06 5.407383e+06 0.000000e+00
      vertex 1.762332e+06 5.407444e+06 -9.468467e+02
    endloop
  endfacet
  facet normal -4.222648e-01 2.922471e-01 8.580700e-01
    outer loop
      vertex 1.764200e+06 5.407383e+06 0.000000e+00
      vertex 1.765316e+06 5.408996e+06 0.000000e+00
      vertex 1.763474e+06 5.409060e+06 -9.279445e+02
    endloop
  endfacet
  facet normal -4.237345e-01 2.864051e-01 8.593144e-01
    outer loop
      vertex 1.765316e+06 5.408996e+06 0.000000e+00
      vertex 1.766415e+06 5.410622e+06 0.000000e+00
      vertex 1.764586e+06 5.410696e+06 -9.267714e+02
    endloop
  endfacet
  facet normal -4.253626e-01 2.870758e-01 8.582855e-01
    outer loop
      vertex 1.766415e+06 5.410622e+06 0.000000e+00
      vertex 1.767512e+06 5.412248e+06 0.000000e+00
      vertex 1.765686e+06 5.412332e+06 -9.332268e+02
    endloop
  endfacet
  facet normal -4.239484e-01 2.876610e-01 8.587892e-01
    outer loop
      vertex 1.767512e+06 5.412248e+06 0.000000e+00
      vertex 1.768614e+06 5.413871e+06 0.000000e+00
      vertex 1.766775e+06 5.413970e+06 -9.407042e+02
    endloop
  endfacet
  facet normal -4.244710e-01 2.846657e-01 8.595288e-01
    outer loop
      vertex 1.768614e+06 5.413871e+06 0.000000e+00
      vertex 1.769706e+06 5.415500e+06 0.000000e+00
      vertex 1.767869e+06 5.415624e+06 -9.481447e+02
    endloop
  endfacet
  facet normal -4.293212e-01 2.839582e-01 8.573512e-01
    outer loop
      vertex 1.769706e+06 5.415500e+06 0.000000e+00
      vertex 1.770788e+06 5.417136e+06 0.000000e+00
      vertex 1.768972e+06 5.417308e+06 -9.660675e+02
    endloop
  endfacet
  facet normal -4.232483e-01 2.979990e-01 8.556036e-01
    outer loop
      vertex 1.770788e+06 5.417136e+06 0.000000e+00
      vertex 1.771918e+06 5.418740e+06 0.000000e+00
      vertex 1.770094e+06 5.418974e+06 -9.837436e+02
    endloop
  endfacet
  facet normal -3.992962e-01 3.291721e-01 8.556917e-01
    outer loop
      vertex 1.771918e+06 5.418740e+06 0.000000e+00
      vertex 1.773165e+06 5.420254e+06 0.000000e+00
      vertex 1.771294e+06 5.420548e+06 -9.866627e+02
    endloop
  endfacet
  facet normal -3.961453e-01 3.386125e-01 8.534697e-01
    outer loop
      vertex 1.773165e+06 5.420254e+06 0.000000e+00
      vertex 1.774440e+06 5.421745e+06 0.000000e+00
      vertex 1.772541e+06 5.422042e+06 -9.990998e+02
    endloop
  endfacet
  facet normal -4.015204e-01 3.349466e-01 8.524038e-01
    outer loop
      vertex 1.774440e+06 5.421745e+06 0.000000e+00
      vertex 1.775697e+06 5.423252e+06 0.000000e+00
      vertex 1.773646e+06 5.423790e+06 -1.177342e+03
    endloop
  endfacet
  facet normal -4.022521e-01 3.410713e-01 8.496255e-01
    outer loop
      vertex 1.775697e+06 5.423252e+06 0.000000e+00
      vertex 1.776965e+06 5.424748e+06 0.000000e+00
      vertex 1.775210e+06 5.424776e+06 -8.419521e+02
    endloop
  endfacet
  facet normal -4.250735e-01 3.185908e-01 8.472381e-01
    outer loop
      vertex 1.776965e+06 5.424748e+06 0.000000e+00
      vertex 1.778140e+06 5.426316e+06 0.000000e+00
      vertex 1.775932e+06 5.426296e+06 -1.100317e+03
    endloop
  endfacet
  facet normal -4.337095e-01 2.495448e-01 8.658080e-01
    outer loop
      vertex 1.775932e+06 5.426296e+06 -1.100317e+03
      vertex 1.778140e+06 5.426316e+06 0.000000e+00
      vertex 1.776564e+06 5.428186e+06 -1.328988e+03
    endloop
  endfacet
  facet normal -5.708430e-01 9.804048e-02 8.151849e-01
    outer loop
      vertex 1.776564e+06 5.428186e+06 -1.328988e+03
      vertex 1.778140e+06 5.426316e+06 0.000000e+00
      vertex 1.778469e+06 5.428229e+06 0.000000e+00
    endloop
  endfacet
  facet normal -4.678832e-01 2.497076e-01 8.477803e-01
    outer loop
      vertex 1.773342e+06 5.431156e+06 -3.928636e+03
      vertex 1.771807e+06 5.430130e+06 -4.473790e+03
      vertex 1.772946e+06 5.428972e+06 -3.503879e+03
    endloop
  endfacet
  facet normal -4.595104e-01 2.491130e-01 8.525215e-01
    outer loop
      vertex 1.773342e+06 5.431156e+06 -3.928636e+03
      vertex 1.772946e+06 5.428972e+06 -3.503879e+03
      vertex 1.774807e+06 5.429572e+06 -2.676279e+03
    endloop
  endfacet
  facet normal -3.934543e-01 3.280017e-01 8.588415e-01
    outer loop
      vertex 1.774438e+06 5.427650e+06 -2.315421e+03
      vertex 1.772946e+06 5.428972e+06 -3.503879e+03
      vertex 1.772254e+06 5.427118e+06 -3.112684e+03
    endloop
  endfacet
  facet normal -3.912279e-01 3.367149e-01 8.564834e-01
    outer loop
      vertex 1.775932e+06 5.426296e+06 -1.100317e+03
      vertex 1.774438e+06 5.427650e+06 -2.315421e+03
      vertex 1.773855e+06 5.425834e+06 -1.868053e+03
    endloop
  endfacet
  facet normal -2.499744e-01 4.818794e-01 8.398244e-01
    outer loop
      vertex 1.746716e+06 5.394722e+06 -9.267838e+02
      vertex 1.748163e+06 5.393856e+06 0.000000e+00
      vertex 1.748304e+06 5.395740e+06 -1.038501e+03
    endloop
  endfacet
  facet normal -2.559492e-01 4.804676e-01 8.388330e-01
    outer loop
      vertex 1.746424e+06 5.392948e+06 0.000000e+00
      vertex 1.746716e+06 5.394722e+06 -9.267838e+02
      vertex 1.745027e+06 5.394109e+06 -1.091381e+03
    endloop
  endfacet
  facet normal -2.566383e-01 4.827833e-01 8.372915e-01
    outer loop
      vertex 1.745027e+06 5.394109e+06 -1.091381e+03
      vertex 1.746716e+06 5.394722e+06 -9.267838e+02
      vertex 1.745426e+06 5.395514e+06 -1.779130e+03
    endloop
  endfacet
  facet normal -2.476786e-01 4.821937e-01 8.403240e-01
    outer loop
      vertex 1.748304e+06 5.395740e+06 -1.038501e+03
      vertex 1.749907e+06 5.394754e+06 0.000000e+00
      vertex 1.749963e+06 5.396598e+06 -1.042156e+03
    endloop
  endfacet
  facet normal -2.508402e-01 4.835542e-01 8.386028e-01
    outer loop
      vertex 1.749963e+06 5.396598e+06 -1.042156e+03
      vertex 1.751645e+06 5.395664e+06 0.000000e+00
      vertex 1.751841e+06 5.397371e+06 -9.258714e+02
    endloop
  endfacet
  facet normal -2.495845e-01 4.874567e-01 8.367159e-01
    outer loop
      vertex 1.751841e+06 5.397371e+06 -9.258714e+02
      vertex 1.753384e+06 5.396572e+06 0.000000e+00
      vertex 1.753626e+06 5.398300e+06 -9.346613e+02
    endloop
  endfacet
  facet normal -2.501668e-01 4.891409e-01 8.355584e-01
    outer loop
      vertex 1.753626e+06 5.398300e+06 -9.346613e+02
      vertex 1.755128e+06 5.397472e+06 0.000000e+00
      vertex 1.755493e+06 5.399277e+06 -9.475587e+02
    endloop
  endfacet
  facet normal -2.880384e-01 4.532731e-01 8.435504e-01
    outer loop
      vertex 1.755493e+06 5.399277e+06 -9.475587e+02
      vertex 1.756864e+06 5.398384e+06 0.000000e+00
      vertex 1.757545e+06 5.400434e+06 -8.684437e+02
    endloop
  endfacet
  facet normal -2.954826e-01 4.671786e-01 8.333272e-01
    outer loop
      vertex 1.755493e+06 5.399277e+06 -9.475587e+02
      vertex 1.757545e+06 5.400434e+06 -8.684437e+02
      vertex 1.755661e+06 5.401025e+06 -1.868127e+03
    endloop
  endfacet
  facet normal -4.396051e-01 2.889188e-01 8.504547e-01
    outer loop
      vertex 1.758889e+06 5.402338e+06 -9.696561e+02
      vertex 1.760884e+06 5.402520e+06 0.000000e+00
      vertex 1.759971e+06 5.404104e+06 -1.009885e+03
    endloop
  endfacet
  facet normal -3.963690e-01 3.253119e-01 8.585241e-01
    outer loop
      vertex 1.759798e+06 5.400887e+06 0.000000e+00
      vertex 1.758889e+06 5.402338e+06 -9.696561e+02
      vertex 1.757545e+06 5.400434e+06 -8.684437e+02
    endloop
  endfacet
  facet normal -4.337465e-01 2.893099e-01 8.533251e-01
    outer loop
      vertex 1.759971e+06 5.404104e+06 -1.009885e+03
      vertex 1.761985e+06 5.404144e+06 0.000000e+00
      vertex 1.761169e+06 5.405793e+06 -9.738080e+02
    endloop
  endfacet
  facet normal -4.279218e-01 2.873599e-01 8.569173e-01
    outer loop
      vertex 1.761169e+06 5.405793e+06 -9.738080e+02
      vertex 1.763097e+06 5.405760e+06 0.000000e+00
      vertex 1.762332e+06 5.407444e+06 -9.468467e+02
    endloop
  endfacet
  facet normal -4.250781e-01 2.905750e-01 8.572484e-01
    outer loop
      vertex 1.762332e+06 5.407444e+06 -9.468467e+02
      vertex 1.764200e+06 5.407383e+06 0.000000e+00
      vertex 1.763474e+06 5.409060e+06 -9.279445e+02
    endloop
  endfacet
  facet normal -4.231658e-01 2.867411e-01 8.594825e-01
    outer loop
      vertex 1.763474e+06 5.409060e+06 -9.279445e+02
      vertex 1.765316e+06 5.408996e+06 0.000000e+00
      vertex 1.764586e+06 5.410696e+06 -9.267714e+02
    endloop
  endfacet
  facet normal -4.234302e-01 2.882131e-01 8.588598e-01
    outer loop
      vertex 1.764586e+06 5.410696e+06 -9.267714e+02
      vertex 1.766415e+06 5.410622e+06 0.000000e+00
      vertex 1.765686e+06 5.412332e+06 -9.332268e+02
    endloop
  endfacet
  facet normal -4.254107e-01 2.867980e-01 8.583546e-01
    outer loop
      vertex 1.765686e+06 5.412332e+06 -9.332268e+02
      vertex 1.767512e+06 5.412248e+06 0.000000e+00
      vertex 1.766775e+06 5.413970e+06 -9.407042e+02
    endloop
  endfacet
  facet normal -4.244864e-01 2.846567e-01 8.595242e-01
    outer loop
      vertex 1.766775e+06 5.413970e+06 -9.407042e+02
      vertex 1.768614e+06 5.413871e+06 0.000000e+00
      vertex 1.767869e+06 5.415624e+06 -9.481447e+02
    endloop
  endfacet
  facet normal -4.240315e-01 2.869758e-01 8.589774e-01
    outer loop
      vertex 1.767869e+06 5.415624e+06 -9.481447e+02
      vertex 1.769706e+06 5.415500e+06 0.000000e+00
      vertex 1.768972e+06 5.417308e+06 -9.660675e+02
    endloop
  endfacet
  facet normal -4.266825e-01 2.961346e-01 8.545445e-01
    outer loop
      vertex 1.768972e+06 5.417308e+06 -9.660675e+02
      vertex 1.770788e+06 5.417136e+06 0.000000e+00
      vertex 1.770094e+06 5.418974e+06 -9.837436e+02
    endloop
  endfacet
  facet normal -4.176236e-01 3.199749e-01 8.504155e-01
    outer loop
      vertex 1.770094e+06 5.418974e+06 -9.837436e+02
      vertex 1.771918e+06 5.418740e+06 0.000000e+00
      vertex 1.771294e+06 5.420548e+06 -9.866627e+02
    endloop
  endfacet
  facet normal -3.966077e-01 3.383822e-01 8.533462e-01
    outer loop
      vertex 1.771294e+06 5.420548e+06 -9.866627e+02
      vertex 1.773165e+06 5.420254e+06 0.000000e+00
      vertex 1.772541e+06 5.422042e+06 -9.990998e+02
    endloop
  endfacet
  facet normal -3.964190e-01 3.376794e-01 8.537123e-01
    outer loop
      vertex 1.772541e+06 5.422042e+06 -9.990998e+02
      vertex 1.774440e+06 5.421745e+06 0.000000e+00
      vertex 1.773646e+06 5.423790e+06 -1.177342e+03
    endloop
  endfacet
  facet normal -3.984549e-01 3.428707e-01 8.506899e-01
    outer loop
      vertex 1.773646e+06 5.423790e+06 -1.177342e+03
      vertex 1.775697e+06 5.423252e+06 0.000000e+00
      vertex 1.775210e+06 5.424776e+06 -8.419521e+02
    endloop
  endfacet
  facet normal -4.030919e-01 3.360880e-01 8.512119e-01
    outer loop
      vertex 1.775210e+06 5.424776e+06 -8.419521e+02
      vertex 1.776965e+06 5.424748e+06 0.000000e+00
      vertex 1.775932e+06 5.426296e+06 -1.100317e+03
    endloop
  endfacet
  facet normal -3.908834e-01 3.315554e-01 8.586508e-01
    outer loop
      vertex 1.775210e+06 5.424776e+06 -8.419521e+02
      vertex 1.775932e+06 5.426296e+06 -1.100317e+03
      vertex 1.773855e+06 5.425834e+06 -1.868053e+03
    endloop
  endfacet
  facet normal -3.906857e-01 3.272916e-01 8.603749e-01
    outer loop
      vertex 1.772254e+06 5.427118e+06 -3.112684e+03
      vertex 1.772946e+06 5.428972e+06 -3.503879e+03
      vertex 1.770784e+06 5.428397e+06 -4.266725e+03
    endloop
  endfacet
  facet normal -3.913710e-01 3.333846e-01 8.577199e-01
    outer loop
      vertex 1.770784e+06 5.428397e+06 -4.266725e+03
      vertex 1.772946e+06 5.428972e+06 -3.503879e+03
      vertex 1.771807e+06 5.430130e+06 -4.473790e+03
    endloop
  endfacet
  facet normal -3.942669e-01 3.372921e-01 8.548612e-01
    outer loop
      vertex 1.774438e+06 5.427650e+06 -2.315421e+03
      vertex 1.772254e+06 5.427118e+06 -3.112684e+03
      vertex 1.773855e+06 5.425834e+06 -1.868053e+03
    endloop
  endfacet
  facet normal -3.973222e-01 3.335385e-01 8.549194e-01
    outer loop
      vertex 1.773855e+06 5.425834e+06 -1.868053e+03
      vertex 1.772254e+06 5.427118e+06 -3.112684e+03
      vertex 1.771903e+06 5.425282e+06 -2.559542e+03
    endloop
  endfacet
  facet normal -2.515768e-01 4.841800e-01 8.380208e-01
    outer loop
      vertex 1.746716e+06 5.394722e+06 -9.267838e+02
      vertex 1.748304e+06 5.395740e+06 -1.038501e+03
      vertex 1.746788e+06 5.396284e+06 -1.807594e+03
    endloop
  endfacet
  facet normal -2.558107e-01 4.837824e-01 8.369681e-01
    outer loop
      vertex 1.745426e+06 5.395514e+06 -1.779130e+03
      vertex 1.746716e+06 5.394722e+06 -9.267838e+02
      vertex 1.746788e+06 5.396284e+06 -1.807594e+03
    endloop
  endfacet
  facet normal -2.562320e-01 4.845078e-01 8.364194e-01
    outer loop
      vertex 1.745426e+06 5.395514e+06 -1.779130e+03
      vertex 1.746788e+06 5.396284e+06 -1.807594e+03
      vertex 1.745185e+06 5.397055e+06 -2.745488e+03
    endloop
  endfacet
  facet normal -2.527057e-01 4.895591e-01 8.345488e-01
    outer loop
      vertex 1.745185e+06 5.397055e+06 -2.745488e+03
      vertex 1.746788e+06 5.396284e+06 -1.807594e+03
      vertex 1.748089e+06 5.397856e+06 -2.336605e+03
    endloop
  endfacet
  facet normal -2.580561e-01 4.840409e-01 8.361288e-01
    outer loop
      vertex 1.745426e+06 5.395514e+06 -1.779130e+03
      vertex 1.745185e+06 5.397055e+06 -2.745488e+03
      vertex 1.743634e+06 5.395268e+06 -2.189806e+03
    endloop
  endfacet
  facet normal -2.580511e-01 4.829300e-01 8.367725e-01
    outer loop
      vertex 1.745426e+06 5.395514e+06 -1.779130e+03
      vertex 1.743634e+06 5.395268e+06 -2.189806e+03
      vertex 1.745027e+06 5.394109e+06 -1.091381e+03
    endloop
  endfacet
  facet normal -2.504320e-01 4.874979e-01 8.364387e-01
    outer loop
      vertex 1.748304e+06 5.395740e+06 -1.038501e+03
      vertex 1.749963e+06 5.396598e+06 -1.042156e+03
      vertex 1.748089e+06 5.397856e+06 -2.336605e+03
    endloop
  endfacet
  facet normal -2.495961e-01 4.876733e-01 8.365862e-01
    outer loop
      vertex 1.748304e+06 5.395740e+06 -1.038501e+03
      vertex 1.748089e+06 5.397856e+06 -2.336605e+03
      vertex 1.746788e+06 5.396284e+06 -1.807594e+03
    endloop
  endfacet
  facet normal -2.518064e-01 4.861746e-01 8.367961e-01
    outer loop
      vertex 1.749963e+06 5.396598e+06 -1.042156e+03
      vertex 1.751841e+06 5.397371e+06 -9.258714e+02
      vertex 1.750327e+06 5.398074e+06 -1.790092e+03
    endloop
  endfacet
  facet normal -2.496284e-01 4.875404e-01 8.366541e-01
    outer loop
      vertex 1.751841e+06 5.397371e+06 -9.258714e+02
      vertex 1.753626e+06 5.398300e+06 -9.346613e+02
      vertex 1.751994e+06 5.399020e+06 -1.841235e+03
    endloop
  endfacet
  facet normal -2.476290e-01 4.843376e-01 8.391048e-01
    outer loop
      vertex 1.753626e+06 5.398300e+06 -9.346613e+02
      vertex 1.755493e+06 5.399277e+06 -9.475587e+02
      vertex 1.753812e+06 5.400014e+06 -1.868955e+03
    endloop
  endfacet
  facet normal -3.450166e-01 3.635111e-01 8.653458e-01
    outer loop
      vertex 1.755661e+06 5.401025e+06 -1.868127e+03
      vertex 1.757545e+06 5.400434e+06 -8.684437e+02
      vertex 1.757180e+06 5.402130e+06 -1.726547e+03
    endloop
  endfacet
  facet normal -2.571861e-01 4.694785e-01 8.446569e-01
    outer loop
      vertex 1.755493e+06 5.399277e+06 -9.475587e+02
      vertex 1.755661e+06 5.401025e+06 -1.868127e+03
      vertex 1.753812e+06 5.400014e+06 -1.868955e+03
    endloop
  endfacet
  facet normal -2.602134e-01 4.750161e-01 8.406240e-01
    outer loop
      vertex 1.753812e+06 5.400014e+06 -1.868955e+03
      vertex 1.755661e+06 5.401025e+06 -1.868127e+03
      vertex 1.753959e+06 5.401756e+06 -2.808077e+03
    endloop
  endfacet
  facet normal -4.303443e-01 2.868432e-01 8.558766e-01
    outer loop
      vertex 1.759971e+06 5.404104e+06 -1.009885e+03
      vertex 1.761169e+06 5.405793e+06 -9.738080e+02
      vertex 1.759186e+06 5.405852e+06 -1.990758e+03
    endloop
  endfacet
  facet normal -4.204304e-01 2.819950e-01 8.623903e-01
    outer loop
      vertex 1.761169e+06 5.405793e+06 -9.738080e+02
      vertex 1.762332e+06 5.407444e+06 -9.468467e+02
      vertex 1.760421e+06 5.407552e+06 -1.913571e+03
    endloop
  endfacet
  facet normal -4.221875e-01 2.860763e-01 8.601849e-01
    outer loop
      vertex 1.763474e+06 5.409060e+06 -9.279445e+02
      vertex 1.764586e+06 5.410696e+06 -9.267714e+02
      vertex 1.762757e+06 5.410782e+06 -1.852723e+03
    endloop
  endfacet
  facet normal -4.219834e-01 2.872440e-01 8.598959e-01
    outer loop
      vertex 1.764586e+06 5.410696e+06 -9.267714e+02
      vertex 1.765686e+06 5.412332e+06 -9.332268e+02
      vertex 1.763855e+06 5.412424e+06 -1.862296e+03
    endloop
  endfacet
  facet normal -4.272506e-01 2.880154e-01 8.570321e-01
    outer loop
      vertex 1.765686e+06 5.412332e+06 -9.332268e+02
      vertex 1.766775e+06 5.413970e+06 -9.407042e+02
      vertex 1.764914e+06 5.414065e+06 -1.900629e+03
    endloop
  endfacet
  facet normal -4.257291e-01 2.854747e-01 8.586379e-01
    outer loop
      vertex 1.766775e+06 5.413970e+06 -9.407042e+02
      vertex 1.767869e+06 5.415624e+06 -9.481447e+02
      vertex 1.766002e+06 5.415705e+06 -1.901021e+03
    endloop
  endfacet
  facet normal -4.231609e-01 2.864119e-01 8.595948e-01
    outer loop
      vertex 1.767869e+06 5.415624e+06 -9.481447e+02
      vertex 1.768972e+06 5.417308e+06 -9.660675e+02
      vertex 1.767132e+06 5.417396e+06 -1.901597e+03
    endloop
  endfacet
  facet normal -3.953497e-01 3.370781e-01 8.544454e-01
    outer loop
      vertex 1.772541e+06 5.422042e+06 -9.990998e+02
      vertex 1.773646e+06 5.423790e+06 -1.177342e+03
      vertex 1.771828e+06 5.423592e+06 -1.940382e+03
    endloop
  endfacet
  facet normal -3.920877e-01 3.300449e-01 8.586836e-01
    outer loop
      vertex 1.773646e+06 5.423790e+06 -1.177342e+03
      vertex 1.775210e+06 5.424776e+06 -8.419521e+02
      vertex 1.773855e+06 5.425834e+06 -1.868053e+03
    endloop
  endfacet
  facet normal -3.860962e-01 3.329988e-01 8.602566e-01
    outer loop
      vertex 1.771903e+06 5.425282e+06 -2.559542e+03
      vertex 1.772254e+06 5.427118e+06 -3.112684e+03
      vertex 1.769783e+06 5.426656e+06 -4.042672e+03
    endloop
  endfacet
  facet normal -3.860826e-01 3.326135e-01 8.604118e-01
    outer loop
      vertex 1.769783e+06 5.426656e+06 -4.042672e+03
      vertex 1.772254e+06 5.427118e+06 -3.112684e+03
      vertex 1.770784e+06 5.428397e+06 -4.266725e+03
    endloop
  endfacet
  facet normal -3.968563e-01 3.298188e-01 8.565773e-01
    outer loop
      vertex 1.773855e+06 5.425834e+06 -1.868053e+03
      vertex 1.771903e+06 5.425282e+06 -2.559542e+03
      vertex 1.773646e+06 5.423790e+06 -1.177342e+03
    endloop
  endfacet
  facet normal -4.152771e-01 3.379144e-01 8.446057e-01
    outer loop
      vertex 1.757180e+06 5.402130e+06 -1.726547e+03
      vertex 1.757545e+06 5.400434e+06 -8.684437e+02
      vertex 1.758889e+06 5.402338e+06 -9.696561e+02
    endloop
  endfacet
  facet normal -3.544887e-01 3.778178e-01 8.553312e-01
    outer loop
      vertex 1.755661e+06 5.401025e+06 -1.868127e+03
      vertex 1.757180e+06 5.402130e+06 -1.726547e+03
      vertex 1.755782e+06 5.402880e+06 -2.636943e+03
    endloop
  endfacet
  facet normal -3.162356e-01 3.809174e-01 8.688481e-01
    outer loop
      vertex 1.753959e+06 5.401756e+06 -2.808077e+03
      vertex 1.755661e+06 5.401025e+06 -1.868127e+03
      vertex 1.755782e+06 5.402880e+06 -2.636943e+03
    endloop
  endfacet
  facet normal -2.596559e-01 4.750513e-01 8.407764e-01
    outer loop
      vertex 1.753812e+06 5.400014e+06 -1.868955e+03
      vertex 1.753959e+06 5.401756e+06 -2.808077e+03
      vertex 1.752064e+06 5.400679e+06 -2.784601e+03
    endloop
  endfacet
  facet normal -4.189803e-01 2.900661e-01 8.604168e-01
    outer loop
      vertex 1.760421e+06 5.407552e+06 -1.913571e+03
      vertex 1.762332e+06 5.407444e+06 -9.468467e+02
      vertex 1.761594e+06 5.409176e+06 -1.890340e+03
    endloop
  endfacet
  facet normal -4.321923e-01 2.750723e-01 8.588044e-01
    outer loop
      vertex 1.761169e+06 5.405793e+06 -9.738080e+02
      vertex 1.760421e+06 5.407552e+06 -1.913571e+03
      vertex 1.759186e+06 5.405852e+06 -1.990758e+03
    endloop
  endfacet
  facet normal -4.219862e-01 2.872423e-01 8.598951e-01
    outer loop
      vertex 1.762757e+06 5.410782e+06 -1.852723e+03
      vertex 1.764586e+06 5.410696e+06 -9.267714e+02
      vertex 1.763855e+06 5.412424e+06 -1.862296e+03
    endloop
  endfacet
  facet normal -4.223843e-01 2.859628e-01 8.601261e-01
    outer loop
      vertex 1.763474e+06 5.409060e+06 -9.279445e+02
      vertex 1.762757e+06 5.410782e+06 -1.852723e+03
      vertex 1.761594e+06 5.409176e+06 -1.890340e+03
    endloop
  endfacet
  facet normal -4.219434e-01 2.883313e-01 8.595515e-01
    outer loop
      vertex 1.763474e+06 5.409060e+06 -9.279445e+02
      vertex 1.761594e+06 5.409176e+06 -1.890340e+03
      vertex 1.762332e+06 5.407444e+06 -9.468467e+02
    endloop
  endfacet
  facet normal -4.258326e-01 2.848661e-01 8.587886e-01
    outer loop
      vertex 1.766002e+06 5.415705e+06 -1.901021e+03
      vertex 1.767869e+06 5.415624e+06 -9.481447e+02
      vertex 1.767132e+06 5.417396e+06 -1.901597e+03
    endloop
  endfacet
  facet normal -4.279400e-01 2.841278e-01 8.579853e-01
    outer loop
      vertex 1.766775e+06 5.413970e+06 -9.407042e+02
      vertex 1.766002e+06 5.415705e+06 -1.901021e+03
      vertex 1.764914e+06 5.414065e+06 -1.900629e+03
    endloop
  endfacet
  facet normal -4.204327e-01 3.017682e-01 8.556707e-01
    outer loop
      vertex 1.767132e+06 5.417396e+06 -1.901597e+03
      vertex 1.768972e+06 5.417308e+06 -9.660675e+02
      vertex 1.768245e+06 5.419179e+06 -1.983395e+03
    endloop
  endfacet
  facet normal -3.956162e-01 3.312781e-01 8.565878e-01
    outer loop
      vertex 1.771828e+06 5.423592e+06 -1.940382e+03
      vertex 1.773646e+06 5.423790e+06 -1.177342e+03
      vertex 1.771903e+06 5.425282e+06 -2.559542e+03
    endloop
  endfacet
  facet normal -3.885534e-01 3.320413e-01 8.595201e-01
    outer loop
      vertex 1.771828e+06 5.423592e+06 -1.940382e+03
      vertex 1.771903e+06 5.425282e+06 -2.559542e+03
      vertex 1.770228e+06 5.424382e+06 -2.969086e+03
    endloop
  endfacet
  facet normal -3.958568e-01 3.367749e-01 8.543302e-01
    outer loop
      vertex 1.772541e+06 5.422042e+06 -9.990998e+02
      vertex 1.771828e+06 5.423592e+06 -1.940382e+03
      vertex 1.770673e+06 5.422384e+06 -1.999414e+03
    endloop
  endfacet
  facet normal -3.425510e-01 4.286325e-01 8.360221e-01
    outer loop
      vertex 1.753959e+06 5.401756e+06 -2.808077e+03
      vertex 1.755782e+06 5.402880e+06 -2.636943e+03
      vertex 1.754024e+06 5.403559e+06 -3.705621e+03
    endloop
  endfacet
  facet normal -4.294129e-01 2.729588e-01 8.608705e-01
    outer loop
      vertex 1.759186e+06 5.405852e+06 -1.990758e+03
      vertex 1.760421e+06 5.407552e+06 -1.913571e+03
      vertex 1.758531e+06 5.407720e+06 -2.909799e+03
    endloop
  endfacet
  facet normal -4.256970e-01 2.897086e-01 8.572345e-01
    outer loop
      vertex 1.762757e+06 5.410782e+06 -1.852723e+03
      vertex 1.763855e+06 5.412424e+06 -1.862296e+03
      vertex 1.762101e+06 5.412476e+06 -2.750981e+03
    endloop
  endfacet
  facet normal -4.244358e-01 2.874852e-01 8.586073e-01
    outer loop
      vertex 1.761594e+06 5.409176e+06 -1.890340e+03
      vertex 1.762757e+06 5.410782e+06 -1.852723e+03
      vertex 1.760918e+06 5.410944e+06 -2.816389e+03
    endloop
  endfacet
  facet normal -4.310822e-01 2.883731e-01 8.549907e-01
    outer loop
      vertex 1.766002e+06 5.415705e+06 -1.901021e+03
      vertex 1.767132e+06 5.417396e+06 -1.901597e+03
      vertex 1.765247e+06 5.417436e+06 -2.865468e+03
    endloop
  endfacet
  facet normal -4.321901e-01 2.869469e-01 8.549113e-01
    outer loop
      vertex 1.764914e+06 5.414065e+06 -1.900629e+03
      vertex 1.766002e+06 5.415705e+06 -1.901021e+03
      vertex 1.764045e+06 5.415812e+06 -2.925874e+03
    endloop
  endfacet
  facet normal -3.879029e-01 3.304113e-01 8.604416e-01
    outer loop
      vertex 1.770228e+06 5.424382e+06 -2.969086e+03
      vertex 1.771903e+06 5.425282e+06 -2.559542e+03
      vertex 1.769783e+06 5.426656e+06 -4.042672e+03
    endloop
  endfacet
  facet normal -3.894850e-01 3.304186e-01 8.597238e-01
    outer loop
      vertex 1.771828e+06 5.423592e+06 -1.940382e+03
      vertex 1.770228e+06 5.424382e+06 -2.969086e+03
      vertex 1.770673e+06 5.422384e+06 -1.999414e+03
    endloop
  endfacet
  facet normal -3.956102e-01 3.375556e-01 8.541363e-01
    outer loop
      vertex 1.772541e+06 5.422042e+06 -9.990998e+02
      vertex 1.770673e+06 5.422384e+06 -1.999414e+03
      vertex 1.771294e+06 5.420548e+06 -9.866627e+02
    endloop
  endfacet
  facet normal -4.304206e-01 2.926357e-01 8.538749e-01
    outer loop
      vertex 1.765247e+06 5.417436e+06 -2.865468e+03
      vertex 1.767132e+06 5.417396e+06 -1.901597e+03
      vertex 1.766431e+06 5.419132e+06 -2.849791e+03
    endloop
  endfacet
  facet normal -4.320351e-01 2.877974e-01 8.547037e-01
    outer loop
      vertex 1.766002e+06 5.415705e+06 -1.901021e+03
      vertex 1.765247e+06 5.417436e+06 -2.865468e+03
      vertex 1.764045e+06 5.415812e+06 -2.925874e+03
    endloop
  endfacet
  facet normal -3.982363e-01 3.362724e-01 8.534218e-01
    outer loop
      vertex 1.771294e+06 5.420548e+06 -9.866627e+02
      vertex 1.770673e+06 5.422384e+06 -1.999414e+03
      vertex 1.769396e+06 5.420880e+06 -2.002814e+03
    endloop
  endfacet
  facet normal -4.338801e-01 2.892148e-01 8.532894e-01
    outer loop
      vertex 1.764045e+06 5.415812e+06 -2.925874e+03
      vertex 1.765247e+06 5.417436e+06 -2.865468e+03
      vertex 1.763289e+06 5.417582e+06 -3.910101e+03
    endloop
  endfacet
  facet normal -3.877622e-01 3.273585e-01 8.616710e-01
    outer loop
      vertex 1.769396e+06 5.420880e+06 -2.002814e+03
      vertex 1.770673e+06 5.422384e+06 -1.999414e+03
      vertex 1.768866e+06 5.422916e+06 -3.014830e+03
    endloop
  endfacet
  facet normal -4.058478e-01 3.110136e-01 8.593941e-01
    outer loop
      vertex 1.771294e+06 5.420548e+06 -9.866627e+02
      vertex 1.769396e+06 5.420880e+06 -2.002814e+03
      vertex 1.770094e+06 5.418974e+06 -9.837436e+02
    endloop
  endfacet
  facet normal -3.862881e-01 3.309687e-01 8.609537e-01
    outer loop
      vertex 1.769783e+06 5.426656e+06 -4.042672e+03
      vertex 1.768486e+06 5.425102e+06 -4.027517e+03
      vertex 1.770228e+06 5.424382e+06 -2.969086e+03
    endloop
  endfacet
  facet normal -3.904746e-01 3.301927e-01 8.593616e-01
    outer loop
      vertex 1.768486e+06 5.425102e+06 -4.027517e+03
      vertex 1.767157e+06 5.423574e+06 -4.044178e+03
      vertex 1.768866e+06 5.422916e+06 -3.014830e+03
    endloop
  endfacet
  facet normal -3.859324e-01 3.316670e-01 8.608444e-01
    outer loop
      vertex 1.768486e+06 5.425102e+06 -4.027517e+03
      vertex 1.768866e+06 5.422916e+06 -3.014830e+03
      vertex 1.770228e+06 5.424382e+06 -2.969086e+03
    endloop
  endfacet
  facet normal -3.859880e-01 3.317200e-01 8.607991e-01
    outer loop
      vertex 1.770228e+06 5.424382e+06 -2.969086e+03
      vertex 1.768866e+06 5.422916e+06 -3.014830e+03
      vertex 1.770673e+06 5.422384e+06 -1.999414e+03
    endloop
  endfacet
  facet normal -4.106500e-01 3.069393e-01 8.585772e-01
    outer loop
      vertex 1.767157e+06 5.423574e+06 -4.044178e+03
      vertex 1.765714e+06 5.422167e+06 -4.231211e+03
      vertex 1.767399e+06 5.421220e+06 -3.086997e+03
    endloop
  endfacet
  facet normal -4.276050e-01 2.921876e-01 8.554416e-01
    outer loop
      vertex 1.765714e+06 5.422167e+06 -4.231211e+03
      vertex 1.764259e+06 5.420782e+06 -4.485645e+03
      vertex 1.765712e+06 5.420493e+06 -3.660547e+03
    endloop
  endfacet
  facet normal -4.302996e-01 2.833528e-01 8.570610e-01
    outer loop
      vertex 1.764259e+06 5.420782e+06 -4.485645e+03
      vertex 1.762778e+06 5.419434e+06 -4.783623e+03
      vertex 1.764593e+06 5.419102e+06 -3.762471e+03
    endloop
  endfacet
  facet normal -4.269522e-01 2.865387e-01 8.576756e-01
    outer loop
      vertex 1.762778e+06 5.419434e+06 -4.783623e+03
      vertex 1.761313e+06 5.418061e+06 -5.053916e+03
      vertex 1.763289e+06 5.417582e+06 -3.910101e+03
    endloop
  endfacet
  facet normal -4.223966e-01 2.905636e-01 8.585767e-01
    outer loop
      vertex 1.761313e+06 5.418061e+06 -5.053916e+03
      vertex 1.759864e+06 5.416667e+06 -5.295528e+03
      vertex 1.761894e+06 5.415902e+06 -4.037746e+03
    endloop
  endfacet
  facet normal -4.206016e-01 2.930015e-01 8.586293e-01
    outer loop
      vertex 1.759864e+06 5.416667e+06 -5.295528e+03
      vertex 1.758381e+06 5.415312e+06 -5.559519e+03
      vertex 1.760119e+06 5.414682e+06 -4.492801e+03
    endloop
  endfacet
  facet normal -4.283178e-01 2.916008e-01 8.552852e-01
    outer loop
      vertex 1.758381e+06 5.415312e+06 -5.559519e+03
      vertex 1.756914e+06 5.413942e+06 -5.826971e+03
      vertex 1.758667e+06 5.413286e+06 -4.725613e+03
    endloop
  endfacet
  facet normal -4.288898e-01 2.925880e-01 8.546612e-01
    outer loop
      vertex 1.756914e+06 5.413942e+06 -5.826971e+03
      vertex 1.755445e+06 5.412574e+06 -6.096123e+03
      vertex 1.757216e+06 5.411838e+06 -4.954809e+03
    endloop
  endfacet
  facet normal -4.447513e-01 2.808731e-01 8.504744e-01
    outer loop
      vertex 1.755445e+06 5.412574e+06 -6.096123e+03
      vertex 1.753965e+06 5.411234e+06 -6.427109e+03
      vertex 1.755659e+06 5.410514e+06 -5.303409e+03
    endloop
  endfacet
  facet normal -4.374720e-01 2.857027e-01 8.526384e-01
    outer loop
      vertex 1.753965e+06 5.411234e+06 -6.427109e+03
      vertex 1.752320e+06 5.410178e+06 -6.917201e+03
      vertex 1.753935e+06 5.409328e+06 -5.804119e+03
    endloop
  endfacet
  facet normal -4.310550e-01 2.952206e-01 8.526643e-01
    outer loop
      vertex 1.752320e+06 5.410178e+06 -6.917201e+03
      vertex 1.750589e+06 5.409310e+06 -7.491921e+03
      vertex 1.752116e+06 5.408202e+06 -6.336333e+03
    endloop
  endfacet
  facet normal -4.240880e-01 3.297204e-01 8.434653e-01
    outer loop
      vertex 1.750589e+06 5.409310e+06 -7.491921e+03
      vertex 1.748880e+06 5.408346e+06 -7.974470e+03
      vertex 1.749987e+06 5.407023e+06 -6.900504e+03
    endloop
  endfacet
  facet normal -3.108705e-01 4.284924e-01 8.483830e-01
    outer loop
      vertex 1.748880e+06 5.408346e+06 -7.974470e+03
      vertex 1.747353e+06 5.407048e+06 -7.878412e+03
      vertex 1.749987e+06 5.407023e+06 -6.900504e+03
    endloop
  endfacet
  facet normal -2.576064e-01 4.841108e-01 8.362271e-01
    outer loop
      vertex 1.747353e+06 5.407048e+06 -7.878412e+03
      vertex 1.746051e+06 5.405568e+06 -7.422805e+03
      vertex 1.748227e+06 5.405438e+06 -6.676986e+03
    endloop
  endfacet
  facet normal -2.515070e-01 4.912277e-01 8.339302e-01
    outer loop
      vertex 1.746051e+06 5.405568e+06 -7.422805e+03
      vertex 1.744788e+06 5.404071e+06 -6.921878e+03
      vertex 1.746744e+06 5.404029e+06 -6.306907e+03
    endloop
  endfacet
  facet normal -2.536054e-01 4.846873e-01 8.371156e-01
    outer loop
      vertex 1.744788e+06 5.404071e+06 -6.921878e+03
      vertex 1.743469e+06 5.402605e+06 -6.472299e+03
      vertex 1.745499e+06 5.402458e+06 -5.772734e+03
    endloop
  endfacet
  facet normal -2.526284e-01 4.829204e-01 8.384311e-01
    outer loop
      vertex 1.743469e+06 5.402605e+06 -6.472299e+03
      vertex 1.742400e+06 5.401014e+06 -5.878519e+03
      vertex 1.744418e+06 5.400522e+06 -4.987196e+03
    endloop
  endfacet
  facet normal -2.578935e-01 4.818424e-01 8.374478e-01
    outer loop
      vertex 1.742400e+06 5.401014e+06 -5.878519e+03
      vertex 1.741307e+06 5.399462e+06 -5.321769e+03
      vertex 1.742579e+06 5.398864e+06 -4.585855e+03
    endloop
  endfacet
  facet normal -2.517177e-01 4.831887e-01 8.385504e-01
    outer loop
      vertex 1.741307e+06 5.399462e+06 -5.321769e+03
      vertex 1.739446e+06 5.398750e+06 -5.469905e+03
      vertex 1.740844e+06 5.397587e+06 -4.380663e+03
    endloop
  endfacet
  facet normal -4.248944e-01 2.801349e-01 8.608072e-01
    outer loop
      vertex 1.758889e+06 5.402338e+06 -9.696561e+02
      vertex 1.759971e+06 5.404104e+06 -1.009885e+03
      vertex 1.757747e+06 5.404042e+06 -2.087567e+03
    endloop
  endfacet
  facet normal -4.284691e-01 2.973228e-01 8.532370e-01
    outer loop
      vertex 1.768972e+06 5.417308e+06 -9.660675e+02
      vertex 1.770094e+06 5.418974e+06 -9.837436e+02
      vertex 1.768245e+06 5.419179e+06 -1.983395e+03
    endloop
  endfacet
  facet normal -2.523535e-01 4.876636e-01 8.357643e-01
    outer loop
      vertex 1.745185e+06 5.397055e+06 -2.745488e+03
      vertex 1.748089e+06 5.397856e+06 -2.336605e+03
      vertex 1.746163e+06 5.399138e+06 -3.665693e+03
    endloop
  endfacet
  facet normal -2.509266e-01 4.874684e-01 8.363076e-01
    outer loop
      vertex 1.750327e+06 5.398074e+06 -1.790092e+03
      vertex 1.751841e+06 5.397371e+06 -9.258714e+02
      vertex 1.751994e+06 5.399020e+06 -1.841235e+03
    endloop
  endfacet
  facet normal -2.512069e-01 4.879429e-01 8.359467e-01
    outer loop
      vertex 1.750327e+06 5.398074e+06 -1.790092e+03
      vertex 1.751994e+06 5.399020e+06 -1.841235e+03
      vertex 1.750128e+06 5.399501e+06 -2.682700e+03
    endloop
  endfacet
  facet normal -2.516204e-01 4.861611e-01 8.368599e-01
    outer loop
      vertex 1.749963e+06 5.396598e+06 -1.042156e+03
      vertex 1.750327e+06 5.398074e+06 -1.790092e+03
      vertex 1.748089e+06 5.397856e+06 -2.336605e+03
    endloop
  endfacet
  facet normal -2.518378e-01 4.841661e-01 8.379504e-01
    outer loop
      vertex 1.751994e+06 5.399020e+06 -1.841235e+03
      vertex 1.753626e+06 5.398300e+06 -9.346613e+02
      vertex 1.753812e+06 5.400014e+06 -1.868955e+03
    endloop
  endfacet
  facet normal -2.530420e-01 4.863244e-01 8.363363e-01
    outer loop
      vertex 1.751994e+06 5.399020e+06 -1.841235e+03
      vertex 1.753812e+06 5.400014e+06 -1.868955e+03
      vertex 1.752064e+06 5.400679e+06 -2.784601e+03
    endloop
  endfacet
  facet normal -2.518972e-01 4.864358e-01 8.366171e-01
    outer loop
      vertex 1.751994e+06 5.399020e+06 -1.841235e+03
      vertex 1.752064e+06 5.400679e+06 -2.784601e+03
      vertex 1.750128e+06 5.399501e+06 -2.682700e+03
    endloop
  endfacet
  facet normal -2.502883e-01 4.839570e-01 8.385352e-01
    outer loop
      vertex 1.750128e+06 5.399501e+06 -2.682700e+03
      vertex 1.752064e+06 5.400679e+06 -2.784601e+03
      vertex 1.750305e+06 5.401305e+06 -3.671196e+03
    endloop
  endfacet
  facet normal -2.557686e-01 4.741431e-01 8.424789e-01
    outer loop
      vertex 1.750305e+06 5.401305e+06 -3.671196e+03
      vertex 1.752064e+06 5.400679e+06 -2.784601e+03
      vertex 1.752173e+06 5.402448e+06 -3.746760e+03
    endloop
  endfacet
  facet normal -2.543929e-01 4.837488e-01 8.374195e-01
    outer loop
      vertex 1.750128e+06 5.399501e+06 -2.682700e+03
      vertex 1.750305e+06 5.401305e+06 -3.671196e+03
      vertex 1.748313e+06 5.400084e+06 -3.571098e+03
    endloop
  endfacet
  facet normal -4.237384e-01 2.908944e-01 8.578031e-01
    outer loop
      vertex 1.759971e+06 5.404104e+06 -1.009885e+03
      vertex 1.759186e+06 5.405852e+06 -1.990758e+03
      vertex 1.757747e+06 5.404042e+06 -2.087567e+03
    endloop
  endfacet
  facet normal -4.211956e-01 2.916904e-01 8.587846e-01
    outer loop
      vertex 1.763855e+06 5.412424e+06 -1.862296e+03
      vertex 1.765686e+06 5.412332e+06 -9.332268e+02
      vertex 1.764914e+06 5.414065e+06 -1.900629e+03
    endloop
  endfacet
  facet normal -4.259609e-01 2.946846e-01 8.554053e-01
    outer loop
      vertex 1.763855e+06 5.412424e+06 -1.862296e+03
      vertex 1.764914e+06 5.414065e+06 -1.900629e+03
      vertex 1.763080e+06 5.414140e+06 -2.839642e+03
    endloop
  endfacet
  facet normal -4.108856e-01 2.854044e-01 8.658622e-01
    outer loop
      vertex 1.755782e+06 5.402880e+06 -2.636943e+03
      vertex 1.757180e+06 5.402130e+06 -1.726547e+03
      vertex 1.757747e+06 5.404042e+06 -2.087567e+03
    endloop
  endfacet
  facet normal -4.169764e-01 2.865866e-01 8.625537e-01
    outer loop
      vertex 1.757747e+06 5.404042e+06 -2.087567e+03
      vertex 1.757180e+06 5.402130e+06 -1.726547e+03
      vertex 1.758889e+06 5.402338e+06 -9.696561e+02
    endloop
  endfacet
  facet normal -2.589822e-01 4.738853e-01 8.416418e-01
    outer loop
      vertex 1.752064e+06 5.400679e+06 -2.784601e+03
      vertex 1.753959e+06 5.401756e+06 -2.808077e+03
      vertex 1.752173e+06 5.402448e+06 -3.746760e+03
    endloop
  endfacet
  facet normal -2.807522e-01 4.358886e-01 8.550903e-01
    outer loop
      vertex 1.752173e+06 5.402448e+06 -3.746760e+03
      vertex 1.753959e+06 5.401756e+06 -2.808077e+03
      vertex 1.754024e+06 5.403559e+06 -3.705621e+03
    endloop
  endfacet
  facet normal -2.900046e-01 4.517177e-01 8.437111e-01
    outer loop
      vertex 1.752173e+06 5.402448e+06 -3.746760e+03
      vertex 1.754024e+06 5.403559e+06 -3.705621e+03
      vertex 1.752201e+06 5.404291e+06 -4.724153e+03
    endloop
  endfacet
  facet normal -3.580956e-01 3.256838e-01 8.750415e-01
    outer loop
      vertex 1.752201e+06 5.404291e+06 -4.724153e+03
      vertex 1.754024e+06 5.403559e+06 -3.705621e+03
      vertex 1.753939e+06 5.405460e+06 -4.448230e+03
    endloop
  endfacet
  facet normal -2.732286e-01 4.538254e-01 8.481678e-01
    outer loop
      vertex 1.752173e+06 5.402448e+06 -3.746760e+03
      vertex 1.752201e+06 5.404291e+06 -4.724153e+03
      vertex 1.750406e+06 5.403135e+06 -4.684134e+03
    endloop
  endfacet
  facet normal -3.905549e-01 3.828540e-01 8.371915e-01
    outer loop
      vertex 1.752201e+06 5.404291e+06 -4.724153e+03
      vertex 1.753939e+06 5.405460e+06 -4.448230e+03
      vertex 1.752079e+06 5.406213e+06 -5.659863e+03
    endloop
  endfacet
  facet normal -4.210422e-01 2.915758e-01 8.588987e-01
    outer loop
      vertex 1.760421e+06 5.407552e+06 -1.913571e+03
      vertex 1.761594e+06 5.409176e+06 -1.890340e+03
      vertex 1.759654e+06 5.409375e+06 -2.908562e+03
    endloop
  endfacet
  facet normal -4.174373e-01 2.999936e-01 8.577587e-01
    outer loop
      vertex 1.767132e+06 5.417396e+06 -1.901597e+03
      vertex 1.768245e+06 5.419179e+06 -1.983395e+03
      vertex 1.766431e+06 5.419132e+06 -2.849791e+03
    endloop
  endfacet
  facet normal -4.183747e-01 2.916542e-01 8.601747e-01
    outer loop
      vertex 1.766431e+06 5.419132e+06 -2.849791e+03
      vertex 1.768245e+06 5.419179e+06 -1.983395e+03
      vertex 1.767399e+06 5.421220e+06 -3.086997e+03
    endloop
  endfacet
  facet normal -4.067046e-01 3.031905e-01 8.617812e-01
    outer loop
      vertex 1.754024e+06 5.403559e+06 -3.705621e+03
      vertex 1.755782e+06 5.402880e+06 -2.636943e+03
      vertex 1.755756e+06 5.404756e+06 -3.309155e+03
    endloop
  endfacet
  facet normal -4.261709e-01 2.885889e-01 8.573768e-01
    outer loop
      vertex 1.758531e+06 5.407720e+06 -2.909799e+03
      vertex 1.760421e+06 5.407552e+06 -1.913571e+03
      vertex 1.759654e+06 5.409375e+06 -2.908562e+03
    endloop
  endfacet
  facet normal -4.207485e-01 2.773963e-01 8.637257e-01
    outer loop
      vertex 1.759186e+06 5.405852e+06 -1.990758e+03
      vertex 1.758531e+06 5.407720e+06 -2.909799e+03
      vertex 1.757321e+06 5.406058e+06 -2.965488e+03
    endloop
  endfacet
  facet normal -4.247718e-01 2.954150e-01 8.557447e-01
    outer loop
      vertex 1.762101e+06 5.412476e+06 -2.750981e+03
      vertex 1.763855e+06 5.412424e+06 -1.862296e+03
      vertex 1.763080e+06 5.414140e+06 -2.839642e+03
    endloop
  endfacet
  facet normal -4.261279e-01 2.961628e-01 8.548115e-01
    outer loop
      vertex 1.762101e+06 5.412476e+06 -2.750981e+03
      vertex 1.763080e+06 5.414140e+06 -2.839642e+03
      vertex 1.761522e+06 5.414020e+06 -3.574619e+03
    endloop
  endfacet
  facet normal -4.237414e-01 2.907861e-01 8.578384e-01
    outer loop
      vertex 1.762757e+06 5.410782e+06 -1.852723e+03
      vertex 1.762101e+06 5.412476e+06 -2.750981e+03
      vertex 1.760918e+06 5.410944e+06 -2.816389e+03
    endloop
  endfacet
  facet normal -4.249257e-01 2.917400e-01 8.569282e-01
    outer loop
      vertex 1.760918e+06 5.410944e+06 -2.816389e+03
      vertex 1.762101e+06 5.412476e+06 -2.750981e+03
      vertex 1.760368e+06 5.412751e+06 -3.704153e+03
    endloop
  endfacet
  facet normal -4.216102e-01 2.890233e-01 8.594826e-01
    outer loop
      vertex 1.761594e+06 5.409176e+06 -1.890340e+03
      vertex 1.760918e+06 5.410944e+06 -2.816389e+03
      vertex 1.759654e+06 5.409375e+06 -2.908562e+03
    endloop
  endfacet
  facet normal -4.233844e-01 2.905331e-01 8.581004e-01
    outer loop
      vertex 1.759654e+06 5.409375e+06 -2.908562e+03
      vertex 1.760918e+06 5.410944e+06 -2.816389e+03
      vertex 1.759031e+06 5.411278e+06 -3.860040e+03
    endloop
  endfacet
  facet normal -4.266640e-01 2.905992e-01 8.564519e-01
    outer loop
      vertex 1.764914e+06 5.414065e+06 -1.900629e+03
      vertex 1.764045e+06 5.415812e+06 -2.925874e+03
      vertex 1.763080e+06 5.414140e+06 -2.839642e+03
    endloop
  endfacet
  facet normal -4.293827e-01 2.920732e-01 8.545898e-01
    outer loop
      vertex 1.763080e+06 5.414140e+06 -2.839642e+03
      vertex 1.764045e+06 5.415812e+06 -2.925874e+03
      vertex 1.761894e+06 5.415902e+06 -4.037746e+03
    endloop
  endfacet
  facet normal -4.294176e-01 2.918718e-01 8.546411e-01
    outer loop
      vertex 1.761894e+06 5.415902e+06 -4.037746e+03
      vertex 1.764045e+06 5.415812e+06 -2.925874e+03
      vertex 1.763289e+06 5.417582e+06 -3.910101e+03
    endloop
  endfacet
  facet normal -4.261360e-01 2.889448e-01 8.572742e-01
    outer loop
      vertex 1.761894e+06 5.415902e+06 -4.037746e+03
      vertex 1.763289e+06 5.417582e+06 -3.910101e+03
      vertex 1.761313e+06 5.418061e+06 -5.053916e+03
    endloop
  endfacet
  facet normal -4.292393e-01 2.918028e-01 8.547542e-01
    outer loop
      vertex 1.765247e+06 5.417436e+06 -2.865468e+03
      vertex 1.766431e+06 5.419132e+06 -2.849791e+03
      vertex 1.764593e+06 5.419102e+06 -3.762471e+03
    endloop
  endfacet
  facet normal -4.338843e-01 2.891941e-01 8.532943e-01
    outer loop
      vertex 1.765247e+06 5.417436e+06 -2.865468e+03
      vertex 1.764593e+06 5.419102e+06 -3.762471e+03
      vertex 1.763289e+06 5.417582e+06 -3.910101e+03
    endloop
  endfacet
  facet normal -4.297364e-01 2.853071e-01 8.566951e-01
    outer loop
      vertex 1.763289e+06 5.417582e+06 -3.910101e+03
      vertex 1.764593e+06 5.419102e+06 -3.762471e+03
      vertex 1.762778e+06 5.419434e+06 -4.783623e+03
    endloop
  endfacet
  facet normal -4.098755e-01 3.181976e-01 8.548406e-01
    outer loop
      vertex 1.769396e+06 5.420880e+06 -2.002814e+03
      vertex 1.768866e+06 5.422916e+06 -3.014830e+03
      vertex 1.767399e+06 5.421220e+06 -3.086997e+03
    endloop
  endfacet
  facet normal -4.003064e-01 3.095938e-01 8.625001e-01
    outer loop
      vertex 1.767399e+06 5.421220e+06 -3.086997e+03
      vertex 1.768866e+06 5.422916e+06 -3.014830e+03
      vertex 1.767157e+06 5.423574e+06 -4.044178e+03
    endloop
  endfacet
  facet normal -4.173410e-01 2.922460e-01 8.604759e-01
    outer loop
      vertex 1.769396e+06 5.420880e+06 -2.002814e+03
      vertex 1.767399e+06 5.421220e+06 -3.086997e+03
      vertex 1.768245e+06 5.419179e+06 -1.983395e+03
    endloop
  endfacet
  facet normal -4.279882e-01 2.993632e-01 8.527648e-01
    outer loop
      vertex 1.769396e+06 5.420880e+06 -2.002814e+03
      vertex 1.768245e+06 5.419179e+06 -1.983395e+03
      vertex 1.770094e+06 5.418974e+06 -9.837436e+02
    endloop
  endfacet
  facet normal -4.187374e-01 2.935144e-01 8.593651e-01
    outer loop
      vertex 1.767399e+06 5.421220e+06 -3.086997e+03
      vertex 1.765714e+06 5.422167e+06 -4.231211e+03
      vertex 1.765712e+06 5.420493e+06 -3.660547e+03
    endloop
  endfacet
  facet normal -4.302814e-01 2.833593e-01 8.570679e-01
    outer loop
      vertex 1.765712e+06 5.420493e+06 -3.660547e+03
      vertex 1.764259e+06 5.420782e+06 -4.485645e+03
      vertex 1.764593e+06 5.419102e+06 -3.762471e+03
    endloop
  endfacet
  facet normal -4.302579e-01 2.833391e-01 8.570864e-01
    outer loop
      vertex 1.765712e+06 5.420493e+06 -3.660547e+03
      vertex 1.764593e+06 5.419102e+06 -3.762471e+03
      vertex 1.766431e+06 5.419132e+06 -2.849791e+03
    endloop
  endfacet
  facet normal -4.182179e-01 2.915925e-01 8.602718e-01
    outer loop
      vertex 1.765712e+06 5.420493e+06 -3.660547e+03
      vertex 1.766431e+06 5.419132e+06 -2.849791e+03
      vertex 1.767399e+06 5.421220e+06 -3.086997e+03
    endloop
  endfacet
  facet normal -4.214025e-01 2.927715e-01 8.583151e-01
    outer loop
      vertex 1.761894e+06 5.415902e+06 -4.037746e+03
      vertex 1.759864e+06 5.416667e+06 -5.295528e+03
      vertex 1.760119e+06 5.414682e+06 -4.492801e+03
    endloop
  endfacet
  facet normal -4.201283e-01 2.940755e-01 8.584939e-01
    outer loop
      vertex 1.760119e+06 5.414682e+06 -4.492801e+03
      vertex 1.758381e+06 5.415312e+06 -5.559519e+03
      vertex 1.758667e+06 5.413286e+06 -4.725613e+03
    endloop
  endfacet
  facet normal -4.277134e-01 2.929499e-01 8.551267e-01
    outer loop
      vertex 1.758667e+06 5.413286e+06 -4.725613e+03
      vertex 1.756914e+06 5.413942e+06 -5.826971e+03
      vertex 1.757216e+06 5.411838e+06 -4.954809e+03
    endloop
  endfacet
  facet normal -4.329824e-01 2.840255e-01 8.554857e-01
    outer loop
      vertex 1.757216e+06 5.411838e+06 -4.954809e+03
      vertex 1.755445e+06 5.412574e+06 -6.096123e+03
      vertex 1.755659e+06 5.410514e+06 -5.303409e+03
    endloop
  endfacet
  facet normal -4.427856e-01 2.849692e-01 8.501374e-01
    outer loop
      vertex 1.755659e+06 5.410514e+06 -5.303409e+03
      vertex 1.753965e+06 5.411234e+06 -6.427109e+03
      vertex 1.753935e+06 5.409328e+06 -5.804119e+03
    endloop
  endfacet
  facet normal -4.321381e-01 2.951760e-01 8.521313e-01
    outer loop
      vertex 1.753935e+06 5.409328e+06 -5.804119e+03
      vertex 1.752320e+06 5.410178e+06 -6.917201e+03
      vertex 1.752116e+06 5.408202e+06 -6.336333e+03
    endloop
  endfacet
  facet normal -4.073689e-01 3.276473e-01 8.524657e-01
    outer loop
      vertex 1.752116e+06 5.408202e+06 -6.336333e+03
      vertex 1.750589e+06 5.409310e+06 -7.491921e+03
      vertex 1.749987e+06 5.407023e+06 -6.900504e+03
    endloop
  endfacet
  facet normal -3.969700e-01 3.020568e-01 8.667044e-01
    outer loop
      vertex 1.752116e+06 5.408202e+06 -6.336333e+03
      vertex 1.749987e+06 5.407023e+06 -6.900504e+03
      vertex 1.752079e+06 5.406213e+06 -5.659863e+03
    endloop
  endfacet
  facet normal -2.564853e-01 4.888844e-01 8.337910e-01
    outer loop
      vertex 1.748227e+06 5.405438e+06 -6.676986e+03
      vertex 1.746051e+06 5.405568e+06 -7.422805e+03
      vertex 1.746744e+06 5.404029e+06 -6.306907e+03
    endloop
  endfacet
  facet normal -2.545909e-01 4.872885e-01 8.353044e-01
    outer loop
      vertex 1.748227e+06 5.405438e+06 -6.676986e+03
      vertex 1.746744e+06 5.404029e+06 -6.306907e+03
      vertex 1.748642e+06 5.403752e+06 -5.566712e+03
    endloop
  endfacet
  facet normal -3.056920e-01 4.572142e-01 8.351692e-01
    outer loop
      vertex 1.747353e+06 5.407048e+06 -7.878412e+03
      vertex 1.748227e+06 5.405438e+06 -6.676986e+03
      vertex 1.749987e+06 5.407023e+06 -6.900504e+03
    endloop
  endfacet
  facet normal -2.526498e-01 4.851314e-01 8.371473e-01
    outer loop
      vertex 1.746744e+06 5.404029e+06 -6.306907e+03
      vertex 1.744788e+06 5.404071e+06 -6.921878e+03
      vertex 1.745499e+06 5.402458e+06 -5.772734e+03
    endloop
  endfacet
  facet normal -2.542248e-01 4.821610e-01 8.383856e-01
    outer loop
      vertex 1.745499e+06 5.402458e+06 -5.772734e+03
      vertex 1.743469e+06 5.402605e+06 -6.472299e+03
      vertex 1.744418e+06 5.400522e+06 -4.987196e+03
    endloop
  endfacet
  facet normal -2.497902e-01 4.805891e-01 8.406182e-01
    outer loop
      vertex 1.745499e+06 5.402458e+06 -5.772734e+03
      vertex 1.744418e+06 5.400522e+06 -4.987196e+03
      vertex 1.746683e+06 5.401086e+06 -4.635833e+03
    endloop
  endfacet
  facet normal -2.503745e-01 4.844255e-01 8.382390e-01
    outer loop
      vertex 1.746683e+06 5.401086e+06 -4.635833e+03
      vertex 1.744418e+06 5.400522e+06 -4.987196e+03
      vertex 1.746163e+06 5.399138e+06 -3.665693e+03
    endloop
  endfacet
  facet normal -2.509700e-01 4.797011e-01 8.407740e-01
    outer loop
      vertex 1.745499e+06 5.402458e+06 -5.772734e+03
      vertex 1.746683e+06 5.401086e+06 -4.635833e+03
      vertex 1.747239e+06 5.402652e+06 -5.363249e+03
    endloop
  endfacet
  facet normal -2.526456e-01 4.828812e-01 8.384485e-01
    outer loop
      vertex 1.744418e+06 5.400522e+06 -4.987196e+03
      vertex 1.742400e+06 5.401014e+06 -5.878519e+03
      vertex 1.742579e+06 5.398864e+06 -4.585855e+03
    endloop
  endfacet
  facet normal -2.567230e-01 4.835575e-01 8.368187e-01
    outer loop
      vertex 1.742579e+06 5.398864e+06 -4.585855e+03
      vertex 1.741307e+06 5.399462e+06 -5.321769e+03
      vertex 1.740844e+06 5.397587e+06 -4.380663e+03
    endloop
  endfacet
  facet normal -2.517689e-01 4.883247e-01 8.355545e-01
    outer loop
      vertex 1.746163e+06 5.399138e+06 -3.665693e+03
      vertex 1.748089e+06 5.397856e+06 -2.336605e+03
      vertex 1.748313e+06 5.400084e+06 -3.571098e+03
    endloop
  endfacet
  facet normal -2.519822e-01 4.883141e-01 8.354965e-01
    outer loop
      vertex 1.748313e+06 5.400084e+06 -3.571098e+03
      vertex 1.748089e+06 5.397856e+06 -2.336605e+03
      vertex 1.750128e+06 5.399501e+06 -2.682700e+03
    endloop
  endfacet
  facet normal -2.515494e-01 4.878606e-01 8.358917e-01
    outer loop
      vertex 1.750128e+06 5.399501e+06 -2.682700e+03
      vertex 1.748089e+06 5.397856e+06 -2.336605e+03
      vertex 1.750327e+06 5.398074e+06 -1.790092e+03
    endloop
  endfacet
  facet normal -2.519845e-01 4.875650e-01 8.359331e-01
    outer loop
      vertex 1.745185e+06 5.397055e+06 -2.745488e+03
      vertex 1.746163e+06 5.399138e+06 -3.665693e+03
      vertex 1.744083e+06 5.398360e+06 -3.838853e+03
    endloop
  endfacet
  facet normal -2.586912e-01 4.786942e-01 8.390058e-01
    outer loop
      vertex 1.750305e+06 5.401305e+06 -3.671196e+03
      vertex 1.752173e+06 5.402448e+06 -3.746760e+03
      vertex 1.750406e+06 5.403135e+06 -4.684134e+03
    endloop
  endfacet
  facet normal -2.552975e-01 4.789892e-01 8.398765e-01
    outer loop
      vertex 1.750305e+06 5.401305e+06 -3.671196e+03
      vertex 1.750406e+06 5.403135e+06 -4.684134e+03
      vertex 1.748618e+06 5.401965e+06 -4.560385e+03
    endloop
  endfacet
  facet normal -2.541203e-01 4.773278e-01 8.411784e-01
    outer loop
      vertex 1.748618e+06 5.401965e+06 -4.560385e+03
      vertex 1.750406e+06 5.403135e+06 -4.684134e+03
      vertex 1.748642e+06 5.403752e+06 -5.566712e+03
    endloop
  endfacet
  facet normal -2.533812e-01 4.821965e-01 8.386206e-01
    outer loop
      vertex 1.750305e+06 5.401305e+06 -3.671196e+03
      vertex 1.748618e+06 5.401965e+06 -4.560385e+03
      vertex 1.748313e+06 5.400084e+06 -3.571098e+03
    endloop
  endfacet
  facet normal -2.519981e-01 4.821930e-01 8.390393e-01
    outer loop
      vertex 1.748313e+06 5.400084e+06 -3.571098e+03
      vertex 1.748618e+06 5.401965e+06 -4.560385e+03
      vertex 1.746683e+06 5.401086e+06 -4.635833e+03
    endloop
  endfacet
  facet normal -2.501649e-01 4.844062e-01 8.383127e-01
    outer loop
      vertex 1.748313e+06 5.400084e+06 -3.571098e+03
      vertex 1.746683e+06 5.401086e+06 -4.635833e+03
      vertex 1.746163e+06 5.399138e+06 -3.665693e+03
    endloop
  endfacet
  facet normal -4.186672e-01 2.866548e-01 8.617116e-01
    outer loop
      vertex 1.757747e+06 5.404042e+06 -2.087567e+03
      vertex 1.759186e+06 5.405852e+06 -1.990758e+03
      vertex 1.757321e+06 5.406058e+06 -2.965488e+03
    endloop
  endfacet
  facet normal -4.132463e-01 3.151214e-01 8.543571e-01
    outer loop
      vertex 1.753939e+06 5.405460e+06 -4.448230e+03
      vertex 1.754024e+06 5.403559e+06 -3.705621e+03
      vertex 1.755756e+06 5.404756e+06 -3.309155e+03
    endloop
  endfacet
  facet normal -2.838917e-01 4.699616e-01 8.357880e-01
    outer loop
      vertex 1.750406e+06 5.403135e+06 -4.684134e+03
      vertex 1.752201e+06 5.404291e+06 -4.724153e+03
      vertex 1.750276e+06 5.404988e+06 -5.769447e+03
    endloop
  endfacet
  facet normal -4.329278e-01 2.992856e-01 8.502951e-01
    outer loop
      vertex 1.752079e+06 5.406213e+06 -5.659863e+03
      vertex 1.753939e+06 5.405460e+06 -4.448230e+03
      vertex 1.753862e+06 5.407394e+06 -5.167811e+03
    endloop
  endfacet
  facet normal -3.225962e-01 3.977318e-01 8.589185e-01
    outer loop
      vertex 1.752201e+06 5.404291e+06 -4.724153e+03
      vertex 1.752079e+06 5.406213e+06 -5.659863e+03
      vertex 1.750276e+06 5.404988e+06 -5.769447e+03
    endloop
  endfacet
  facet normal -4.178615e-01 3.013503e-01 8.570763e-01
    outer loop
      vertex 1.755756e+06 5.404756e+06 -3.309155e+03
      vertex 1.755782e+06 5.402880e+06 -2.636943e+03
      vertex 1.757747e+06 5.404042e+06 -2.087567e+03
    endloop
  endfacet
  facet normal -4.265696e-01 2.888597e-01 8.570872e-01
    outer loop
      vertex 1.758531e+06 5.407720e+06 -2.909799e+03
      vertex 1.759654e+06 5.409375e+06 -2.908562e+03
      vertex 1.757536e+06 5.409613e+06 -4.042663e+03
    endloop
  endfacet
  facet normal -4.245498e-01 2.802574e-01 8.609374e-01
    outer loop
      vertex 1.757321e+06 5.406058e+06 -2.965488e+03
      vertex 1.758531e+06 5.407720e+06 -2.909799e+03
      vertex 1.756905e+06 5.407752e+06 -3.721974e+03
    endloop
  endfacet
  facet normal -4.262327e-01 2.946610e-01 8.552781e-01
    outer loop
      vertex 1.761522e+06 5.414020e+06 -3.574619e+03
      vertex 1.763080e+06 5.414140e+06 -2.839642e+03
      vertex 1.761894e+06 5.415902e+06 -4.037746e+03
    endloop
  endfacet
  facet normal -4.232988e-01 2.976896e-01 8.556862e-01
    outer loop
      vertex 1.762101e+06 5.412476e+06 -2.750981e+03
      vertex 1.761522e+06 5.414020e+06 -3.574619e+03
      vertex 1.760368e+06 5.412751e+06 -3.704153e+03
    endloop
  endfacet
  facet normal -4.214763e-01 2.958761e-01 8.572136e-01
    outer loop
      vertex 1.760368e+06 5.412751e+06 -3.704153e+03
      vertex 1.761522e+06 5.414020e+06 -3.574619e+03
      vertex 1.760119e+06 5.414682e+06 -4.492801e+03
    endloop
  endfacet
  facet normal -4.222619e-01 2.943845e-01 8.573405e-01
    outer loop
      vertex 1.760119e+06 5.414682e+06 -4.492801e+03
      vertex 1.761522e+06 5.414020e+06 -3.574619e+03
      vertex 1.761894e+06 5.415902e+06 -4.037746e+03
    endloop
  endfacet
  facet normal -4.227462e-01 2.927619e-01 8.576573e-01
    outer loop
      vertex 1.760918e+06 5.410944e+06 -2.816389e+03
      vertex 1.760368e+06 5.412751e+06 -3.704153e+03
      vertex 1.759031e+06 5.411278e+06 -3.860040e+03
    endloop
  endfacet
  facet normal -4.228165e-01 2.928318e-01 8.575988e-01
    outer loop
      vertex 1.759031e+06 5.411278e+06 -3.860040e+03
      vertex 1.760368e+06 5.412751e+06 -3.704153e+03
      vertex 1.758667e+06 5.413286e+06 -4.725613e+03
    endloop
  endfacet
  facet normal -4.216079e-01 2.958381e-01 8.571619e-01
    outer loop
      vertex 1.758667e+06 5.413286e+06 -4.725613e+03
      vertex 1.760368e+06 5.412751e+06 -3.704153e+03
      vertex 1.760119e+06 5.414682e+06 -4.492801e+03
    endloop
  endfacet
  facet normal -4.265420e-01 2.889791e-01 8.570607e-01
    outer loop
      vertex 1.759654e+06 5.409375e+06 -2.908562e+03
      vertex 1.759031e+06 5.411278e+06 -3.860040e+03
      vertex 1.757536e+06 5.409613e+06 -4.042663e+03
    endloop
  endfacet
  facet normal -4.272455e-01 2.896750e-01 8.564751e-01
    outer loop
      vertex 1.757536e+06 5.409613e+06 -4.042663e+03
      vertex 1.759031e+06 5.411278e+06 -3.860040e+03
      vertex 1.757216e+06 5.411838e+06 -4.954809e+03
    endloop
  endfacet
  facet normal -4.264997e-01 2.915640e-01 8.562058e-01
    outer loop
      vertex 1.757216e+06 5.411838e+06 -4.954809e+03
      vertex 1.759031e+06 5.411278e+06 -3.860040e+03
      vertex 1.758667e+06 5.413286e+06 -4.725613e+03
    endloop
  endfacet
  facet normal -2.563958e-01 4.818597e-01 8.378976e-01
    outer loop
      vertex 1.748642e+06 5.403752e+06 -5.566712e+03
      vertex 1.746744e+06 5.404029e+06 -6.306907e+03
      vertex 1.747239e+06 5.402652e+06 -5.363249e+03
    endloop
  endfacet
  facet normal -2.508695e-01 4.841039e-01 8.382767e-01
    outer loop
      vertex 1.747239e+06 5.402652e+06 -5.363249e+03
      vertex 1.746744e+06 5.404029e+06 -6.306907e+03
      vertex 1.745499e+06 5.402458e+06 -5.772734e+03
    endloop
  endfacet
  facet normal -2.524629e-01 4.775235e-01 8.415663e-01
    outer loop
      vertex 1.748642e+06 5.403752e+06 -5.566712e+03
      vertex 1.747239e+06 5.402652e+06 -5.363249e+03
      vertex 1.748618e+06 5.401965e+06 -4.560385e+03
    endloop
  endfacet
  facet normal -2.509300e-01 4.796942e-01 8.407899e-01
    outer loop
      vertex 1.748618e+06 5.401965e+06 -4.560385e+03
      vertex 1.747239e+06 5.402652e+06 -5.363249e+03
      vertex 1.746683e+06 5.401086e+06 -4.635833e+03
    endloop
  endfacet
  facet normal -2.628817e-01 4.845901e-01 8.343055e-01
    outer loop
      vertex 1.748227e+06 5.405438e+06 -6.676986e+03
      vertex 1.748642e+06 5.403752e+06 -5.566712e+03
      vertex 1.750276e+06 5.404988e+06 -5.769447e+03
    endloop
  endfacet
  facet normal -2.551011e-01 4.755435e-01 8.418918e-01
    outer loop
      vertex 1.750276e+06 5.404988e+06 -5.769447e+03
      vertex 1.748642e+06 5.403752e+06 -5.566712e+03
      vertex 1.750406e+06 5.403135e+06 -4.684134e+03
    endloop
  endfacet
  facet normal -2.829691e-01 4.347692e-01 8.549294e-01
    outer loop
      vertex 1.748227e+06 5.405438e+06 -6.676986e+03
      vertex 1.750276e+06 5.404988e+06 -5.769447e+03
      vertex 1.749987e+06 5.407023e+06 -6.900504e+03
    endloop
  endfacet
  facet normal -3.368961e-01 4.202293e-01 8.425606e-01
    outer loop
      vertex 1.749987e+06 5.407023e+06 -6.900504e+03
      vertex 1.750276e+06 5.404988e+06 -5.769447e+03
      vertex 1.752079e+06 5.406213e+06 -5.659863e+03
    endloop
  endfacet
  facet normal -2.508394e-01 4.839621e-01 8.383676e-01
    outer loop
      vertex 1.744083e+06 5.398360e+06 -3.838853e+03
      vertex 1.746163e+06 5.399138e+06 -3.665693e+03
      vertex 1.744418e+06 5.400522e+06 -4.987196e+03
    endloop
  endfacet
  facet normal -2.568627e-01 4.839577e-01 8.365443e-01
    outer loop
      vertex 1.745185e+06 5.397055e+06 -2.745488e+03
      vertex 1.744083e+06 5.398360e+06 -3.838853e+03
      vertex 1.742239e+06 5.396427e+06 -3.286756e+03
    endloop
  endfacet
  facet normal -2.567869e-01 4.832097e-01 8.369999e-01
    outer loop
      vertex 1.745185e+06 5.397055e+06 -2.745488e+03
      vertex 1.742239e+06 5.396427e+06 -3.286756e+03
      vertex 1.743634e+06 5.395268e+06 -2.189806e+03
    endloop
  endfacet
  facet normal -4.253541e-01 2.841727e-01 8.592554e-01
    outer loop
      vertex 1.757747e+06 5.404042e+06 -2.087567e+03
      vertex 1.757321e+06 5.406058e+06 -2.965488e+03
      vertex 1.755756e+06 5.404756e+06 -3.309155e+03
    endloop
  endfacet
  facet normal -4.357581e-01 2.987108e-01 8.490505e-01
    outer loop
      vertex 1.753862e+06 5.407394e+06 -5.167811e+03
      vertex 1.753939e+06 5.405460e+06 -4.448230e+03
      vertex 1.755532e+06 5.406646e+06 -4.047668e+03
    endloop
  endfacet
  facet normal -4.320367e-01 2.974895e-01 8.513779e-01
    outer loop
      vertex 1.752079e+06 5.406213e+06 -5.659863e+03
      vertex 1.753862e+06 5.407394e+06 -5.167811e+03
      vertex 1.752116e+06 5.408202e+06 -6.336333e+03
    endloop
  endfacet
  facet normal -4.228933e-01 2.913730e-01 8.580577e-01
    outer loop
      vertex 1.758531e+06 5.407720e+06 -2.909799e+03
      vertex 1.757536e+06 5.409613e+06 -4.042663e+03
      vertex 1.756905e+06 5.407752e+06 -3.721974e+03
    endloop
  endfacet
  facet normal -4.284262e-01 2.786767e-01 8.595291e-01
    outer loop
      vertex 1.757321e+06 5.406058e+06 -2.965488e+03
      vertex 1.756905e+06 5.407752e+06 -3.721974e+03
      vertex 1.755532e+06 5.406646e+06 -4.047668e+03
    endloop
  endfacet
  facet normal -4.258847e-01 2.849468e-01 8.587360e-01
    outer loop
      vertex 1.757321e+06 5.406058e+06 -2.965488e+03
      vertex 1.755532e+06 5.406646e+06 -4.047668e+03
      vertex 1.755756e+06 5.404756e+06 -3.309155e+03
    endloop
  endfacet
  facet normal -4.274606e-01 2.845111e-01 8.580973e-01
    outer loop
      vertex 1.755756e+06 5.404756e+06 -3.309155e+03
      vertex 1.755532e+06 5.406646e+06 -4.047668e+03
      vertex 1.753939e+06 5.405460e+06 -4.448230e+03
    endloop
  endfacet
  facet normal -4.359197e-01 2.902242e-01 8.519061e-01
    outer loop
      vertex 1.755532e+06 5.406646e+06 -4.047668e+03
      vertex 1.756905e+06 5.407752e+06 -3.721974e+03
      vertex 1.755567e+06 5.408576e+06 -4.687330e+03
    endloop
  endfacet
  facet normal -4.335854e-01 2.939268e-01 8.518279e-01
    outer loop
      vertex 1.755567e+06 5.408576e+06 -4.687330e+03
      vertex 1.756905e+06 5.407752e+06 -3.721974e+03
      vertex 1.757536e+06 5.409613e+06 -4.042663e+03
    endloop
  endfacet
  facet normal -4.403521e-01 2.896151e-01 8.498312e-01
    outer loop
      vertex 1.755532e+06 5.406646e+06 -4.047668e+03
      vertex 1.755567e+06 5.408576e+06 -4.687330e+03
      vertex 1.753862e+06 5.407394e+06 -5.167811e+03
    endloop
  endfacet
  facet normal -4.431833e-01 2.950616e-01 8.464793e-01
    outer loop
      vertex 1.753862e+06 5.407394e+06 -5.167811e+03
      vertex 1.755567e+06 5.408576e+06 -4.687330e+03
      vertex 1.753935e+06 5.409328e+06 -5.804119e+03
    endloop
  endfacet
  facet normal -4.326494e-01 2.963100e-01 8.514781e-01
    outer loop
      vertex 1.753862e+06 5.407394e+06 -5.167811e+03
      vertex 1.753935e+06 5.409328e+06 -5.804119e+03
      vertex 1.752116e+06 5.408202e+06 -6.336333e+03
    endloop
  endfacet
  facet normal -2.556946e-01 4.823242e-01 8.378446e-01
    outer loop
      vertex 1.740844e+06 5.397587e+06 -4.380663e+03
      vertex 1.742239e+06 5.396427e+06 -3.286756e+03
      vertex 1.742579e+06 5.398864e+06 -4.585855e+03
    endloop
  endfacet
  facet normal -2.546908e-01 4.823417e-01 8.381402e-01
    outer loop
      vertex 1.742579e+06 5.398864e+06 -4.585855e+03
      vertex 1.742239e+06 5.396427e+06 -3.286756e+03
      vertex 1.744083e+06 5.398360e+06 -3.838853e+03
    endloop
  endfacet
  facet normal -2.538221e-01 4.839500e-01 8.374764e-01
    outer loop
      vertex 1.742579e+06 5.398864e+06 -4.585855e+03
      vertex 1.744083e+06 5.398360e+06 -3.838853e+03
      vertex 1.744418e+06 5.400522e+06 -4.987196e+03
    endloop
  endfacet
  facet normal -4.352074e-01 2.872217e-01 8.532867e-01
    outer loop
      vertex 1.757216e+06 5.411838e+06 -4.954809e+03
      vertex 1.755659e+06 5.410514e+06 -5.303409e+03
      vertex 1.757536e+06 5.409613e+06 -4.042663e+03
    endloop
  endfacet
  facet normal -4.328150e-01 2.917573e-01 8.529647e-01
    outer loop
      vertex 1.757536e+06 5.409613e+06 -4.042663e+03
      vertex 1.755659e+06 5.410514e+06 -5.303409e+03
      vertex 1.755567e+06 5.408576e+06 -4.687330e+03
    endloop
  endfacet
  facet normal -4.455694e-01 2.904150e-01 8.468335e-01
    outer loop
      vertex 1.755567e+06 5.408576e+06 -4.687330e+03
      vertex 1.755659e+06 5.410514e+06 -5.303409e+03
      vertex 1.753935e+06 5.409328e+06 -5.804119e+03
    endloop
  endfacet
endsolid Surface 1
